<?xml version="1.0" encoding="utf-8"?>
<!-- Generator: Adobe Illustrator 16.0.0, SVG Export Plug-In . SVG Version: 6.00 Build 0)  -->
<!DOCTYPE svg PUBLIC "-//W3C//DTD SVG 1.1//EN" "http://www.w3.org/Graphics/SVG/1.1/DTD/svg11.dtd">
<svg version="1.1" id="Layer_1" xmlns="http://www.w3.org/2000/svg" xmlns:xlink="http://www.w3.org/1999/xlink" x="0px" y="0px"
	 width="172.979px" height="267.966px" viewBox="0 0 172.979 267.966" enable-background="new 0 0 172.979 267.966"
	 xml:space="preserve">
<g>
	<g>
		<path fill-rule="evenodd" clip-rule="evenodd" fill="#354A35" d="M1,225.972C1,152.314,1,78.657,1,5C1,1.004,1.004,1.001,5,1.001
			C61.326,1,117.652,1,173.979,1c-0.054,0.828-0.154,1.657-0.153,2.485c0.029,53.808,0.073,107.615,0.102,161.422
			c0.018,33.15,0.021,66.301,0.013,99.451c-0.002,5.153,0.39,4.508-4.526,4.562c-1.165,0.014-2.332,0.004-3.498,0.005
			C110.943,268.938,55.972,268.953,1,268.967c0-0.333,0-0.667,0-1c5.994,0.015,11.992-0.079,17.981,0.093
			c2.869,0.082,4.198-0.575,4.15-3.832c-0.171-11.487-0.177-22.981,0.003-34.469c0.051-3.289-1.31-3.876-4.154-3.805
			C12.991,226.104,6.994,225.982,1,225.972z M10.457,217.514c1.006,0.601,1.989,0.683,2.932-0.132
			c2.582-3.837,2.472-6.071-0.413-8.379c-0.652-1.181-1.299-1.473-1.937,0.011c-1.192-0.282-1.809,0.312-2.059,1.396
			c-0.479,2.085-0.475,4.14,0.482,6.114C9.794,216.854,10.125,217.184,10.457,217.514z M24.892,138.537
			c-0.35,0.353-0.637,1.023-0.26,1.185c1.236,0.528,2.486,0.504,3.383-0.765c-0.031-0.689-0.061-1.379-0.092-2.068
			c-0.776-0.945-1.751-1.589-2.925-1.932c0.03,0.639,0.061,1.276,0.091,1.914C25.023,137.426,24.958,137.981,24.892,138.537z
			 M13.198,152.495c1.741,1.44,3.538,1.41,5.378,0.203c2.505-1.627,1.438-4.148,1.546-6.353c0.048-0.988-0.711-1.429-1.627-1.433
			c-2.98-0.012-5.961-0.01-8.94,0.049c-0.758,0.015-1.326,1.026-0.622,1.122c3.62,0.491,2.103,3.947,3.521,5.638
			C12.703,151.979,12.951,152.237,13.198,152.495z M24.41,124.563c0.631-0.1,1.26-0.272,1.892-0.279
			c0.728-0.007,1.948,0.646,2.001-0.352c0.083-1.55-1.357-0.685-2.148-0.782c-0.632-0.077-1.285,0.011-1.928,0.025
			c-0.762,0.021-1.253,0.398-1.001,1.157C23.382,124.803,23.949,124.795,24.41,124.563z M25.004,144.971
			c0.042,0.724,0.084,1.447,0.127,2.171c-0.471,1.304-0.676,2.6,1.147,2.877c1.953,0.298,2.57-0.778,2.191-2.582
			c0.529-2.036,0.586-3.761-2.327-3.526c-0.491-1.35,2.05-0.831,1.327-1.824c-0.561-0.771-1.854-0.399-2.404,0.563
			C24.673,143.334,24.527,144.185,25.004,144.971z M24.009,161.928c-1.07,1.346-1.783,2.753,0.769,2.978
			c1.261,0.111,3.199,0.918,3.719-1.045c0.458-1.731-0.688-2.694-2.49-2.71c-0.819-0.008-1.624,0.041-2.094,0.875L24.009,161.928z
			 M9.031,174.887c2.549,0.896,5.185,0.29,7.778,0.434c0.957,0.054,2.681,0.169,2.678-0.513c-0.007-1.7-1.689-0.701-2.625-0.967
			c-0.616-0.174-1.399-0.11-1.611-0.837c-1.458-4.977-1.521-0.788-2.229,0.285c-0.651,0.987-1.818,0.358-2.738,0.546
			c-0.08-0.491-0.109-0.997-0.248-1.472c-0.473-1.623,0.787-4.813-0.896-4.64c-2.022,0.208-0.659,3.317-0.964,5.133
			C8.051,173.605,7.964,174.544,9.031,174.887z M84.182,43.165c1.988-1.16,3.929-1.562,5.703,0.385
			c0.477,0.523,1.12,0.943,1.577,0.266c0.385-0.57-0.174-1.313-0.657-1.666c-2.537-1.856-5.039-1.921-7.392,0.376
			c-0.674,1.299-1.13,2.572,0.422,3.611c1.307,1.822,3.603,1.4,5.295,2.338c0.908,0.503,1.647,1.262,1.407,2.378
			c-0.225,1.038-1.054,1.653-2.087,1.891c-1.393,0.319-2.531-0.247-3.731-0.923c-0.786-0.442-0.585-3.025-2.146-1.346
			c-0.656,0.705,0.554,2.059,1.54,2.766c1.471,1.058,3.14,0.934,4.781,0.731c1.819-0.224,3.078-1.211,3.336-3.113
			c0.256-1.875-0.536-3.223-2.343-3.864c-1.709-0.607-3.442-1.144-5.165-1.711C84.542,44.578,84.361,43.872,84.182,43.165z
			 M97.051,211.037c-0.887-0.246-1.006,0.314-1.027,0.979c-4.022,2.968-1.337,3.388,1.436,3.828c0.926,0.146,0.466,2.438,1.761,1.55
			c0.819-0.563,1.892-1.962,1.047-3.337c-0.673-1.094-0.395-2.215-0.522-3.327c-0.103-0.893,0.325-2.353-1.033-2.288
			C97.496,208.498,96.915,209.717,97.051,211.037z M74.638,210.61c0.448,0.369,0.896,0.737,1.344,1.106
			c-0.651,1.501,0.997,1.383,1.49,2.077c0.556,0.783,0.606,1.512-0.028,2.191c-0.609,0.653-1.284,0.81-2.156,0.245
			c-0.583-0.376-1.255-2.167-2.019-0.432c-0.394,0.893,0.738,1.714,1.721,2.038c2.604,0.857,4.871-0.847,4.374-3.469
			c-0.235-1.239-0.851-2.271-0.464-3.704c0.425-1.572-0.874-2.398-2.293-2.549c-1.601-0.168-2.859,0.456-3.179,2.226
			C73.426,210.357,74.218,210.518,74.638,210.61z M12.988,135.951c-2.625,1.233-1.334,3.22-0.622,4.715
			c0.911,1.914,2.952,1.968,4.799,1.664c1.813-0.299,2.953-1.467,3.037-3.373c0.042-0.934,0.479-2.36-0.515-2.688
			c-1.566-0.517-1.127,1.091-1.306,1.892c-0.147,0.661-0.237,1.282-0.945,1.575c-0.156-0.597-0.375-1.187-0.452-1.794
			c-0.082-0.651-0.026-1.32-0.034-1.982c-0.012-1.073-0.249-2.055-1.565-2.038c-1.338,0.017-2.775,0.091-2.476,2.107L12.988,135.951
			z M103.019,47.97l0.098,0.1c-0.663-1.187,0.041-2.111,0.48-3.165c0.723-1.731-0.273-3.053-1.757-3.516
			c-2.203-0.689-4.756-0.948-6.769,0.032c-1.537,0.749-0.556,3.02-0.7,4.607c-0.104,1.144-0.027,2.305-0.019,3.458
			c0.034,4.586,0.036,4.586,4.602,4.474c0.659-0.017,1.333,0.05,1.974-0.068C104.246,53.277,104.847,51.545,103.019,47.97z
			 M105.025,77.897c-20.644,0-41.287-0.01-61.931,0.005c-7.82,0.006-10.059,2.257-10.063,10.111c-0.012,25.97-0.011,51.941,0,77.912
			c0.004,7.823,2.271,10.096,10.089,10.098c41.287,0.01,82.574,0.007,123.861,0.002c5.154-0.001,5.175-0.02,5.176-5.122
			c0.007-29.301,0.007-58.601-0.001-87.902c-0.001-5.081-0.022-5.099-5.201-5.101C146.313,77.893,125.669,77.897,105.025,77.897z
			 M87.467,3.077c-8.313,0-16.625-0.021-24.938,0.008C58.05,3.1,58.005,3.137,57.979,7.343c-0.04,6.317-0.07,12.636,0.011,18.953
			c0.073,5.708,2.924,8.681,8.551,8.714c13.965,0.081,27.932,0.082,41.896-0.001c5.597-0.033,8.456-3.032,8.533-8.744
			c0.085-6.316,0.051-12.636,0.011-18.954c-0.025-4.134-0.071-4.199-4.077-4.22C104.426,3.046,95.946,3.078,87.467,3.077z
			 M173.012,247.169c0-5.992-0.07-11.984,0.035-17.974c0.042-2.344-0.776-3.279-3.165-3.223c-4.823,0.114-9.654,0.122-14.478-0.005
			c-2.5-0.065-3.557,0.71-3.533,3.381c0.104,11.814,0.083,23.633,0.015,35.448c-0.013,2.324,0.788,3.298,3.176,3.242
			c4.658-0.107,9.326-0.176,13.978,0.027c2.996,0.131,4.158-0.774,4.033-3.926C172.848,258.491,173.009,252.827,173.012,247.169z
			 M44.903,246.794c0,5.994,0.062,11.99-0.032,17.982c-0.036,2.317,0.771,3.312,3.168,3.262c4.993-0.104,9.992-0.111,14.985,0.002
			c2.506,0.057,3.067-1.145,3.056-3.363c-0.06-11.821-0.068-23.645,0.005-35.466c0.014-2.331-0.762-3.295-3.162-3.238
			c-4.826,0.114-9.663,0.174-14.483-0.02c-2.985-0.12-3.655,1.182-3.586,3.857C45,235.469,44.898,241.132,44.903,246.794z
			 M130.079,246.584c0-5.662-0.071-11.325,0.033-16.984c0.045-2.403-0.499-3.727-3.285-3.638c-4.99,0.159-9.99,0.104-14.984,0.02
			c-2.142-0.036-2.948,0.811-2.939,2.939c0.052,11.988,0.063,23.979-0.009,35.967c-0.015,2.411,0.966,3.199,3.27,3.151
			c4.827-0.102,9.66-0.134,14.484,0.011c2.612,0.078,3.524-0.898,3.469-3.484C129.99,258.574,130.077,252.578,130.079,246.584z
			 M66.934,246.469c0,6.159,0.035,12.319-0.021,18.479c-0.018,2.005,0.573,3.116,2.814,3.08c4.827-0.077,9.657-0.078,14.483,0.002
			c2.199,0.036,2.88-0.979,2.872-3.029c-0.042-11.986-0.063-23.974,0.016-35.959c0.017-2.493-1.104-3.112-3.334-3.063
			c-4.493,0.097-8.994,0.143-13.483-0.015c-2.671-0.094-3.444,1.017-3.39,3.525C67.012,235.146,66.929,240.808,66.934,246.469z
			 M108.048,247.306c0-5.994-0.05-11.988,0.026-17.98c0.027-2.191-0.483-3.434-3.039-3.356c-4.658,0.139-9.324,0.118-13.983,0.005
			c-2.385-0.058-3.188,0.886-3.173,3.227c0.074,11.819,0.064,23.641,0.006,35.461c-0.011,2.205,0.524,3.439,3.044,3.378
			c4.658-0.115,9.324-0.111,13.983-0.001c2.399,0.058,3.204-0.935,3.166-3.253C107.982,258.96,108.046,253.133,108.048,247.306z
			 M151.048,247.023c0-5.829-0.074-11.658,0.035-17.484c0.046-2.451-0.604-3.678-3.338-3.578c-4.49,0.165-8.995,0.155-13.485,0.003
			c-2.653-0.09-3.428,0.995-3.409,3.517c0.087,11.655,0.081,23.313,0.004,34.968c-0.016,2.449,0.612,3.696,3.347,3.602
			c4.49-0.155,8.994-0.157,13.484,0c2.687,0.095,3.45-1.032,3.399-3.544C150.967,258.681,151.047,252.852,151.048,247.023z
			 M44.09,247.033c0-5.828-0.077-11.658,0.036-17.483c0.047-2.458-0.603-3.686-3.339-3.587c-4.49,0.161-8.995,0.156-13.485,0
			c-2.652-0.092-3.429,0.978-3.41,3.506c0.089,11.655,0.081,23.313,0.005,34.969c-0.016,2.432,0.57,3.71,3.326,3.612
			c4.491-0.16,8.995-0.152,13.485,0.001c2.666,0.091,3.47-1.007,3.418-3.534C44.007,258.691,44.088,252.861,44.09,247.033z
			 M16.807,78.712c-0.165,0-0.334-0.023-0.495,0.003c-1.395,0.229-3.909-0.592-3.933,0.743c-0.029,1.617,2.371,0.848,3.709,0.957
			c1.652,0.136,2.323,0.841,2.308,2.481c-0.017,1.927-1.063,2.527-2.795,2.685c-1.164,0.106-3.289-0.572-3.205,0.954
			c0.073,1.337,2.249,0.631,3.485,0.719c2.486,0.176,4.13-0.829,4.374-3.544c0.074-0.828-0.167-2.302,1.472-1.39
			c0.548,0.306,0.552,1.801,1.647,0.785c0.688-0.638,0.444-1.502,0.034-2.273C21.893,77.983,19.187,78.856,16.807,78.712z
			 M20.239,93.354c0.03-3.484,0.03-3.496-3.486-3.592c-1.314-0.036-2.636-0.079-3.944,0.016c-1.424,0.103-3.473-0.72-4.079,0.727
			c-0.479,1.14,1.909,0.666,2.472,1.645c0.303,0.526,0.343,1.208,0.48,1.825c0.833,3.757,2,4.742,5.102,4.349
			C19.79,97.943,20.391,95.917,20.239,93.354z M79.968,46.512c0.025,0,0.051,0,0.076,0c0-1,0.048-2.002-0.016-2.999
			c-0.048-0.744,0.309-2.044-0.6-2.061c-1.458-0.025-0.93,1.439-0.981,2.303c-0.107,1.828-0.017,3.667-0.109,5.496
			c-0.104,2.07-0.988,3.571-3.313,3.534c-2.248-0.036-3.275-1.433-3.378-3.534c-0.106-2.162-0.07-4.33-0.134-6.495
			c-0.019-0.632-0.035-1.44-0.966-1.362c-0.556,0.046-0.575,0.67-0.575,1.127c0.001,2.499-0.151,5.014,0.087,7.491
			c0.287,2.98,1.964,4.12,5.187,4.071c2.748-0.041,4.433-1.268,4.704-4.077C80.061,48.853,79.968,47.678,79.968,46.512z
			 M16.054,109.403c1.127-0.272,3.447,0.764,3.654-0.896c0.16-1.279-2.169-0.706-3.386-0.774c-1.715-0.098-2.91-0.514-2.834-2.539
			c0.071-1.914,1.186-2.573,2.92-2.581c0.662-0.003,1.325-0.034,1.986-0.073c0.675-0.039,1.463-0.238,1.373-0.995
			c-0.095-0.797-1-0.684-1.629-0.72c-0.826-0.047-1.662-0.083-2.483-0.012c-3.181,0.278-3.875,1.606-4.035,5.517
			C11.477,109.837,13.628,109.471,16.054,109.403z M20.245,159.755c-0.418-1.329,0.843-3.437-1.429-3.707
			c-2.04-0.243-4.308-0.834-6.106,0.996c-1.356,1.379-1.11,3.012-0.819,4.647c0.047,0.266,0.411,0.476,0.628,0.712
			c0.219-0.209,0.572-0.385,0.633-0.633c0.193-0.794,0.197-1.64,0.438-2.415c0.129-0.416,0.595-0.727,0.909-1.084
			c0.185,0.41,0.465,0.806,0.534,1.234c0.154,0.966-0.138,2.015,0.472,2.892c0.566,0.815,1.21,1.699,2.316,1.604
			c1.061-0.091,1.8-0.879,2.118-1.854C20.189,161.382,20.157,160.524,20.245,159.755z M20.173,126.007
			c-0.179-0.695,0.635-2.552-0.771-2.6c-1.393-0.048-0.832,1.8-0.987,2.86c-0.048,0.326-0.037,0.661-0.047,0.992
			c-0.04,1.369-0.766,2.192-2.096,2.297c-1.52,0.12-2.553-0.58-2.745-2.185c-0.137-1.146-0.165-2.306-0.322-3.447
			c-0.033-0.238-0.432-0.602-0.646-0.591c-0.229,0.012-0.607,0.382-0.63,0.624c-0.199,2.102-0.882,4.287,0.734,6.163
			c1.409,1.635,3.335,1.486,5.065,1.014C20.067,130.495,20.453,128.504,20.173,126.007z M16.999,111.872
			c-3.805-0.044-5.087,0.862-5.284,3.762c-0.053,0.781-0.287,2.031,0.546,2.204c1.557,0.324,0.93-1.22,1.174-1.966
			c0.21-0.64,0.373-1.533,1.016-1.495c0.684,0.04,0.545,0.97,0.629,1.574c0.111,0.803,0.068,1.726,0.462,2.368
			c0.67,1.094,1.564,2.398,3.135,1.31c2.38-1.649,1.532-4.184,1.372-6.382C19.906,111.262,18.062,112.1,16.999,111.872z
			 M141.111,208.111c-2.771-0.049-4.533,2.701-3.879,6.182c0.35,1.854,0.959,3.607,3.305,3.677c1.999,0.06,3.111-1.08,3.289-2.961
			c0.197-2.09-0.758-3.471-2.95-3.843c-0.618-0.104-1.855,0.643-1.59-0.855c0.105-0.596,0.837-0.857,1.579-0.931
			c0.586-0.058,1.563,1.193,1.73-0.276C142.672,208.441,141.774,208.215,141.111,208.111z M119.197,208.053
			c-2.186-0.647-2.52,1.427-2.783,3.217c-0.521,3.538,1.794,0.953,2.791,1.171c1.44,0.313,1.983,1.247,1.699,2.536
			c-0.36,1.635-1.319,2.234-2.857,1.1c-0.565-0.417-1.202-1.497-1.787-0.139c-0.299,0.693,0.478,1.323,0.993,1.56
			c1.817,0.833,3.575,0.87,4.752-1.132c1.179-2.002,0.403-4.153-1.874-5.295c-0.604-0.303-1.877,0.444-1.762-0.897
			c0.066-0.778,1.059-0.579,1.677-0.726c0.585-0.139,1.599,0.052,1.418-0.874C121.337,207.922,120.378,208.215,119.197,208.053z
			 M54.542,217.938c0.333,0,0.69,0.079,0.993-0.016c0.667-0.21,1.863,0.545,1.915-0.698c0.031-0.747-0.992-0.602-1.602-0.663
			c-2.593-0.262-1.787-1.205-0.483-2.29c0.509-0.424,1.036-0.852,1.445-1.364c1.001-1.256,1.647-2.577,0.126-3.928
			c-1.513-1.342-3.036-1.159-4.456,0.11c-0.318,0.284-0.606,0.986-0.467,1.302c0.182,0.413,0.685,0.327,1.11-0.108
			c0.703-0.721,1.646-1.426,2.523-0.407c1.027,1.191,0.09,2.135-0.762,2.962c-0.596,0.578-1.271,1.075-1.86,1.659
			c-0.842,0.834-1.823,1.918-1.285,3.006C52.143,218.318,53.565,217.881,54.542,217.938z M34.142,213.371
			c0-1.148,0.01-2.298-0.004-3.446c-0.007-0.624,0.015-1.47-0.75-1.485c-0.574-0.012-1.16,0.546-1.74,0.851
			c-0.66,0.347-1.166,0.811-0.255,1.356c1.689,1.011,0.836,2.635,1.082,3.993c0.189,1.047-0.488,2.994,0.769,2.92
			c1.648-0.099,0.615-2.078,0.891-3.207C34.21,214.043,34.146,213.699,34.142,213.371z M161.992,208.191
			c-0.655,0-1.312,0.018-1.966-0.006c-0.464-0.018-0.693,0.162-0.524,0.541c0.109,0.247,0.396,0.602,0.594,0.595
			c3.744-0.116,2.365,1.729,1.47,3.572c-0.565,1.164-0.836,2.473-1.213,3.724c-0.165,0.547,0.092,0.935,0.616,1.097
			c0.698,0.215,0.85-0.362,0.938-0.807c0.387-1.939,0.978-3.791,1.932-5.541C165.597,208.141,165.57,208.127,161.992,208.191z
			 M27.986,170.6c1.593-3.091,0.356-3.38-2.362-2.263c-0.393,0.162-0.965,0.138-1.362-0.025s0.023-1.414-0.965-0.889
			c-0.208,0.11-0.137,0.946-0.03,1.409c0.372,1.626,1.788,1.132,2.817,1.225c2.855,0.257,1.389,2.003,1.047,3.167
			c-0.268,0.91-1.351,0.692-2.136,0.818c-0.363,0.058-0.937-0.09-0.894,0.533c0.009,0.13,0.547,0.259,0.854,0.324
			C27.432,175.432,28.017,174.613,27.986,170.6z M24.115,152.435c-0.258,0.159-0.635,0.256-0.732,0.477
			c-0.296,0.669-0.088,1.358,0.468,1.754c1.323,0.941,2.768,1.047,4.121,0.084c0.525-0.374,0.84-1.044,0.505-1.74
			c-0.119-0.248-0.432-0.403-0.656-0.601C26.599,154.288,25.368,154.962,24.115,152.435z M28.663,131.045
			c-0.383-0.611-0.645-1.628-1.8-1.735c-1.163-0.108-1.805,0.606-1.888,1.711c-0.082,1.089,0.341,1.87,1.599,1.942
			C27.756,133.03,28.342,132.406,28.663,131.045z M26.913,121.771c0.912-0.14,1.569-0.802,1.548-1.57
			c-0.035-1.267-1.169-1.942-2.23-2.042c-1.284-0.122-1.487,1.085-1.363,2.04C25.006,121.263,25.764,121.855,26.913,121.771z
			 M25.847,127.769c0.771-0.298,2.034,0.634,2.507-0.566c0.358-0.91-0.722-1.049-1.254-0.874c-1.17,0.384-2.948-0.524-3.403,1.141
			C23.556,127.983,25.027,127.604,25.847,127.769z M25.682,114.357c-0.743-0.011-0.793,0.499-0.783,0.989
			c0.02,0.963,0.483,1.572,1.504,1.503c0.425-0.029,0.837-0.267,1.255-0.409C26.991,115.738,26.324,115.035,25.682,114.357z"/>
		<path fill-rule="evenodd" clip-rule="evenodd" fill="#788678" d="M1,225.972c5.994,0.011,11.991,0.132,17.98-0.018
			c2.845-0.071,4.206,0.516,4.154,3.805c-0.18,11.487-0.174,22.981-0.003,34.469c0.048,3.257-1.281,3.914-4.15,3.832
			c-5.99-0.172-11.987-0.078-17.981-0.093C1,253.969,1,239.97,1,225.972z M17.387,260.322c1.775-2.236,2.117-4.438-0.156-6.578
			c-1.403-2.133-3.412-2.95-5.862-2.464c-0.837,0.167-2.013,0.543-1.146,1.92c-0.751-0.798-1.521-0.438-2.08,0.147
			c-2.64,2.761-2.005,6.083,1.637,8.879C12.86,263.762,15.594,263.919,17.387,260.322z M10.193,233.219
			c-1.688-1.15-2.117,0.239-2.691,1.336c-1.408,4.247-1.184,4.986,2.312,7.625c2.385,1.246,4.703,2.069,6.395-1.023
			c3.522-3.035,3.532-4.608,0.051-8.464c-1.491-1.745-3.375-2.041-5.415-1.289C10.157,231.656,9.301,232.221,10.193,233.219z"/>
		<path fill-rule="evenodd" clip-rule="evenodd" fill="#FDFDFD" d="M1,268.967c54.972-0.014,109.943-0.028,164.915-0.042
			c1.166-0.001,2.333,0.009,3.498-0.005c4.916-0.054,4.524,0.592,4.526-4.562c0.008-33.15,0.005-66.301-0.013-99.451
			c-0.028-53.808-0.072-107.615-0.102-161.422c-0.001-0.828,0.1-1.657,0.153-2.485c0.308,0.218,1.047-0.506,1.01,0.5
			c-0.043,1.165-0.01,2.333-0.01,3.5c0,86.989,0,173.978-0.001,260.967c0,3.996-0.003,3.999-3.999,4
			c-55.326,0-110.652,0.009-165.979-0.053C3.688,269.912,1.928,270.923,1,268.967z"/>
		<path fill-rule="evenodd" clip-rule="evenodd" fill="#FDFDFD" d="M105.025,77.897c20.644,0,41.287-0.005,61.931,0.003
			c5.179,0.002,5.2,0.021,5.201,5.101c0.008,29.301,0.008,58.601,0.001,87.902c-0.001,5.103-0.021,5.121-5.176,5.122
			c-41.287,0.005-82.574,0.008-123.861-0.002c-7.818-0.002-10.085-2.274-10.089-10.098c-0.012-25.971-0.013-51.942,0-77.912
			c0.004-7.854,2.243-10.105,10.063-10.111C63.738,77.888,84.382,77.897,105.025,77.897z M86.948,94.906c0-0.015,0-0.029,0-0.044
			c-4.997,0-9.995-0.008-14.991,0.002c-6.664,0.014-6.887,0.217-6.891,6.636c-0.011,16.491-0.005,32.981,0.001,49.472
			c0,1.165-0.098,2.362,0.128,3.487c0.559,2.775,2.298,4.397,5.188,4.479c2.926,0.082,4.693-1.556,5.378-4.26
			c0.32-1.264,0.225-2.646,0.23-3.975c0.022-5.164,0.159-10.334-0.049-15.488c-0.119-2.965,0.663-4.33,3.861-4.057
			c2.644,0.225,5.336,0.162,7.987-0.038c3.172-0.239,5.079-2.222,5.2-5.006c0.123-2.828-1.603-4.869-4.738-5.473
			c-0.972-0.188-1.99-0.119-2.983-0.213c-2.933-0.277-6.663,1.316-8.608-0.805c-1.884-2.056-0.576-5.728-0.63-8.685
			c-0.094-5.177-0.016-5.191,5.012-5.2c6.83-0.012,13.659,0.006,20.489-0.012c1.328-0.004,2.688,0.047,3.979-0.207
			c3.11-0.613,4.776-2.715,4.626-5.568c-0.147-2.798-2.049-4.895-5.203-4.992C98.944,94.776,92.944,94.906,86.948,94.906z
			 M122.66,156.96c0-0.017,0-0.033,0-0.049c4.161,0,8.331,0.174,12.479-0.058c3.067-0.171,4.957-2.387,5.039-5.183
			c0.082-2.799-1.739-4.971-4.753-5.479c-1.137-0.191-2.323-0.11-3.487-0.115c-3.994-0.015-7.993,0.108-11.981-0.049
			c-4.499-0.179-7.01-2.68-7.496-7.105c-0.682-6.195,2.465-9.702,8.883-9.805c4.658-0.075,9.325,0.082,13.976-0.138
			c2.825-0.134,4.578-1.903,4.81-4.8c0.232-2.897-1.26-4.73-3.973-5.564c-0.781-0.239-1.637-0.331-2.458-0.334
			c-7.323-0.021-14.65-0.162-21.969,0.042c-6.265,0.174-9.871,3.725-10.14,10.052c-0.261,6.147-0.266,12.322,0.003,18.467
			c0.285,6.537,3.95,9.876,10.584,10.098C115.667,157.056,119.165,156.96,122.66,156.96z"/>
		<path fill-rule="evenodd" clip-rule="evenodd" fill="#768476" d="M87.467,3.077c8.479,0.001,16.959-0.03,25.438,0.014
			c4.006,0.021,4.052,0.086,4.077,4.22c0.04,6.317,0.074,12.637-0.011,18.954c-0.077,5.712-2.937,8.711-8.533,8.744
			c-13.965,0.083-27.932,0.082-41.896,0.001c-5.627-0.033-8.478-3.006-8.551-8.714c-0.081-6.316-0.05-12.635-0.011-18.953
			c0.026-4.206,0.071-4.243,4.549-4.258C70.841,3.056,79.154,3.077,87.467,3.077z"/>
		<path fill-rule="evenodd" clip-rule="evenodd" fill="#788678" d="M173.01,247.169c-0.001,5.658-0.162,11.322,0.063,16.972
			c0.125,3.151-1.037,4.057-4.033,3.926c-4.651-0.203-9.319-0.135-13.978-0.027c-2.388,0.056-3.188-0.918-3.176-3.242
			c0.068-11.815,0.089-23.634-0.015-35.448c-0.023-2.671,1.033-3.446,3.533-3.381c4.823,0.127,9.654,0.119,14.478,0.005
			c2.389-0.057,3.207,0.879,3.165,3.223C172.941,235.185,173.012,241.177,173.01,247.169z M158.797,241.205
			c-0.11,0.686,0.381,0.907,0.87,1.132c2.491,1.417,4.729,1.122,6.694-0.995c2.423-1.923,2.272-4.271,1.118-6.785
			c-0.579-1.089-1.002-2.49-2.694-1.338c0.865-0.9,0.127-1.482-0.536-1.753c-2.086-0.852-3.997-0.54-5.54,1.235
			c-3.218,3.55-3.271,3.906-1.148,7.645C157.846,240.814,158.107,241.317,158.797,241.205z M157.597,260.326
			c2.902,3.581,4.665,3.791,8.792,1.045c1.661-0.891,2.144-2.628,1.968-4.119c-0.228-1.932-0.1-4.78-3.599-4.049
			c0.791-0.999-0.003-1.566-0.708-1.794c-2.666-0.86-4.782,0.001-6.307,2.341C155.47,255.892,155.818,258.093,157.597,260.326z"/>
		<path fill-rule="evenodd" clip-rule="evenodd" fill="#788678" d="M44.901,246.794c-0.002-5.662,0.099-11.325-0.046-16.983
			c-0.068-2.676,0.602-3.978,3.586-3.857c4.821,0.193,9.657,0.134,14.483,0.02c2.4-0.057,3.176,0.907,3.162,3.238
			c-0.074,11.821-0.065,23.645-0.005,35.466c0.011,2.219-0.55,3.42-3.056,3.363c-4.993-0.113-9.992-0.106-14.985-0.002
			c-2.398,0.05-3.205-0.944-3.168-3.262C44.965,258.784,44.903,252.788,44.901,246.794z M52.679,262.319
			c1.876,1.514,3.742,1.567,5.592-0.048c3.752-2.823,4.042-3.846,2.159-7.629c-0.44-1.274-0.895-2.524-2.626-1.435
			c0.583-0.659,0.292-1.162-0.351-1.482c-2.861-1.427-4.961-0.351-6.626,2.079c-2.531,2.776-2.041,5.279,0.691,7.577
			C51.905,261.694,52.292,262.007,52.679,262.319z M59.411,241.396c2.582-2.296,3.253-4.778,0.732-7.569
			c-3.516-3.561-4.332-3.665-8.366-1.075c-3.678,4.217-3.474,6.202,0.974,9.509C55.209,243.817,57.419,243.449,59.411,241.396z"/>
		<path fill-rule="evenodd" clip-rule="evenodd" fill="#788678" d="M130.078,246.584c-0.001,5.994-0.088,11.99,0.039,17.981
			c0.056,2.586-0.856,3.563-3.469,3.484c-4.824-0.145-9.657-0.112-14.484-0.011c-2.304,0.048-3.284-0.74-3.27-3.151
			c0.072-11.988,0.061-23.979,0.009-35.967c-0.009-2.129,0.798-2.976,2.939-2.939c4.994,0.084,9.994,0.14,14.984-0.02
			c2.786-0.089,3.33,1.234,3.285,3.638C130.008,235.259,130.079,240.922,130.078,246.584z M122.299,262.32
			c0.386-0.313,0.771-0.625,1.155-0.938c2.023-1.123,2.551-2.942,2.125-5.037c-0.158-0.779-0.396-2.131-1.857-1.18
			c1.163-1.104,0.313-1.747-0.548-2.387c-4.19-2.612-5.725-2.281-8.635,1.866c-1.87,3.793-1.58,4.811,2.174,7.631
			C118.563,263.888,120.426,263.829,122.299,262.32z M122.236,242.254c4.037-3.014,4.31-4.209,1.936-8.466
			c-3.993-3.858-5.399-3.852-9.341,0.045c-2.329,4.241-2.056,5.427,1.935,8.398C118.584,243.528,120.408,243.505,122.236,242.254z"
			/>
		<path fill-rule="evenodd" clip-rule="evenodd" fill="#788678" d="M66.931,246.469c-0.002-5.661,0.081-11.323-0.04-16.98
			c-0.054-2.509,0.719-3.619,3.39-3.525c4.489,0.157,8.99,0.111,13.483,0.015c2.23-0.049,3.351,0.57,3.334,3.063
			c-0.079,11.985-0.058,23.973-0.016,35.959c0.008,2.051-0.673,3.065-2.872,3.029c-4.827-0.08-9.656-0.079-14.483-0.002
			c-2.241,0.036-2.832-1.075-2.814-3.08C66.968,258.788,66.934,252.628,66.931,246.469z M78.946,262.766
			c1.055-0.294,2.103-0.595,1.888-2.055l-0.072,0.129c3.062-2.933,3.075-4.448,0.059-6.736l0.028,0.03
			c-0.274-2.871-2.274-3.104-4.466-2.773c-0.813,0.122-0.664,0.919-0.342,1.538c-0.463,0.272-0.928,0.515-1.449,0.129
			c-0.989-0.316-1.7-0.235-1.539,1.082l0.067-0.039c-1.053-0.583-1.605,0.19-1.876,0.914c-1.263,3.377-0.071,5.773,3.776,7.837
			C76.334,263.219,77.643,263.193,78.946,262.766z M80.844,234.117c-1.761-3.88-3.944-4.166-7.232-0.947
			c-0.036,0.259-0.183,0.407-0.44,0.445c-3.774,3.077-3.147,6.184,1.853,9.177c1.313,0.384,2.619,0.366,3.917-0.076
			c2.469-0.55,3.513-2.459,3.871-4.623c0.262-1.584,0.705-3.688-1.987-3.993L80.844,234.117z"/>
		<path fill-rule="evenodd" clip-rule="evenodd" fill="#788678" d="M108.047,247.306c-0.001,5.827-0.064,11.654,0.031,17.479
			c0.038,2.318-0.767,3.311-3.166,3.253c-4.659-0.11-9.325-0.114-13.983,0.001c-2.52,0.062-3.055-1.173-3.044-3.378
			c0.059-11.82,0.068-23.642-0.006-35.461c-0.016-2.341,0.788-3.284,3.173-3.227c4.659,0.113,9.325,0.134,13.983-0.005
			c2.556-0.077,3.066,1.165,3.039,3.356C107.998,235.317,108.048,241.312,108.047,247.306z M96.034,262.767
			c1.303,0.427,2.61,0.452,3.924,0.055c1.686-0.111,2.689-1.183,3.443-2.533c1.847-3.31,0.546-6.413-3.006-7.247
			c-0.526,0.37-0.993,0.131-1.457-0.143c0.321-0.619,0.471-1.416-0.343-1.538c-2.191-0.33-4.191-0.099-4.466,2.773l0.027-0.03
			c-3.017,2.289-3.003,3.805,0.06,6.736l-0.072-0.127C93.935,262.172,94.978,262.475,96.034,262.767z M99.952,242.792
			c5.002-2.991,5.63-6.099,1.854-9.177c-0.258-0.038-0.405-0.188-0.439-0.447c-2.979-2.938-4.034-2.944-6.241-0.033l0.013-0.012
			c-0.947-0.533-1.6,0.009-2.07,0.7c-2.186,3.215-1.147,6.275,2.965,8.893C97.331,243.159,98.638,243.176,99.952,242.792z"/>
		<path fill-rule="evenodd" clip-rule="evenodd" fill="#788678" d="M151.048,247.023c-0.001,5.828-0.081,11.657,0.037,17.482
			c0.051,2.512-0.713,3.639-3.399,3.544c-4.49-0.157-8.994-0.155-13.484,0c-2.734,0.095-3.362-1.152-3.347-3.602
			c0.077-11.655,0.083-23.313-0.004-34.968c-0.019-2.521,0.756-3.606,3.409-3.517c4.49,0.152,8.995,0.162,13.485-0.003
			c2.734-0.1,3.384,1.127,3.338,3.578C150.974,235.365,151.048,241.194,151.048,247.023z M139.029,262.776
			c1.303,0.425,2.609,0.438,3.92,0.034c5.151-2.868,5.598-6.164,1.392-10.282c-3.521-1.935-5.75-1.739-7.813,0.684
			c-2.067,2.429-1.993,4.576,0.278,7.941C137.288,262.05,137.979,262.66,139.029,262.776z M142.941,242.779
			c4.604-2.735,5.243-5.099,2.475-9.159c-0.352-0.358-0.703-0.718-1.054-1.076c-3.737-2.174-6.396-1.738-8.365,1.371
			c-2.107,3.325-1.1,6.256,3.032,8.822C140.329,243.159,141.633,243.173,142.941,242.779z"/>
		<path fill-rule="evenodd" clip-rule="evenodd" fill="#788678" d="M44.089,247.033c0,5.828-0.082,11.658,0.038,17.483
			c0.052,2.527-0.752,3.625-3.418,3.534c-4.491-0.153-8.995-0.161-13.485-0.001c-2.755,0.098-3.342-1.181-3.326-3.612
			c0.075-11.656,0.083-23.313-0.005-34.969c-0.019-2.528,0.758-3.598,3.41-3.506c4.491,0.156,8.995,0.161,13.485,0
			c2.736-0.099,3.386,1.129,3.339,3.587C44.013,235.375,44.09,241.205,44.089,247.033z M35.95,262.776
			c1.052-0.117,1.742-0.73,2.227-1.624c2.44-3.637,2.296-6.314-0.466-8.661c-2.561-2.177-5.082-1.845-8.125,1.071
			c-2.801,4.448-2.214,6.669,2.442,9.247C33.339,263.215,34.646,263.201,35.95,262.776z M32.035,242.779
			c1.308,0.394,2.611,0.379,3.911-0.041c4.134-2.565,5.142-5.494,3.037-8.821c-1.968-3.109-4.625-3.546-8.367-1.377
			c-0.349,0.36-0.698,0.72-1.048,1.08C26.731,237.776,27.331,240.005,32.035,242.779z"/>
		<path fill-rule="evenodd" clip-rule="evenodd" fill="#EAECEA" d="M103.019,47.97c1.828,3.576,1.228,5.308-2.091,5.921
			c-0.641,0.118-1.314,0.052-1.974,0.068c-4.565,0.112-4.567,0.112-4.602-4.474c-0.009-1.153-0.085-2.314,0.019-3.458
			c0.145-1.587-0.837-3.858,0.7-4.607c2.013-0.98,4.565-0.721,6.769-0.032c1.483,0.463,2.479,1.785,1.757,3.516
			c-0.439,1.053-1.144,1.978-0.48,3.165c-1.6-0.063-3.201-0.098-4.798-0.198c-1.619-0.101-2.334,0.494-2.338,2.231
			c-0.003,1.911,0.785,2.479,2.614,2.616C102.205,52.985,102.59,50.519,103.019,47.97z M98.822,46.258
			c1.267-0.161,3.15,0.194,3.146-1.972c-0.006-2.182-1.932-1.817-3.312-1.94c-1.407-0.124-2.609,0.109-2.635,2.007
			C95.995,46.381,97.36,46.237,98.822,46.258z"/>
		<path fill-rule="evenodd" clip-rule="evenodd" fill="#EAECEA" d="M16.808,78.709c2.379,0.147,5.085-0.726,6.599,2.123
			c0.41,0.771,0.654,1.636-0.034,2.273c-1.095,1.016-1.099-0.479-1.647-0.785c-1.639-0.912-1.397,0.562-1.472,1.39
			c-0.244,2.715-1.887,3.72-4.374,3.544c-1.236-0.088-3.412,0.618-3.485-0.719c-0.083-1.526,2.042-0.848,3.205-0.954
			c1.732-0.158,2.778-0.758,2.795-2.685c0.015-1.64-0.656-2.345-2.308-2.481c-1.338-0.109-3.738,0.66-3.709-0.957
			c0.024-1.335,2.539-0.515,3.933-0.743C16.473,78.688,16.642,78.712,16.808,78.709z"/>
		<path fill-rule="evenodd" clip-rule="evenodd" fill="#EAECEA" d="M20.236,93.352c0.155,2.565-0.446,4.591-3.453,4.971
			c-3.103,0.393-4.269-0.592-5.102-4.349c-0.137-0.617-0.177-1.299-0.48-1.825c-0.563-0.979-2.95-0.505-2.472-1.645
			c0.606-1.446,2.655-0.624,4.079-0.727c1.308-0.095,2.63-0.052,3.944-0.016C20.269,89.859,20.269,89.871,20.236,93.352z
			 M18.49,93.756c0.118-1.653-0.663-2.367-2.3-2.349c-1.622,0.018-2.95,0.247-2.838,2.347c0.09,1.698,0.824,2.83,2.614,2.858
			C17.826,96.641,18.474,95.434,18.49,93.756z"/>
		<path fill-rule="evenodd" clip-rule="evenodd" fill="#EAECEA" d="M79.968,46.512c0,1.166,0.093,2.341-0.018,3.496
			c-0.271,2.809-1.956,4.036-4.704,4.077c-3.223,0.049-4.9-1.091-5.187-4.071c-0.238-2.477-0.086-4.992-0.087-7.491
			c0-0.457,0.019-1.081,0.575-1.127c0.931-0.078,0.947,0.73,0.966,1.362c0.064,2.165,0.028,4.333,0.134,6.495
			c0.103,2.101,1.131,3.498,3.378,3.534c2.325,0.037,3.209-1.464,3.313-3.534c0.092-1.829,0.001-3.668,0.109-5.496
			c0.051-0.863-0.477-2.328,0.981-2.303c0.909,0.017,0.552,1.316,0.6,2.061c0.064,0.996,0.016,1.999,0.016,2.999
			C80.019,46.512,79.993,46.512,79.968,46.512z"/>
		<path fill-rule="evenodd" clip-rule="evenodd" fill="#EAECEA" d="M16.054,109.403c-2.425,0.067-4.577,0.434-4.435-3.073
			c0.159-3.911,0.854-5.239,4.035-5.517c0.822-0.071,1.658-0.035,2.483,0.012c0.629,0.036,1.534-0.077,1.629,0.72
			c0.09,0.757-0.698,0.956-1.373,0.995c-0.661,0.039-1.324,0.07-1.986,0.073c-1.734,0.008-2.849,0.667-2.92,2.581
			c-0.076,2.025,1.119,2.441,2.834,2.539c1.217,0.068,3.546-0.505,3.386,0.774C19.501,110.167,17.181,109.131,16.054,109.403z"/>
		<path fill-rule="evenodd" clip-rule="evenodd" fill="#EAECEA" d="M12.91,136.028c-0.299-2.017,1.138-2.091,2.476-2.107
			c1.316-0.017,1.553,0.965,1.565,2.038c0.007,0.662-0.048,1.331,0.034,1.982c0.076,0.607,0.295,1.197,0.452,1.794
			c0.708-0.293,0.798-0.914,0.945-1.575c0.179-0.801-0.261-2.408,1.306-1.892c0.993,0.328,0.556,1.755,0.515,2.688
			c-0.084,1.906-1.224,3.074-3.037,3.373c-1.847,0.304-3.888,0.25-4.799-1.664c-0.712-1.495-2.003-3.481,0.622-4.715
			c0.348,0.361,0.485,0.739,0.443,1.289c-0.072,0.938-0.204,2.537,0.936,2.352c1.411-0.229,0.71-1.877,0.544-2.85
			C14.732,135.698,13.471,136.628,12.91,136.028z"/>
		<path fill-rule="evenodd" clip-rule="evenodd" fill="#EAECEA" d="M20.245,159.755c-0.088,0.77-0.056,1.627-0.306,2.394
			c-0.317,0.975-1.057,1.763-2.118,1.854c-1.105,0.095-1.75-0.789-2.316-1.604c-0.61-0.877-0.318-1.926-0.472-2.892
			c-0.069-0.429-0.349-0.824-0.534-1.234c-0.314,0.357-0.78,0.668-0.909,1.084c-0.241,0.775-0.245,1.621-0.438,2.415
			c-0.061,0.248-0.414,0.424-0.633,0.633c-0.217-0.236-0.581-0.446-0.628-0.712c-0.291-1.636-0.537-3.269,0.819-4.647
			c1.798-1.83,4.066-1.239,6.106-0.996C21.087,156.318,19.827,158.426,20.245,159.755z M18.35,159.894
			c0.056-0.687-0.094-1.62-0.686-1.621c-0.631,0-0.698,0.933-0.693,1.604c0.004,0.67,0.09,1.622,0.659,1.639
			C18.154,161.529,18.386,160.58,18.35,159.894z"/>
		<path fill-rule="evenodd" clip-rule="evenodd" fill="#EAECEA" d="M20.173,126.007c0.28,2.498-0.106,4.488-2.445,5.125
			c-1.73,0.472-3.657,0.622-5.065-1.014c-1.616-1.876-0.933-4.061-0.734-6.163c0.023-0.241,0.401-0.612,0.63-0.624
			c0.214-0.011,0.613,0.353,0.646,0.591c0.157,1.142,0.185,2.302,0.322,3.447c0.192,1.605,1.225,2.305,2.745,2.185
			c1.33-0.105,2.056-0.929,2.096-2.297c0.01-0.331-0.001-0.666,0.047-0.992c0.155-1.06-0.406-2.908,0.987-2.86
			C20.808,123.455,19.994,125.312,20.173,126.007z"/>
		<path fill-rule="evenodd" clip-rule="evenodd" fill="#EAECEA" d="M16.999,111.872c1.063,0.228,2.907-0.61,3.052,1.375
			c0.16,2.198,1.008,4.733-1.372,6.382c-1.571,1.088-2.465-0.216-3.135-1.31c-0.395-0.643-0.352-1.565-0.462-2.368
			c-0.084-0.604,0.055-1.534-0.629-1.574c-0.644-0.038-0.806,0.854-1.016,1.495c-0.245,0.746,0.382,2.29-1.174,1.966
			c-0.833-0.173-0.599-1.423-0.546-2.204C11.912,112.734,13.194,111.828,16.999,111.872z M18.337,115.486
			c0.037-0.387-0.092-1.246-0.752-1.169c-0.643,0.074-0.62,0.997-0.601,1.642c0.018,0.613,0.059,1.512,0.717,1.444
			C18.256,117.346,18.375,116.415,18.337,115.486z"/>
		<path fill-rule="evenodd" clip-rule="evenodd" fill="#EAECEA" d="M84.722,45.284c1.723,0.567,3.456,1.104,5.165,1.711
			c1.807,0.641,2.599,1.988,2.343,3.864c-0.258,1.901-1.517,2.889-3.336,3.113c-1.642,0.202-3.31,0.326-4.781-0.731
			c-0.986-0.708-2.196-2.061-1.54-2.766c1.561-1.679,1.36,0.903,2.146,1.346c1.201,0.676,2.339,1.242,3.731,0.923
			c1.033-0.237,1.862-0.853,2.087-1.891c0.24-1.116-0.499-1.875-1.407-2.378c-1.692-0.938-3.988-0.516-5.295-2.338
			C84.13,45.852,84.426,45.568,84.722,45.284z"/>
		<path fill-rule="evenodd" clip-rule="evenodd" fill="#EAECEA" d="M141.11,208.113c0.664,0.102,1.562,0.328,1.485,0.99
			c-0.168,1.47-1.145,0.219-1.73,0.276c-0.742,0.073-1.474,0.335-1.579,0.931c-0.266,1.498,0.972,0.751,1.59,0.855
			c2.192,0.372,3.147,1.753,2.95,3.843c-0.178,1.881-1.29,3.021-3.289,2.961c-2.346-0.069-2.955-1.823-3.305-3.677
			C136.578,210.813,138.34,208.063,141.11,208.113z M142.152,214.915c0.032-1.12-0.223-2.093-1.466-2.165
			c-0.86-0.05-1.521,0.457-1.658,1.436c-0.153,1.104,0.176,2.02,1.272,2.321C141.602,216.866,141.936,215.872,142.152,214.915z"/>
		<path fill-rule="evenodd" clip-rule="evenodd" fill="#EAECEA" d="M74.638,210.61c-0.42-0.093-1.212-0.253-1.209-0.27
			c0.32-1.77,1.578-2.394,3.179-2.226c1.419,0.15,2.718,0.977,2.293,2.549c-0.387,1.433,0.229,2.465,0.464,3.704
			c0.497,2.622-1.769,4.326-4.374,3.469c-0.983-0.324-2.114-1.146-1.721-2.038c0.764-1.735,1.436,0.056,2.019,0.432
			c0.872,0.564,1.546,0.408,2.156-0.245c0.634-0.68,0.583-1.408,0.028-2.191c-0.493-0.694-2.141-0.576-1.49-2.077
			c0.882-0.295,1.632-0.927,0.932-1.757C75.981,208.854,75.212,209.703,74.638,210.61z"/>
		<path fill-rule="evenodd" clip-rule="evenodd" fill="#EAECEA" d="M119.197,208.053c1.181,0.162,2.14-0.131,2.267,0.521
			c0.181,0.926-0.833,0.735-1.418,0.874c-0.618,0.146-1.61-0.053-1.677,0.726c-0.115,1.342,1.157,0.595,1.762,0.897
			c2.277,1.142,3.053,3.293,1.874,5.295c-1.177,2.002-2.935,1.965-4.752,1.132c-0.516-0.236-1.292-0.866-0.993-1.56
			c0.585-1.358,1.222-0.278,1.787,0.139c1.538,1.135,2.497,0.535,2.857-1.1c0.284-1.289-0.259-2.223-1.699-2.536
			c-0.997-0.218-3.312,2.367-2.791-1.171C116.678,209.479,117.012,207.405,119.197,208.053z"/>
		<path fill-rule="evenodd" clip-rule="evenodd" fill="#EAECEA" d="M54.542,217.94c-0.977-0.06-2.398,0.378-2.802-0.438
			c-0.538-1.088,0.443-2.172,1.285-3.006c0.59-0.584,1.265-1.081,1.86-1.659c0.852-0.827,1.789-1.771,0.762-2.962
			c-0.877-1.019-1.82-0.313-2.523,0.407c-0.425,0.436-0.929,0.521-1.11,0.108c-0.139-0.315,0.149-1.018,0.467-1.302
			c1.419-1.27,2.943-1.452,4.456-0.11c1.521,1.351,0.875,2.672-0.126,3.928c-0.409,0.513-0.936,0.94-1.445,1.364
			c-1.304,1.085-2.11,2.028,0.483,2.29c0.61,0.062,1.633-0.084,1.602,0.663c-0.052,1.243-1.248,0.488-1.915,0.698
			C55.232,218.017,54.875,217.938,54.542,217.94z"/>
		<path fill-rule="evenodd" clip-rule="evenodd" fill="#EAECEA" d="M12.455,151.722c-1.419-1.69,0.099-5.146-3.521-5.638
			c-0.704-0.096-0.136-1.107,0.622-1.122c2.979-0.059,5.96-0.061,8.94-0.049c0.916,0.004,1.676,0.444,1.627,1.433
			c-0.108,2.204,0.958,4.726-1.546,6.353c-0.312-0.357-0.623-0.716-0.935-1.073c0.711-1.488,1.607-3.106,0.231-4.529
			c-0.802-0.829-2.221-0.589-3.301-0.247c-2.081,0.657-0.899,2.482-1.181,3.79C13.079,150.999,12.767,151.36,12.455,151.722z"/>
		<path fill-rule="evenodd" clip-rule="evenodd" fill="#EAECEA" d="M97.052,211.037c-0.137-1.32,0.444-2.539,1.659-2.596
			c1.358-0.064,0.931,1.396,1.033,2.288c0.128,1.112-0.15,2.233,0.522,3.327c0.845,1.375-0.228,2.774-1.047,3.337
			c-1.295,0.889-0.835-1.403-1.761-1.55c-2.772-0.44-5.458-0.86-1.436-3.828l-0.079-0.083c0.178,0.709-0.321,1.704,0.693,2.038
			c0.339,0.111,1.116-0.158,1.208-0.422c0.361-1.04,0.727-2.217-0.896-2.633L97.052,211.037z"/>
		<path fill-rule="evenodd" clip-rule="evenodd" fill="#EAECEA" d="M34.144,213.371c0.002,0.328,0.066,0.672-0.009,0.981
			c-0.276,1.129,0.757,3.108-0.891,3.207c-1.256,0.074-0.58-1.873-0.769-2.92c-0.245-1.358,0.608-2.982-1.082-3.993
			c-0.911-0.546-0.405-1.01,0.255-1.356c0.58-0.305,1.166-0.862,1.74-0.851c0.764,0.016,0.742,0.861,0.75,1.485
			C34.152,211.073,34.142,212.223,34.144,213.371z"/>
		<path fill-rule="evenodd" clip-rule="evenodd" fill="#EAECEA" d="M161.992,208.191c3.578-0.064,3.604-0.051,1.847,3.175
			c-0.954,1.75-1.545,3.602-1.932,5.541c-0.089,0.444-0.24,1.021-0.938,0.807c-0.524-0.162-0.781-0.55-0.616-1.097
			c0.377-1.251,0.647-2.56,1.213-3.724c0.896-1.843,2.274-3.688-1.47-3.572c-0.197,0.007-0.484-0.348-0.594-0.595
			c-0.169-0.379,0.061-0.559,0.524-0.541C160.681,208.209,161.337,208.191,161.992,208.191z"/>
		<path fill-rule="evenodd" clip-rule="evenodd" fill="#EAECEA" d="M27.986,170.6c0.031,4.014-0.554,4.832-3.03,4.3
			c-0.308-0.065-0.846-0.194-0.854-0.324c-0.043-0.623,0.531-0.476,0.894-0.533c0.786-0.126,1.869,0.092,2.136-0.818
			c0.342-1.164,1.808-2.91-1.047-3.167c-1.029-0.093-2.445,0.401-2.817-1.225c-0.106-0.463-0.178-1.299,0.03-1.409
			c0.988-0.525,0.568,0.726,0.965,0.889s0.969,0.188,1.362,0.025C28.342,167.22,29.579,167.509,27.986,170.6z"/>
		<path fill-rule="evenodd" clip-rule="evenodd" fill="#EAECEA" d="M83.413,42.525c2.353-2.297,4.855-2.232,7.392-0.376
			c0.483,0.354,1.042,1.096,0.657,1.666c-0.457,0.678-1.101,0.258-1.577-0.266c-1.774-1.946-3.715-1.545-5.703-0.385
			C83.925,42.951,83.669,42.738,83.413,42.525z"/>
		<path fill-rule="evenodd" clip-rule="evenodd" fill="#EAECEA" d="M24.115,152.435c1.252,2.527,2.484,1.854,3.706-0.026
			c0.224,0.197,0.537,0.353,0.656,0.601c0.334,0.696,0.02,1.366-0.505,1.74c-1.353,0.963-2.797,0.857-4.121-0.084
			c-0.556-0.396-0.764-1.085-0.468-1.754C23.48,152.69,23.857,152.594,24.115,152.435z"/>
		<path fill-rule="evenodd" clip-rule="evenodd" fill="#FDFDFD" d="M10.285,173.835c0.92-0.188,2.087,0.441,2.738-0.546
			c0.708-1.073,0.771-5.262,2.229-0.285c0.212,0.727,0.996,0.663,1.611,0.837c0.936,0.266,2.618-0.733,2.625,0.967
			c0.003,0.682-1.722,0.566-2.678,0.513c-2.593-0.144-5.229,0.463-7.778-0.434C9.449,174.536,9.867,174.186,10.285,173.835z"/>
		<path fill-rule="evenodd" clip-rule="evenodd" fill="#EAECEA" d="M23.913,162.025c0.471-0.834,1.275-0.883,2.094-0.875
			c1.802,0.016,2.948,0.979,2.49,2.71c-0.52,1.963-2.458,1.156-3.719,1.045c-2.552-0.225-1.838-1.632-0.769-2.978
			c0.192,1.45,0.783,2.44,2.474,2.023c0.243-0.06,0.623-0.422,0.595-0.587c-0.289-1.715-1.693-1.018-2.699-1.198
			C24.22,162.138,24.068,162.073,23.913,162.025z"/>
		<path fill-rule="evenodd" clip-rule="evenodd" fill="#EAECEA" d="M28.663,131.045c-0.32,1.361-0.906,1.985-2.089,1.917
			c-1.257-0.072-1.68-0.853-1.599-1.942c0.083-1.104,0.725-1.819,1.888-1.711C28.018,129.417,28.279,130.434,28.663,131.045z"/>
		<path fill-rule="evenodd" clip-rule="evenodd" fill="#EAECEA" d="M26.913,121.772c-1.149,0.083-1.907-0.509-2.046-1.574
			c-0.124-0.955,0.079-2.162,1.363-2.04c1.062,0.101,2.196,0.775,2.23,2.042C28.482,120.969,27.825,121.631,26.913,121.772z"/>
		<path fill-rule="evenodd" clip-rule="evenodd" fill="#EAECEA" d="M10.285,173.835c-0.417,0.351-0.835,0.701-1.253,1.052
			c-1.067-0.343-0.98-1.281-0.854-2.03c0.306-1.815-1.058-4.925,0.964-5.133c1.683-0.173,0.422,3.017,0.896,4.64
			C10.175,172.838,10.205,173.344,10.285,173.835z"/>
		<path fill-rule="evenodd" clip-rule="evenodd" fill="#EAECEA" d="M28.469,147.437c0.378,1.804-0.238,2.88-2.191,2.582
			c-1.823-0.277-1.618-1.573-1.147-2.877C26.243,147.24,27.356,147.338,28.469,147.437z"/>
		<path fill-rule="evenodd" clip-rule="evenodd" fill="#EAECEA" d="M12.975,209.004c2.885,2.307,2.996,4.541,0.414,8.378
			c-0.175-0.188-0.353-0.373-0.531-0.557c1.2-2.606,1.08-5.245,0.183-7.901L12.975,209.004z"/>
		<path fill-rule="evenodd" clip-rule="evenodd" fill="#EAECEA" d="M25.847,127.769c-0.82-0.165-2.291,0.214-2.15-0.3
			c0.455-1.665,2.233-0.757,3.403-1.141c0.532-0.175,1.612-0.036,1.254,0.874C27.881,128.403,26.618,127.471,25.847,127.769z"/>
		<path fill-rule="evenodd" clip-rule="evenodd" fill="#788678" d="M28.469,147.437c-1.113-0.099-2.226-0.196-3.338-0.295
			c-0.042-0.724-0.085-1.447-0.127-2.171c0.588-0.13,0.967-0.482,1.138-1.061C29.056,143.676,28.999,145.4,28.469,147.437z"/>
		<path fill-rule="evenodd" clip-rule="evenodd" fill="#EAECEA" d="M25.682,114.357c0.643,0.678,1.309,1.381,1.976,2.083
			c-0.418,0.143-0.83,0.38-1.255,0.409c-1.021,0.068-1.484-0.54-1.504-1.503C24.889,114.856,24.938,114.346,25.682,114.357z"/>
		<path fill-rule="evenodd" clip-rule="evenodd" fill="#EAECEA" d="M24.227,123.176c0.644-0.015,1.296-0.103,1.928-0.025
			c0.791,0.097,2.231-0.769,2.148,0.782c-0.054,0.997-1.274,0.345-2.001,0.352c-0.632,0.007-1.261,0.18-1.892,0.279
			C24.349,124.101,24.288,123.639,24.227,123.176z"/>
		<path fill-rule="evenodd" clip-rule="evenodd" fill="#EAECEA" d="M26.142,143.91c-0.171,0.578-0.55,0.931-1.138,1.061
			c-0.477-0.786-0.331-1.637,0.061-2.321c0.551-0.963,1.843-1.334,2.404-0.563C28.192,143.079,25.651,142.561,26.142,143.91z"/>
		<path fill-rule="evenodd" clip-rule="evenodd" fill="#EAECEA" d="M25.088,136.871c-0.03-0.638-0.061-1.275-0.091-1.914
			c1.174,0.343,2.149,0.986,2.925,1.932C26.978,136.883,26.033,136.877,25.088,136.871z"/>
		<path fill-rule="evenodd" clip-rule="evenodd" fill="#EAECEA" d="M18.577,152.698c-1.841,1.207-3.638,1.237-5.378-0.203
			c0.367-0.285,0.734-0.57,1.102-0.856c1.114-0.004,2.229-0.009,3.342-0.014C17.954,151.982,18.265,152.341,18.577,152.698z"/>
		<path fill-rule="evenodd" clip-rule="evenodd" fill="#EAECEA" d="M9.462,216.523c-0.957-1.975-0.961-4.029-0.482-6.114
			c0.25-1.084,0.866-1.678,2.059-1.396l-0.07-0.084c-1.218,2.18-0.963,4.522-0.76,6.859C9.96,216.033,9.711,216.279,9.462,216.523z"
			/>
		<path fill-rule="evenodd" clip-rule="evenodd" fill="#768476" d="M25.088,136.871c0.944,0.006,1.889,0.012,2.834,0.018
			c0.031,0.689,0.061,1.379,0.092,2.068c-1.093,0.251-2.125,0.035-3.123-0.42C24.958,137.981,25.023,137.426,25.088,136.871z"/>
		<path fill-rule="evenodd" clip-rule="evenodd" fill="#EAECEA" d="M24.892,138.537c0.998,0.455,2.029,0.671,3.123,0.42
			c-0.896,1.269-2.147,1.293-3.383,0.765C24.254,139.561,24.542,138.89,24.892,138.537z"/>
		<path fill-rule="evenodd" clip-rule="evenodd" fill="#EAECEA" d="M83.835,46.136c-1.553-1.039-1.097-2.312-0.422-3.611
			c0.256,0.213,0.513,0.426,0.769,0.64c0.18,0.707,0.36,1.413,0.54,2.12C84.426,45.568,84.13,45.852,83.835,46.136z"/>
		<path fill-rule="evenodd" clip-rule="evenodd" fill="#EAECEA" d="M11.039,209.014c0.637-1.483,1.285-1.191,1.937-0.011
			c0,0.001,0.065-0.079,0.065-0.079c-0.691,0.002-1.381,0.004-2.072,0.006L11.039,209.014z"/>
		<path fill-rule="evenodd" clip-rule="evenodd" fill="#788678" d="M24.227,123.176c0.061,0.463,0.122,0.924,0.183,1.387
			c-0.461,0.231-1.028,0.239-1.184-0.23C22.974,123.575,23.465,123.197,24.227,123.176z"/>
		<path fill-rule="evenodd" clip-rule="evenodd" fill="#EAECEA" d="M13.389,217.382c-0.943,0.814-1.926,0.732-2.932,0.132
			c0.219-0.196,0.424-0.405,0.617-0.627c0.595-0.021,1.189-0.041,1.784-0.062C13.036,217.009,13.213,217.194,13.389,217.382z"/>
		<path fill-rule="evenodd" clip-rule="evenodd" fill="#EAECEA" d="M96.023,212.016c0.021-0.664,0.141-1.225,1.027-0.979
			c0.001,0-0.102-0.121-0.102-0.121c-0.058,0.613-0.217,1.125-1.005,1.017L96.023,212.016z"/>
		<path fill-rule="evenodd" clip-rule="evenodd" fill="#EAECEA" d="M13.198,152.495c-0.248-0.258-0.496-0.516-0.743-0.773
			c0.312-0.361,0.624-0.723,0.936-1.083c0.509,0.146,0.8,0.49,0.909,1C13.933,151.925,13.565,152.21,13.198,152.495z"/>
		<path fill-rule="evenodd" clip-rule="evenodd" fill="#EAECEA" d="M10.457,217.514c-0.332-0.33-0.663-0.66-0.994-0.99
			c0.249-0.244,0.498-0.49,0.747-0.734c0.566,0.147,0.812,0.547,0.864,1.098C10.881,217.108,10.675,217.317,10.457,217.514z"/>
		<path fill-rule="evenodd" clip-rule="evenodd" fill="#EAECEA" d="M9.781,262.227c-3.643-2.796-4.277-6.118-1.637-8.879
			c0.559-0.585,1.328-0.945,2.08-0.147l-0.033-0.018c-2.917,4.159-2.909,4.342,0.335,8.146
			C10.277,261.628,10.029,261.928,9.781,262.227z"/>
		<path fill-rule="evenodd" clip-rule="evenodd" fill="#EAECEA" d="M9.813,242.18c-3.496-2.639-3.72-3.378-2.312-7.625
			c0.275,0.236,0.549,0.474,0.824,0.711c-0.611,2.534,0.183,4.535,2.289,6.038C10.348,241.596,10.081,241.888,9.813,242.18z"/>
		<path fill-rule="evenodd" clip-rule="evenodd" fill="#EAECEA" d="M16.259,232.692c3.48,3.855,3.471,5.429-0.051,8.464
			c-0.139-0.122-0.271-0.252-0.395-0.389c1.612-2.49,1.885-4.917-0.346-7.224C15.731,233.26,15.995,232.977,16.259,232.692z"/>
		<path fill-rule="evenodd" clip-rule="evenodd" fill="#EAECEA" d="M10.224,253.2c-0.867-1.377,0.308-1.753,1.146-1.92
			c2.45-0.486,4.459,0.331,5.862,2.464c-0.282,0.275-0.563,0.552-0.845,0.827c-1.73-1.958-3.906-1.926-6.195-1.389L10.224,253.2z"/>
		<path fill-rule="evenodd" clip-rule="evenodd" fill="#EAECEA" d="M10.193,233.219c-0.892-0.998-0.036-1.563,0.652-1.815
			c2.039-0.752,3.924-0.456,5.415,1.289c-0.264,0.284-0.528,0.567-0.792,0.852c-1.704-1.022-3.506-0.74-5.313-0.399L10.193,233.219z
			"/>
		<path fill-rule="evenodd" clip-rule="evenodd" fill="#EAECEA" d="M17.387,260.322c-1.793,3.597-4.527,3.439-7.606,1.904
			c0.248-0.299,0.496-0.599,0.745-0.897c2.497,1.138,4.403,0.011,6.181-1.612C16.935,259.917,17.161,260.119,17.387,260.322z"/>
		<path fill-rule="evenodd" clip-rule="evenodd" fill="#EAECEA" d="M16.208,241.156c-1.691,3.093-4.009,2.27-6.395,1.023
			c0.267-0.292,0.534-0.584,0.802-0.876c1.845,0.916,3.511,0.087,5.198-0.536C15.938,240.904,16.069,241.034,16.208,241.156z"/>
		<path fill-rule="evenodd" clip-rule="evenodd" fill="#EAECEA" d="M17.231,253.744c2.273,2.14,1.932,4.342,0.156,6.578
			c-0.226-0.203-0.453-0.405-0.68-0.605c0.401-1.747,0.653-3.485-0.321-5.146C16.667,254.296,16.949,254.02,17.231,253.744z"/>
		<path fill-rule="evenodd" clip-rule="evenodd" fill="#EAECEA" d="M7.502,234.555c0.574-1.097,1.002-2.486,2.691-1.336l-0.04-0.074
			c-0.609,0.707-1.218,1.414-1.827,2.121C8.051,235.028,7.777,234.791,7.502,234.555z"/>
		<path fill-rule="evenodd" clip-rule="evenodd" fill="#354A35" d="M86.948,94.906c5.996,0,11.996-0.13,17.987,0.053
			c3.154,0.097,5.056,2.194,5.203,4.992c0.15,2.853-1.516,4.955-4.626,5.568c-1.291,0.254-2.65,0.203-3.979,0.207
			c-6.83,0.018-13.659,0-20.489,0.012c-5.028,0.009-5.106,0.022-5.012,5.2c0.054,2.957-1.254,6.629,0.63,8.685
			c1.945,2.122,5.675,0.528,8.608,0.805c0.993,0.094,2.011,0.025,2.983,0.213c3.136,0.604,4.861,2.646,4.738,5.473
			c-0.121,2.785-2.028,4.767-5.2,5.006c-2.651,0.2-5.343,0.263-7.987,0.038c-3.199-0.272-3.98,1.092-3.861,4.057
			c0.208,5.154,0.071,10.324,0.049,15.488c-0.006,1.329,0.089,2.711-0.23,3.975c-0.685,2.704-2.453,4.342-5.378,4.26
			c-2.891-0.081-4.629-1.703-5.188-4.479c-0.227-1.125-0.128-2.322-0.128-3.487c-0.006-16.49-0.012-32.98-0.001-49.472
			c0.004-6.419,0.227-6.622,6.891-6.636c4.997-0.01,9.994-0.002,14.991-0.002C86.948,94.877,86.948,94.892,86.948,94.906z"/>
		<path fill-rule="evenodd" clip-rule="evenodd" fill="#354A35" d="M122.66,156.96c-3.495,0-6.993,0.096-10.484-0.021
			c-6.634-0.222-10.299-3.561-10.584-10.098c-0.269-6.146-0.264-12.32-0.003-18.467c0.269-6.327,3.875-9.878,10.14-10.052
			c7.318-0.204,14.646-0.063,21.969-0.042c0.821,0.003,1.677,0.095,2.458,0.334c2.713,0.834,4.205,2.667,3.973,5.564
			c-0.231,2.897-1.984,4.667-4.81,4.8c-4.65,0.22-9.317,0.063-13.976,0.138c-6.418,0.104-9.564,3.61-8.883,9.805
			c0.486,4.426,2.997,6.927,7.496,7.105c3.988,0.157,7.987,0.034,11.981,0.049c1.164,0.005,2.351-0.076,3.487,0.115
			c3.014,0.509,4.835,2.681,4.753,5.479c-0.082,2.796-1.972,5.012-5.039,5.183c-4.147,0.231-8.317,0.058-12.479,0.058
			C122.66,156.927,122.66,156.943,122.66,156.96z"/>
		<path fill-rule="evenodd" clip-rule="evenodd" fill="#EAECEA" d="M164.758,253.203c3.499-0.731,3.371,2.117,3.599,4.049
			c0.176,1.491-0.307,3.229-1.968,4.119c-0.251-0.243-0.502-0.486-0.753-0.729c1.867-2.73,1.438-5.198-0.846-7.457L164.758,253.203z
			"/>
		<path fill-rule="evenodd" clip-rule="evenodd" fill="#EAECEA" d="M157.743,253.75c1.524-2.34,3.641-3.201,6.307-2.341
			c0.705,0.228,1.499,0.795,0.708,1.794l0.032-0.019c-2.279-0.535-4.449-0.576-6.182,1.365
			C158.32,254.283,158.032,254.017,157.743,253.75z"/>
		<path fill-rule="evenodd" clip-rule="evenodd" fill="#EAECEA" d="M157.561,240.346c-2.123-3.738-2.069-4.095,1.148-7.645
			c0.279,0.271,0.558,0.543,0.836,0.814c-1.813,1.773-1.938,3.888-1.247,6.166C158.053,239.904,157.807,240.125,157.561,240.346z"/>
		<path fill-rule="evenodd" clip-rule="evenodd" fill="#EAECEA" d="M166.389,261.371c-4.127,2.746-5.89,2.536-8.792-1.045
			c0.223-0.206,0.445-0.411,0.668-0.616c2.212,2.253,4.652,2.694,7.371,0.932C165.887,260.885,166.138,261.128,166.389,261.371z"/>
		<path fill-rule="evenodd" clip-rule="evenodd" fill="#EAECEA" d="M158.709,232.701c1.543-1.775,3.454-2.087,5.54-1.235
			c0.663,0.271,1.401,0.853,0.536,1.753l0.04-0.073c-1.792-0.338-3.581-0.618-5.28,0.37
			C159.267,233.244,158.988,232.973,158.709,232.701z"/>
		<path fill-rule="evenodd" clip-rule="evenodd" fill="#EAECEA" d="M157.597,260.326c-1.778-2.233-2.127-4.435,0.146-6.576
			c0.289,0.267,0.577,0.533,0.865,0.8c-0.992,1.661-0.736,3.405-0.344,5.16C158.042,259.915,157.819,260.12,157.597,260.326z"/>
		<path fill-rule="evenodd" clip-rule="evenodd" fill="#EAECEA" d="M167.479,234.557c1.154,2.514,1.305,4.862-1.118,6.785
			c-0.261-0.25-0.521-0.5-0.781-0.75c0.966-1.653,1.644-3.365,1.07-5.328C166.927,235.027,167.203,234.792,167.479,234.557z"/>
		<path fill-rule="evenodd" clip-rule="evenodd" fill="#EAECEA" d="M166.361,241.342c-1.966,2.117-4.203,2.412-6.694,0.995
			c0.252-0.301,0.504-0.603,0.756-0.903c1.883,0.728,3.521-0.055,5.157-0.842C165.841,240.842,166.101,241.092,166.361,241.342z"/>
		<path fill-rule="evenodd" clip-rule="evenodd" fill="#EAECEA" d="M164.785,233.219c1.692-1.152,2.115,0.249,2.694,1.338
			c-0.276,0.235-0.553,0.471-0.829,0.707c-0.608-0.706-1.217-1.412-1.825-2.118L164.785,233.219z"/>
		<path fill-rule="evenodd" clip-rule="evenodd" fill="#EAECEA" d="M159.667,242.337c-0.489-0.225-0.98-0.446-0.87-1.132
			c0.115-0.152,0.241-0.295,0.377-0.43c0.416,0.22,0.832,0.439,1.249,0.658C160.171,241.734,159.919,242.036,159.667,242.337z"/>
		<path fill-rule="evenodd" clip-rule="evenodd" fill="#EAECEA" d="M158.797,241.205c-0.689,0.112-0.951-0.391-1.236-0.859
			c0.246-0.221,0.492-0.441,0.737-0.664c0.544,0.164,0.782,0.571,0.876,1.094C159.038,240.91,158.912,241.053,158.797,241.205z"/>
		<path fill-rule="evenodd" clip-rule="evenodd" fill="#EAECEA" d="M52.75,242.26c-4.448-3.307-4.651-5.292-0.974-9.509
			c0.28,0.273,0.56,0.546,0.84,0.818c-2.384,4.05-2.356,4.299,0.869,7.803C53.24,241.668,52.995,241.964,52.75,242.26z"/>
		<path fill-rule="evenodd" clip-rule="evenodd" fill="#EAECEA" d="M51.776,232.751c4.035-2.59,4.851-2.485,8.366,1.075
			c-0.28,0.287-0.56,0.574-0.84,0.862c-1.928-2.176-4.182-2.397-6.687-1.119C52.336,233.297,52.056,233.024,51.776,232.751z"/>
		<path fill-rule="evenodd" clip-rule="evenodd" fill="#EAECEA" d="M60.43,254.643c1.882,3.783,1.593,4.806-2.159,7.629
			c-0.257-0.289-0.515-0.578-0.772-0.868c2.222-1.538,2.838-3.658,2.247-6.213C59.964,254.996,60.193,254.813,60.43,254.643z"/>
		<path fill-rule="evenodd" clip-rule="evenodd" fill="#EAECEA" d="M60.143,233.826c2.521,2.791,1.85,5.273-0.732,7.569
			c-0.238-0.24-0.476-0.48-0.713-0.722c1.15-1.898,1.805-3.849,0.605-5.985C59.583,234.4,59.863,234.113,60.143,233.826z"/>
		<path fill-rule="evenodd" clip-rule="evenodd" fill="#EAECEA" d="M51.519,261.382c-2.732-2.298-3.223-4.801-0.691-7.577
			c0.29,0.271,0.579,0.542,0.869,0.813c-1.271,2.169-0.652,4.18,0.52,6.143C51.983,260.967,51.75,261.174,51.519,261.382z"/>
		<path fill-rule="evenodd" clip-rule="evenodd" fill="#EAECEA" d="M50.827,253.805c1.665-2.43,3.765-3.506,6.626-2.079
			c0.643,0.32,0.934,0.823,0.351,1.482l0.043-0.074c-2.28-0.459-4.464-0.518-6.152,1.483
			C51.406,254.347,51.117,254.075,50.827,253.805z"/>
		<path fill-rule="evenodd" clip-rule="evenodd" fill="#EAECEA" d="M58.271,262.271c-1.85,1.615-3.715,1.562-5.592,0.048
			c0.257-0.291,0.515-0.582,0.773-0.872c1.354,0.433,2.703,0.441,4.046-0.044C57.756,261.693,58.014,261.982,58.271,262.271z"/>
		<path fill-rule="evenodd" clip-rule="evenodd" fill="#EAECEA" d="M59.411,241.396c-1.992,2.054-4.201,2.422-6.661,0.864
			c0.245-0.296,0.49-0.592,0.735-0.888c1.876,0.805,3.539,0.009,5.212-0.698C58.935,240.915,59.173,241.155,59.411,241.396z"/>
		<path fill-rule="evenodd" clip-rule="evenodd" fill="#EAECEA" d="M57.804,253.208c1.731-1.09,2.186,0.16,2.626,1.435
			c-0.237,0.171-0.466,0.354-0.685,0.548c-0.632-0.686-1.265-1.371-1.897-2.057L57.804,253.208z"/>
		<path fill-rule="evenodd" clip-rule="evenodd" fill="#EAECEA" d="M52.679,262.319c-0.387-0.313-0.774-0.625-1.161-0.938
			c0.232-0.208,0.464-0.415,0.697-0.622c0.413,0.229,0.824,0.458,1.236,0.688C53.194,261.737,52.937,262.028,52.679,262.319z"/>
		<path fill-rule="evenodd" clip-rule="evenodd" fill="#EAECEA" d="M114.831,233.833c3.941-3.896,5.348-3.903,9.341-0.045
			c-0.279,0.286-0.559,0.571-0.837,0.857c-2.54-2.544-5.082-2.544-7.628-0.009C115.415,234.369,115.123,234.101,114.831,233.833z"/>
		<path fill-rule="evenodd" clip-rule="evenodd" fill="#EAECEA" d="M116.766,242.231c-3.99-2.972-4.264-4.157-1.935-8.398
			c0.292,0.268,0.584,0.536,0.876,0.804c-1.419,2.776-0.563,4.941,1.8,6.7C117.26,241.635,117.013,241.934,116.766,242.231z"/>
		<path fill-rule="evenodd" clip-rule="evenodd" fill="#EAECEA" d="M124.172,233.788c2.374,4.257,2.102,5.452-1.936,8.466
			c-0.256-0.29-0.512-0.58-0.768-0.871c2.442-1.74,3.245-3.937,1.866-6.737C123.613,234.359,123.893,234.074,124.172,233.788z"/>
		<path fill-rule="evenodd" clip-rule="evenodd" fill="#EAECEA" d="M116.713,262.276c-3.754-2.82-4.044-3.838-2.174-7.631
			c0.242,0.168,0.475,0.349,0.698,0.54c-0.596,2.547,0.014,4.663,2.222,6.208C117.21,261.688,116.962,261.982,116.713,262.276z"/>
		<path fill-rule="evenodd" clip-rule="evenodd" fill="#EAECEA" d="M114.539,254.646c2.91-4.147,4.444-4.479,8.635-1.866
			c-0.269,0.286-0.538,0.572-0.807,0.858c-2.831-1.575-5.141-0.751-7.13,1.548C115.014,254.994,114.781,254.813,114.539,254.646z"/>
		<path fill-rule="evenodd" clip-rule="evenodd" fill="#EAECEA" d="M123.722,255.166c1.462-0.951,1.699,0.4,1.857,1.18
			c0.426,2.095-0.102,3.914-2.125,5.037c-0.229-0.209-0.46-0.416-0.691-0.623c1.109-1.734,1.483-3.604,1.03-5.624L123.722,255.166z"
			/>
		<path fill-rule="evenodd" clip-rule="evenodd" fill="#EAECEA" d="M122.299,262.32c-1.873,1.509-3.736,1.567-5.586-0.044
			c0.249-0.294,0.497-0.589,0.746-0.883c1.349,0.49,2.705,0.493,4.066,0.054C121.783,261.738,122.041,262.029,122.299,262.32z"/>
		<path fill-rule="evenodd" clip-rule="evenodd" fill="#EAECEA" d="M122.236,242.254c-1.828,1.251-3.652,1.274-5.471-0.022
			c0.247-0.298,0.494-0.597,0.741-0.895c1.315,0.472,2.636,0.486,3.962,0.046C121.725,241.674,121.98,241.964,122.236,242.254z"/>
		<path fill-rule="evenodd" clip-rule="evenodd" fill="#EAECEA" d="M123.174,252.779c0.86,0.64,1.711,1.282,0.548,2.387l0.071-0.03
			c-0.476-0.5-0.95-0.999-1.426-1.498C122.636,253.352,122.905,253.065,123.174,252.779z"/>
		<path fill-rule="evenodd" clip-rule="evenodd" fill="#EAECEA" d="M123.454,261.383c-0.385,0.313-0.77,0.625-1.155,0.938
			c-0.258-0.291-0.516-0.582-0.773-0.873c0.412-0.229,0.824-0.458,1.237-0.688C122.994,260.967,123.225,261.174,123.454,261.383z"/>
		<path fill-rule="evenodd" clip-rule="evenodd" fill="#070707" d="M74.591,253.027c0.521,0.386,0.986,0.144,1.449-0.129
			c1.858-0.584,3.163,0.991,4.809,1.235l-0.028-0.03c0.625,2.251,0.096,4.492-0.059,6.736l0.072-0.129
			c-0.972-0.582-1.393,0.29-1.97,0.749c-1.238,0.454-2.501,0.436-3.776,0.207c-2.775-1.983-3.296-4.551-1.969-7.597l-0.067,0.039
			C73.81,254.097,74.275,253.668,74.591,253.027z"/>
		<path fill-rule="evenodd" clip-rule="evenodd" fill="#070707" d="M73.171,233.615c0.257-0.038,0.404-0.187,0.44-0.445
			c2.514-0.469,4.968-0.49,7.232,0.947l-0.018-0.018c0.493,2.744,0.913,5.469-1.973,7.299c-1.23,0.429-2.477,0.476-3.741,0.172
			C71.867,239.553,72.196,236.663,73.171,233.615z"/>
		<path fill-rule="evenodd" clip-rule="evenodd" fill="#EAECEA" d="M73.119,254.07c-1.327,3.046-0.806,5.613,1.969,7.597
			c-0.023,0.385-0.046,0.77-0.069,1.154c-3.848-2.063-5.04-4.46-3.776-7.837C71.514,254.261,72.066,253.487,73.119,254.07z"/>
		<path fill-rule="evenodd" clip-rule="evenodd" fill="#EAECEA" d="M73.171,233.615c-0.975,3.048-1.304,5.938,1.94,7.955
			c-0.029,0.407-0.058,0.814-0.087,1.222C70.024,239.799,69.397,236.692,73.171,233.615z"/>
		<path fill-rule="evenodd" clip-rule="evenodd" fill="#EAECEA" d="M78.853,241.398c2.886-1.83,2.466-4.555,1.973-7.299
			c2.692,0.305,2.249,2.409,1.987,3.993c-0.358,2.164-1.402,4.073-3.871,4.624C78.912,242.277,78.882,241.838,78.853,241.398z"/>
		<path fill-rule="evenodd" clip-rule="evenodd" fill="#EAECEA" d="M80.844,234.117c-2.264-1.438-4.718-1.416-7.232-0.947
			C76.899,229.951,79.083,230.237,80.844,234.117z"/>
		<path fill-rule="evenodd" clip-rule="evenodd" fill="#EAECEA" d="M80.762,260.84c0.154-2.244,0.683-4.485,0.059-6.736
			C83.837,256.392,83.824,257.907,80.762,260.84z"/>
		<path fill-rule="evenodd" clip-rule="evenodd" fill="#EAECEA" d="M80.849,254.134c-1.646-0.244-2.95-1.819-4.809-1.235
			c-0.322-0.619-0.471-1.416,0.342-1.538C78.574,251.03,80.574,251.263,80.849,254.134z"/>
		<path fill-rule="evenodd" clip-rule="evenodd" fill="#FDFDFD" d="M78.853,241.398c0.03,0.439,0.06,0.879,0.089,1.318
			c-1.298,0.441-2.604,0.459-3.917,0.075c0.029-0.407,0.058-0.814,0.087-1.222C76.375,241.874,77.623,241.827,78.853,241.398z"/>
		<path fill-rule="evenodd" clip-rule="evenodd" fill="#FDFDFD" d="M75.019,262.821c0.023-0.385,0.046-0.77,0.069-1.154
			c1.275,0.229,2.539,0.247,3.776-0.207c0.027,0.436,0.054,0.87,0.082,1.306C77.643,263.193,76.334,263.219,75.019,262.821z"/>
		<path fill-rule="evenodd" clip-rule="evenodd" fill="#EAECEA" d="M78.946,262.766c-0.027-0.436-0.054-0.87-0.082-1.306
			c0.577-0.459,0.998-1.331,1.97-0.749C81.049,262.171,80.001,262.472,78.946,262.766z"/>
		<path fill-rule="evenodd" clip-rule="evenodd" fill="#EAECEA" d="M74.591,253.027c-0.316,0.641-0.781,1.069-1.539,1.082
			C72.892,252.792,73.602,252.711,74.591,253.027z"/>
		<path fill-rule="evenodd" clip-rule="evenodd" fill="#070707" d="M101.367,233.168c0.034,0.26,0.182,0.409,0.439,0.447
			c0.976,3.048,1.304,5.938-1.939,7.954c-1.264,0.305-2.511,0.258-3.74-0.17c-3.437-2.388-2.499-5.298-0.988-8.276l-0.013,0.012
			C97.208,232.77,99.288,232.872,101.367,233.168z"/>
		<path fill-rule="evenodd" clip-rule="evenodd" fill="#070707" d="M98.938,252.898c0.464,0.273,0.931,0.513,1.457,0.143
			c3.114,4.238,3.079,4.833-0.505,8.626c-1.276,0.229-2.539,0.247-3.777-0.207c-0.576-0.461-0.998-1.327-1.969-0.747l0.072,0.127
			c-0.155-2.244-0.684-4.485-0.06-6.736l-0.027,0.03C95.775,253.891,97.079,252.313,98.938,252.898z"/>
		<path fill-rule="evenodd" clip-rule="evenodd" fill="#EAECEA" d="M99.891,261.667c3.584-3.793,3.619-4.388,0.505-8.626
			c3.552,0.834,4.853,3.938,3.006,7.247c-0.754,1.351-1.758,2.422-3.443,2.533C99.936,262.437,99.913,262.052,99.891,261.667z"/>
		<path fill-rule="evenodd" clip-rule="evenodd" fill="#EAECEA" d="M95.139,233.123c-1.511,2.979-2.448,5.889,0.988,8.276
			c-0.031,0.438-0.063,0.877-0.094,1.315c-4.112-2.616-5.15-5.677-2.965-8.892C93.539,233.132,94.191,232.59,95.139,233.123z"/>
		<path fill-rule="evenodd" clip-rule="evenodd" fill="#EAECEA" d="M99.867,241.569c3.243-2.017,2.915-4.906,1.939-7.954
			c3.775,3.078,3.147,6.186-1.854,9.177C99.924,242.385,99.896,241.978,99.867,241.569z"/>
		<path fill-rule="evenodd" clip-rule="evenodd" fill="#EAECEA" d="M94.157,254.104c-0.624,2.251-0.096,4.492,0.06,6.736
			C91.154,257.908,91.141,256.393,94.157,254.104z"/>
		<path fill-rule="evenodd" clip-rule="evenodd" fill="#EAECEA" d="M101.367,233.168c-2.079-0.296-4.159-0.398-6.241-0.033
			C97.333,230.224,98.389,230.229,101.367,233.168z"/>
		<path fill-rule="evenodd" clip-rule="evenodd" fill="#EAECEA" d="M98.938,252.898c-1.859-0.585-3.163,0.992-4.809,1.235
			c0.274-2.872,2.274-3.104,4.466-2.773C99.409,251.482,99.26,252.279,98.938,252.898z"/>
		<path fill-rule="evenodd" clip-rule="evenodd" fill="#FDFDFD" d="M99.867,241.569c0.028,0.408,0.057,0.815,0.085,1.223
			c-1.314,0.384-2.621,0.367-3.919-0.076c0.031-0.439,0.063-0.878,0.094-1.316C97.356,241.827,98.604,241.874,99.867,241.569z"/>
		<path fill-rule="evenodd" clip-rule="evenodd" fill="#FDFDFD" d="M99.891,261.667c0.022,0.385,0.045,0.77,0.067,1.154
			c-1.313,0.397-2.621,0.372-3.924-0.055c0.026-0.436,0.053-0.871,0.079-1.307C97.352,261.914,98.614,261.896,99.891,261.667z"/>
		<path fill-rule="evenodd" clip-rule="evenodd" fill="#EAECEA" d="M96.113,261.46c-0.026,0.436-0.053,0.871-0.079,1.307
			c-1.057-0.292-2.1-0.595-1.89-2.054C95.115,260.133,95.537,260.999,96.113,261.46z"/>
		<path fill-rule="evenodd" clip-rule="evenodd" fill="#EAECEA" d="M139.03,242.737c-4.133-2.566-5.141-5.497-3.033-8.822
			c1.97-3.109,4.628-3.545,8.365-1.371c-0.214,0.24-0.43,0.479-0.646,0.717c-2.521-0.699-5.071-0.947-6.49,1.768
			c-1.335,2.554-0.375,4.757,1.907,6.406C139.099,241.869,139.064,242.303,139.03,242.737z"/>
		<path fill-rule="evenodd" clip-rule="evenodd" fill="#EAECEA" d="M136.805,261.155c-2.27-3.367-2.344-5.515-0.276-7.943
			c2.063-2.423,4.291-2.618,7.813-0.684c-0.221,0.266-0.441,0.53-0.662,0.796c-6.269-0.882-7.9,0.999-6.062,6.985
			C137.347,260.592,137.076,260.873,136.805,261.155z"/>
		<path fill-rule="evenodd" clip-rule="evenodd" fill="#EAECEA" d="M144.341,252.528c4.206,4.118,3.76,7.414-1.392,10.282
			c-0.022-0.394-0.045-0.786-0.067-1.179c3.452-3.709,3.482-4.023,0.797-8.308C143.899,253.059,144.12,252.794,144.341,252.528z"/>
		<path fill-rule="evenodd" clip-rule="evenodd" fill="#EAECEA" d="M145.416,233.62c2.769,4.061,2.13,6.424-2.475,9.16
			c-0.028-0.415-0.058-0.83-0.087-1.244c2.756-1.903,3.247-4.393,1.904-7.357C144.971,233.984,145.19,233.799,145.416,233.62z"/>
		<path fill-rule="evenodd" clip-rule="evenodd" fill="#FDFDFD" d="M142.854,241.536c0.029,0.414,0.059,0.829,0.087,1.244
			c-1.309,0.393-2.612,0.379-3.912-0.043c0.035-0.435,0.069-0.868,0.104-1.303C140.364,241.837,141.604,241.87,142.854,241.536z"/>
		<path fill-rule="evenodd" clip-rule="evenodd" fill="#FDFDFD" d="M142.882,261.632c0.022,0.393,0.045,0.785,0.067,1.179
			c-1.311,0.404-2.617,0.391-3.92-0.034c0.027-0.418,0.055-0.837,0.082-1.255C140.358,261.898,141.616,261.903,142.882,261.632z"/>
		<path fill-rule="evenodd" clip-rule="evenodd" fill="#EAECEA" d="M139.111,261.521c-0.027,0.418-0.055,0.837-0.082,1.255
			c-1.051-0.116-1.741-0.727-2.224-1.622c0.271-0.281,0.541-0.563,0.812-0.845C138.115,260.714,138.613,261.117,139.111,261.521z"/>
		<path fill-rule="evenodd" clip-rule="evenodd" fill="#EAECEA" d="M144.362,232.544c0.351,0.358,0.702,0.718,1.054,1.076
			c-0.226,0.179-0.445,0.364-0.657,0.559c-0.542-0.084-0.924-0.352-1.042-0.918C143.933,233.023,144.148,232.784,144.362,232.544z"
			/>
		<path fill-rule="evenodd" clip-rule="evenodd" fill="#EAECEA" d="M30.616,232.54c3.742-2.169,6.398-1.732,8.367,1.377
			c2.105,3.327,1.097,6.256-3.037,8.821c-0.035-0.434-0.07-0.867-0.105-1.301c2.282-1.648,3.247-3.851,1.912-6.407
			c-1.417-2.716-3.97-2.469-6.491-1.77C31.045,233.021,30.83,232.781,30.616,232.54z"/>
		<path fill-rule="evenodd" clip-rule="evenodd" fill="#EAECEA" d="M29.586,253.563c3.042-2.916,5.564-3.248,8.125-1.071
			c2.762,2.347,2.906,5.024,0.465,8.66c-0.277-0.275-0.554-0.55-0.831-0.824c1.189-2.181,1.575-4.359-0.422-6.269
			c-2.222-2.126-4.479-1.21-6.678,0.147C30.026,253.991,29.807,253.777,29.586,253.563z"/>
		<path fill-rule="evenodd" clip-rule="evenodd" fill="#EAECEA" d="M32.028,262.81c-4.656-2.578-5.243-4.799-2.442-9.247
			c0.22,0.215,0.44,0.429,0.659,0.644c-1.446,2.988-0.814,5.46,1.851,7.426C32.074,262.024,32.051,262.417,32.028,262.81z"/>
		<path fill-rule="evenodd" clip-rule="evenodd" fill="#EAECEA" d="M32.035,242.779c-4.704-2.774-5.304-5.003-2.467-9.159
			c0.223,0.179,0.44,0.365,0.651,0.559c-1.382,2.974-0.842,5.45,1.902,7.355C32.093,241.949,32.064,242.364,32.035,242.779z"/>
		<path fill-rule="evenodd" clip-rule="evenodd" fill="#FDFDFD" d="M32.035,242.779c0.029-0.415,0.058-0.83,0.087-1.245
			c1.249,0.337,2.489,0.302,3.719-0.097c0.035,0.434,0.07,0.867,0.105,1.301C34.646,243.158,33.343,243.173,32.035,242.779z"/>
		<path fill-rule="evenodd" clip-rule="evenodd" fill="#FDFDFD" d="M32.028,262.81c0.022-0.393,0.045-0.785,0.068-1.178
			c1.266,0.271,2.524,0.267,3.771-0.111c0.028,0.418,0.056,0.837,0.083,1.256C34.646,263.201,33.339,263.215,32.028,262.81z"/>
		<path fill-rule="evenodd" clip-rule="evenodd" fill="#EAECEA" d="M35.95,262.776c-0.027-0.419-0.055-0.838-0.083-1.256
			c0.493-0.397,0.986-0.795,1.479-1.193c0.276,0.274,0.553,0.549,0.831,0.824C37.692,262.046,37.002,262.659,35.95,262.776z"/>
		<path fill-rule="evenodd" clip-rule="evenodd" fill="#EAECEA" d="M29.568,233.62c0.35-0.36,0.699-0.72,1.048-1.08
			c0.214,0.241,0.429,0.481,0.645,0.721c-0.118,0.566-0.5,0.834-1.042,0.918C30.009,233.985,29.792,233.799,29.568,233.62z"/>
		<path fill-rule="evenodd" clip-rule="evenodd" fill="#354A35" d="M103.019,47.97c-0.429,2.549-0.813,5.016-4.424,4.749
			c-1.829-0.137-2.617-0.705-2.614-2.616c0.004-1.737,0.719-2.332,2.338-2.231c1.597,0.101,3.198,0.135,4.798,0.198L103.019,47.97z"
			/>
		<path fill-rule="evenodd" clip-rule="evenodd" fill="#354A35" d="M98.822,46.258c-1.462-0.021-2.827,0.123-2.801-1.906
			c0.025-1.897,1.228-2.131,2.635-2.007c1.38,0.123,3.306-0.241,3.312,1.94C101.973,46.452,100.089,46.097,98.822,46.258z"/>
		<path fill-rule="evenodd" clip-rule="evenodd" fill="#354A35" d="M18.493,93.753c-0.019,1.681-0.667,2.888-2.526,2.859
			c-1.79-0.028-2.523-1.16-2.614-2.858c-0.112-2.1,1.216-2.33,2.838-2.347C17.827,91.389,18.608,92.103,18.493,93.753z"/>
		<path fill-rule="evenodd" clip-rule="evenodd" fill="#354A35" d="M12.91,136.028c0.561,0.6,1.822-0.33,2,0.714
			c0.166,0.973,0.867,2.621-0.544,2.85c-1.14,0.186-1.008-1.414-0.936-2.352c0.042-0.55-0.095-0.928-0.443-1.289L12.91,136.028z"/>
		<path fill-rule="evenodd" clip-rule="evenodd" fill="#354A35" d="M18.352,159.891c0.035,0.689-0.197,1.639-0.722,1.624
			c-0.569-0.017-0.655-0.969-0.659-1.639c-0.004-0.671,0.063-1.604,0.693-1.604C18.256,158.273,18.406,159.207,18.352,159.891z"/>
		<path fill-rule="evenodd" clip-rule="evenodd" fill="#354A35" d="M18.337,115.486c0.039,0.929-0.081,1.86-0.636,1.917
			c-0.659,0.067-0.7-0.831-0.717-1.444c-0.019-0.645-0.042-1.568,0.601-1.642C18.245,114.24,18.374,115.099,18.337,115.486z"/>
		<path fill-rule="evenodd" clip-rule="evenodd" fill="#354A35" d="M142.152,214.915c-0.217,0.957-0.551,1.951-1.852,1.592
			c-1.097-0.302-1.426-1.218-1.272-2.321c0.137-0.979,0.798-1.485,1.658-1.436C141.93,212.822,142.185,213.795,142.152,214.915z"/>
		<path fill-rule="evenodd" clip-rule="evenodd" fill="#354A35" d="M74.638,210.61c0.574-0.907,1.343-1.756,2.276-0.65
			c0.701,0.83-0.049,1.462-0.932,1.757C75.534,211.348,75.086,210.979,74.638,210.61z"/>
		<path fill-rule="evenodd" clip-rule="evenodd" fill="#354A35" d="M14.3,151.639c-0.109-0.51-0.4-0.854-0.909-1
			c0.281-1.308-0.9-3.133,1.181-3.79c1.081-0.342,2.5-0.582,3.301,0.247c1.376,1.423,0.48,3.041-0.231,4.529
			C16.528,151.63,15.414,151.635,14.3,151.639z"/>
		<path fill-rule="evenodd" clip-rule="evenodd" fill="#354A35" d="M95.944,211.933c0.788,0.108,0.947-0.403,1.005-1.017
			c1.623,0.416,1.258,1.593,0.896,2.633c-0.092,0.264-0.869,0.533-1.208,0.422C95.623,213.637,96.122,212.642,95.944,211.933z"/>
		<path fill-rule="evenodd" clip-rule="evenodd" fill="#354A35" d="M23.913,162.025c0.155,0.048,0.308,0.112,0.466,0.141
			c1.006,0.181,2.41-0.517,2.699,1.198c0.028,0.165-0.353,0.527-0.595,0.587c-1.69,0.417-2.281-0.573-2.474-2.023L23.913,162.025z"
			/>
		<path fill-rule="evenodd" clip-rule="evenodd" fill="#354A35" d="M11.073,216.887c-0.052-0.551-0.298-0.95-0.864-1.098
			c-0.203-2.337-0.458-4.68,0.76-6.859c0.69-0.002,1.381-0.004,2.072-0.006c0.896,2.656,1.017,5.295-0.183,7.901
			C12.263,216.846,11.668,216.866,11.073,216.887z"/>
		<path fill-rule="evenodd" clip-rule="evenodd" fill="#070707" d="M16.386,254.571c0.975,1.66,0.723,3.398,0.321,5.146
			c-1.778,1.623-3.684,2.75-6.181,1.612c-3.245-3.805-3.252-3.987-0.335-8.146C12.48,252.646,14.656,252.613,16.386,254.571z"/>
		<path fill-rule="evenodd" clip-rule="evenodd" fill="#070707" d="M8.326,235.266c0.609-0.707,1.218-1.414,1.827-2.121
			c1.807-0.341,3.609-0.623,5.313,0.399c2.231,2.307,1.958,4.733,0.346,7.224c-1.687,0.623-3.353,1.452-5.198,0.536
			C8.509,239.801,7.715,237.8,8.326,235.266z"/>
		<path fill-rule="evenodd" clip-rule="evenodd" fill="#070707" d="M158.265,259.71c-0.393-1.755-0.648-3.499,0.344-5.16
			c1.732-1.941,3.902-1.9,6.182-1.365c2.283,2.259,2.713,4.727,0.846,7.457C162.917,262.404,160.477,261.963,158.265,259.71z"/>
		<path fill-rule="evenodd" clip-rule="evenodd" fill="#070707" d="M159.174,240.775c-0.094-0.522-0.332-0.93-0.876-1.094
			c-0.691-2.278-0.565-4.393,1.247-6.166c1.699-0.988,3.488-0.708,5.28-0.37c0.608,0.706,1.217,1.412,1.825,2.118
			c0.573,1.963-0.104,3.675-1.07,5.328c-1.637,0.787-3.274,1.569-5.157,0.842C160.006,241.215,159.59,240.995,159.174,240.775z"/>
		<path fill-rule="evenodd" clip-rule="evenodd" fill="#070707" d="M58.697,240.674c-1.674,0.707-3.336,1.503-5.212,0.698
			c-3.225-3.504-3.252-3.753-0.869-7.803c2.504-1.278,4.759-1.057,6.687,1.119C60.502,236.825,59.848,238.775,58.697,240.674z"/>
		<path fill-rule="evenodd" clip-rule="evenodd" fill="#070707" d="M53.452,261.447c-0.412-0.229-0.824-0.458-1.236-0.688
			c-1.172-1.963-1.791-3.974-0.52-6.143c1.688-2.001,3.872-1.942,6.152-1.483c0.633,0.686,1.265,1.371,1.897,2.057
			c0.591,2.555-0.024,4.675-2.247,6.213C56.155,261.889,54.806,261.88,53.452,261.447z"/>
		<path fill-rule="evenodd" clip-rule="evenodd" fill="#070707" d="M121.469,241.383c-1.326,0.44-2.646,0.426-3.962-0.046
			c-2.363-1.759-3.219-3.924-1.8-6.7c2.546-2.535,5.088-2.535,7.628,0.009C124.714,237.446,123.911,239.643,121.469,241.383z"/>
		<path fill-rule="evenodd" clip-rule="evenodd" fill="#070707" d="M122.763,260.76c-0.413,0.229-0.825,0.459-1.237,0.688
			c-1.361,0.439-2.718,0.437-4.066-0.054c-2.208-1.545-2.817-3.661-2.222-6.208c1.989-2.299,4.299-3.123,7.13-1.548
			c0.476,0.499,0.95,0.998,1.426,1.498C124.246,257.155,123.872,259.025,122.763,260.76z"/>
		<path fill-rule="evenodd" clip-rule="evenodd" fill="#070707" d="M143.717,233.261c0.118,0.566,0.5,0.834,1.042,0.918
			c1.343,2.965,0.852,5.454-1.904,7.357c-1.25,0.334-2.49,0.301-3.721-0.102c-2.282-1.649-3.242-3.853-1.907-6.406
			C138.646,232.313,141.196,232.562,143.717,233.261z"/>
		<path fill-rule="evenodd" clip-rule="evenodd" fill="#070707" d="M139.111,261.521c-0.498-0.404-0.996-0.808-1.494-1.212
			c-1.839-5.986-0.207-7.867,6.062-6.985c2.686,4.284,2.655,4.599-0.797,8.308C141.616,261.903,140.358,261.898,139.111,261.521z"/>
		<path fill-rule="evenodd" clip-rule="evenodd" fill="#070707" d="M30.22,234.179c0.542-0.084,0.924-0.352,1.042-0.918
			c2.521-0.699,5.074-0.946,6.491,1.77c1.335,2.557,0.371,4.759-1.912,6.407c-1.23,0.398-2.47,0.434-3.719,0.097
			C29.377,239.629,28.837,237.152,30.22,234.179z"/>
		<path fill-rule="evenodd" clip-rule="evenodd" fill="#070707" d="M37.346,260.327c-0.493,0.398-0.986,0.796-1.479,1.193
			c-1.247,0.378-2.505,0.383-3.771,0.111c-2.665-1.966-3.296-4.438-1.851-7.426c2.199-1.357,4.456-2.273,6.678-0.147
			C38.92,255.968,38.535,258.146,37.346,260.327z"/>
	</g>
</g>
</svg>
