<?xml version="1.0" encoding="utf-8"?>
<!-- Generator: Adobe Illustrator 16.0.0, SVG Export Plug-In . SVG Version: 6.00 Build 0)  -->
<!DOCTYPE svg PUBLIC "-//W3C//DTD SVG 1.1//EN" "http://www.w3.org/Graphics/SVG/1.1/DTD/svg11.dtd">
<svg version="1.1" id="Layer_1" xmlns="http://www.w3.org/2000/svg" xmlns:xlink="http://www.w3.org/1999/xlink" x="0px" y="0px"
	 width="612px" height="792px" viewBox="0 0 612 792" enable-background="new 0 0 612 792" xml:space="preserve">
<g>
	<g>
		<path fill-rule="evenodd" clip-rule="evenodd" fill="#354A35" d="M150.532,335.972c0-73.657,0-147.314,0-220.972
			c0-3.996,0.003-3.999,3.999-3.999C210.858,111,267.185,111,323.511,111c-0.054,0.828-0.154,1.657-0.153,2.485
			c0.029,53.808,0.073,107.615,0.102,161.422c0.018,33.15,0.021,66.301,0.013,99.451c-0.002,5.153,0.39,4.508-4.526,4.562
			c-1.165,0.014-2.332,0.004-3.498,0.005c-54.972,0.014-109.943,0.028-164.915,0.042c0-0.333,0-0.667,0-1
			c5.994,0.015,11.992-0.079,17.981,0.093c2.869,0.082,4.198-0.575,4.15-3.832c-0.171-11.487-0.177-22.981,0.003-34.469
			c0.051-3.289-1.31-3.876-4.154-3.805C162.523,336.104,156.526,335.982,150.532,335.972z M159.989,327.514
			c1.006,0.601,1.989,0.683,2.932-0.132c2.582-3.837,2.472-6.071-0.413-8.379c-0.652-1.181-1.299-1.473-1.937,0.011
			c-1.192-0.282-1.809,0.312-2.059,1.396c-0.479,2.085-0.475,4.14,0.482,6.114C159.326,326.854,159.657,327.184,159.989,327.514z
			 M174.424,248.537c-0.35,0.353-0.637,1.023-0.26,1.185c1.236,0.528,2.486,0.504,3.383-0.765c-0.031-0.689-0.061-1.379-0.092-2.068
			c-0.776-0.945-1.751-1.589-2.925-1.932c0.03,0.639,0.061,1.276,0.091,1.914C174.555,247.426,174.49,247.981,174.424,248.537z
			 M162.73,262.495c1.741,1.44,3.538,1.41,5.378,0.203c2.505-1.627,1.438-4.148,1.546-6.353c0.048-0.988-0.711-1.429-1.627-1.433
			c-2.98-0.012-5.961-0.01-8.94,0.049c-0.758,0.015-1.326,1.026-0.622,1.122c3.62,0.491,2.103,3.947,3.521,5.638
			C162.235,261.979,162.483,262.237,162.73,262.495z M173.942,234.563c0.631-0.1,1.26-0.272,1.892-0.279
			c0.728-0.007,1.948,0.646,2.001-0.352c0.083-1.55-1.357-0.685-2.148-0.782c-0.632-0.077-1.285,0.011-1.928,0.025
			c-0.762,0.021-1.253,0.398-1.001,1.157C172.914,234.803,173.481,234.795,173.942,234.563z M174.536,254.971
			c0.042,0.724,0.084,1.447,0.127,2.171c-0.471,1.304-0.676,2.6,1.147,2.877c1.953,0.298,2.57-0.778,2.191-2.582
			c0.529-2.036,0.586-3.761-2.327-3.526c-0.491-1.35,2.05-0.831,1.327-1.824c-0.561-0.771-1.854-0.399-2.404,0.563
			C174.205,253.334,174.06,254.185,174.536,254.971z M173.542,271.928c-1.07,1.346-1.783,2.753,0.769,2.978
			c1.261,0.111,3.199,0.918,3.719-1.045c0.458-1.731-0.688-2.694-2.49-2.71c-0.819-0.008-1.624,0.041-2.094,0.875L173.542,271.928z
			 M158.563,284.887c2.549,0.896,5.185,0.29,7.778,0.434c0.957,0.054,2.681,0.169,2.678-0.513c-0.007-1.7-1.689-0.701-2.625-0.967
			c-0.616-0.174-1.399-0.11-1.611-0.837c-1.458-4.977-1.521-0.788-2.229,0.285c-0.651,0.987-1.818,0.358-2.738,0.546
			c-0.08-0.491-0.109-0.997-0.248-1.472c-0.473-1.623,0.787-4.813-0.896-4.64c-2.022,0.208-0.659,3.317-0.964,5.133
			C157.583,283.605,157.496,284.544,158.563,284.887z M233.714,153.165c1.988-1.16,3.929-1.562,5.703,0.385
			c0.477,0.523,1.12,0.943,1.577,0.266c0.385-0.57-0.174-1.313-0.657-1.666c-2.537-1.856-5.039-1.921-7.392,0.376
			c-0.674,1.299-1.13,2.572,0.422,3.611c1.307,1.822,3.603,1.4,5.295,2.338c0.908,0.503,1.647,1.262,1.407,2.378
			c-0.225,1.038-1.054,1.653-2.087,1.891c-1.393,0.319-2.531-0.247-3.731-0.923c-0.786-0.442-0.585-3.025-2.146-1.346
			c-0.656,0.705,0.554,2.059,1.54,2.766c1.471,1.058,3.14,0.934,4.781,0.731c1.819-0.224,3.078-1.211,3.336-3.113
			c0.256-1.875-0.536-3.223-2.343-3.864c-1.709-0.607-3.442-1.144-5.165-1.711C234.074,154.578,233.894,153.872,233.714,153.165z
			 M246.583,321.037c-0.887-0.246-1.006,0.314-1.027,0.979c-4.022,2.968-1.337,3.388,1.436,3.828
			c0.926,0.146,0.466,2.438,1.761,1.55c0.819-0.563,1.892-1.962,1.047-3.337c-0.673-1.094-0.395-2.215-0.522-3.327
			c-0.103-0.893,0.325-2.353-1.033-2.288C247.028,318.498,246.447,319.717,246.583,321.037z M224.17,320.61
			c0.448,0.369,0.896,0.737,1.344,1.106c-0.651,1.501,0.997,1.383,1.49,2.077c0.556,0.783,0.606,1.512-0.028,2.191
			c-0.609,0.653-1.284,0.81-2.156,0.245c-0.583-0.376-1.255-2.167-2.019-0.432c-0.394,0.893,0.738,1.714,1.721,2.038
			c2.604,0.857,4.871-0.847,4.374-3.469c-0.235-1.239-0.851-2.271-0.464-3.704c0.425-1.572-0.874-2.398-2.293-2.549
			c-1.601-0.168-2.859,0.456-3.179,2.226C222.958,320.357,223.75,320.518,224.17,320.61z M162.52,245.951
			c-2.625,1.233-1.334,3.22-0.622,4.715c0.911,1.914,2.952,1.968,4.799,1.664c1.813-0.299,2.953-1.467,3.037-3.373
			c0.042-0.934,0.479-2.36-0.515-2.688c-1.566-0.517-1.127,1.091-1.306,1.892c-0.147,0.661-0.237,1.282-0.945,1.575
			c-0.156-0.597-0.375-1.187-0.452-1.794c-0.082-0.651-0.026-1.32-0.034-1.982c-0.012-1.073-0.249-2.055-1.565-2.038
			c-1.338,0.017-2.775,0.091-2.476,2.107L162.52,245.951z M252.551,157.97l0.098,0.1c-0.663-1.187,0.041-2.111,0.48-3.165
			c0.723-1.731-0.273-3.053-1.757-3.516c-2.203-0.689-4.756-0.948-6.769,0.032c-1.537,0.749-0.556,3.02-0.7,4.607
			c-0.104,1.144-0.027,2.305-0.019,3.458c0.034,4.586,0.036,4.586,4.602,4.474c0.659-0.017,1.333,0.05,1.974-0.068
			C253.778,163.277,254.379,161.545,252.551,157.97z M254.558,187.897c-20.644,0-41.287-0.01-61.931,0.005
			c-7.82,0.006-10.059,2.257-10.063,10.111c-0.012,25.97-0.011,51.941,0,77.912c0.004,7.823,2.271,10.096,10.089,10.098
			c41.287,0.01,82.574,0.007,123.861,0.002c5.154-0.001,5.175-0.02,5.176-5.122c0.007-29.301,0.007-58.601-0.001-87.902
			c-0.001-5.081-0.022-5.099-5.201-5.101C295.845,187.893,275.201,187.897,254.558,187.897z M236.999,113.077
			c-8.313,0-16.625-0.021-24.938,0.008c-4.479,0.016-4.523,0.053-4.549,4.258c-0.04,6.317-0.07,12.636,0.011,18.953
			c0.073,5.708,2.924,8.681,8.551,8.714c13.965,0.081,27.932,0.082,41.896-0.001c5.597-0.033,8.456-3.032,8.533-8.744
			c0.085-6.316,0.051-12.636,0.011-18.954c-0.025-4.134-0.071-4.199-4.077-4.22C253.958,113.046,245.479,113.078,236.999,113.077z
			 M322.544,357.169c0-5.992-0.07-11.984,0.035-17.974c0.042-2.344-0.776-3.279-3.165-3.223c-4.823,0.114-9.654,0.122-14.478-0.005
			c-2.5-0.065-3.557,0.71-3.533,3.381c0.104,11.814,0.083,23.633,0.015,35.448c-0.013,2.324,0.788,3.298,3.176,3.242
			c4.658-0.107,9.326-0.176,13.978,0.027c2.996,0.131,4.158-0.774,4.033-3.926C322.38,368.491,322.541,362.827,322.544,357.169z
			 M194.436,356.794c0,5.994,0.062,11.99-0.032,17.982c-0.036,2.317,0.771,3.312,3.168,3.262c4.993-0.104,9.992-0.111,14.985,0.002
			c2.506,0.057,3.067-1.145,3.056-3.363c-0.06-11.821-0.068-23.645,0.005-35.466c0.014-2.331-0.762-3.295-3.162-3.238
			c-4.826,0.114-9.663,0.174-14.483-0.02c-2.985-0.12-3.655,1.182-3.586,3.857C194.532,345.469,194.431,351.132,194.436,356.794z
			 M279.611,356.584c0-5.662-0.071-11.325,0.033-16.984c0.045-2.403-0.499-3.727-3.285-3.638c-4.99,0.159-9.99,0.104-14.984,0.02
			c-2.142-0.036-2.948,0.811-2.939,2.939c0.052,11.988,0.063,23.979-0.009,35.967c-0.015,2.411,0.966,3.199,3.27,3.151
			c4.827-0.102,9.66-0.134,14.484,0.011c2.612,0.078,3.524-0.898,3.469-3.484C279.522,368.574,279.609,362.578,279.611,356.584z
			 M216.466,356.469c0,6.159,0.035,12.319-0.021,18.479c-0.018,2.005,0.573,3.116,2.814,3.08c4.827-0.077,9.657-0.078,14.483,0.002
			c2.199,0.036,2.88-0.979,2.872-3.029c-0.042-11.986-0.063-23.974,0.016-35.959c0.017-2.493-1.104-3.112-3.334-3.063
			c-4.493,0.097-8.994,0.143-13.483-0.015c-2.671-0.094-3.444,1.017-3.39,3.525C216.544,345.146,216.461,350.808,216.466,356.469z
			 M257.58,357.306c0-5.994-0.05-11.988,0.026-17.98c0.027-2.191-0.483-3.434-3.039-3.356c-4.658,0.139-9.324,0.118-13.983,0.005
			c-2.385-0.058-3.188,0.886-3.173,3.227c0.074,11.819,0.064,23.641,0.006,35.461c-0.011,2.205,0.524,3.439,3.044,3.378
			c4.658-0.115,9.324-0.111,13.983-0.001c2.399,0.058,3.204-0.935,3.166-3.253C257.515,368.96,257.578,363.133,257.58,357.306z
			 M300.58,357.023c0-5.829-0.074-11.658,0.035-17.484c0.046-2.451-0.604-3.678-3.338-3.578c-4.49,0.165-8.995,0.155-13.485,0.003
			c-2.653-0.09-3.428,0.995-3.409,3.517c0.087,11.655,0.081,23.313,0.004,34.968c-0.016,2.449,0.612,3.696,3.347,3.602
			c4.49-0.155,8.994-0.157,13.484,0c2.687,0.095,3.45-1.032,3.399-3.544C300.499,368.681,300.579,362.852,300.58,357.023z
			 M193.622,357.033c0-5.828-0.077-11.658,0.036-17.483c0.047-2.458-0.603-3.686-3.339-3.587c-4.49,0.161-8.995,0.156-13.485,0
			c-2.652-0.092-3.429,0.978-3.41,3.506c0.089,11.655,0.081,23.313,0.005,34.969c-0.016,2.432,0.57,3.71,3.326,3.612
			c4.491-0.16,8.995-0.152,13.485,0.001c2.666,0.091,3.47-1.007,3.418-3.534C193.539,368.691,193.621,362.861,193.622,357.033z
			 M166.339,188.712c-0.165,0-0.334-0.023-0.495,0.003c-1.395,0.229-3.909-0.592-3.933,0.743c-0.029,1.617,2.371,0.848,3.709,0.957
			c1.652,0.136,2.323,0.841,2.308,2.481c-0.017,1.927-1.063,2.527-2.795,2.685c-1.164,0.106-3.289-0.572-3.205,0.954
			c0.073,1.337,2.249,0.631,3.485,0.719c2.486,0.176,4.13-0.829,4.374-3.544c0.074-0.828-0.167-2.302,1.472-1.39
			c0.548,0.306,0.552,1.801,1.647,0.785c0.688-0.638,0.444-1.502,0.034-2.273C171.425,187.983,168.719,188.856,166.339,188.712z
			 M169.771,203.354c0.03-3.484,0.03-3.496-3.486-3.592c-1.314-0.036-2.636-0.079-3.944,0.016c-1.424,0.103-3.473-0.72-4.079,0.727
			c-0.479,1.14,1.909,0.666,2.472,1.645c0.303,0.526,0.343,1.208,0.48,1.825c0.833,3.757,2,4.742,5.102,4.349
			C169.322,207.943,169.923,205.917,169.771,203.354z M229.5,156.512c0.025,0,0.051,0,0.076,0c0-1,0.048-2.002-0.016-2.999
			c-0.048-0.744,0.309-2.044-0.6-2.061c-1.458-0.025-0.93,1.439-0.981,2.303c-0.107,1.828-0.017,3.667-0.109,5.496
			c-0.104,2.07-0.988,3.571-3.313,3.534c-2.248-0.036-3.275-1.433-3.378-3.534c-0.106-2.162-0.07-4.33-0.134-6.495
			c-0.019-0.632-0.035-1.44-0.966-1.362c-0.556,0.046-0.575,0.67-0.575,1.127c0.001,2.499-0.151,5.014,0.087,7.491
			c0.287,2.98,1.964,4.12,5.187,4.071c2.748-0.041,4.433-1.268,4.704-4.077C229.593,158.853,229.5,157.678,229.5,156.512z
			 M165.586,219.403c1.127-0.272,3.447,0.764,3.654-0.896c0.16-1.279-2.169-0.706-3.386-0.774c-1.715-0.098-2.91-0.514-2.834-2.539
			c0.071-1.914,1.186-2.573,2.92-2.581c0.662-0.003,1.325-0.034,1.986-0.073c0.675-0.039,1.463-0.238,1.373-0.995
			c-0.095-0.797-1-0.684-1.629-0.72c-0.826-0.047-1.662-0.083-2.483-0.012c-3.181,0.278-3.875,1.606-4.035,5.517
			C161.009,219.837,163.161,219.471,165.586,219.403z M169.777,269.755c-0.418-1.329,0.843-3.437-1.429-3.707
			c-2.04-0.243-4.308-0.834-6.106,0.996c-1.356,1.379-1.11,3.012-0.819,4.647c0.047,0.266,0.411,0.476,0.628,0.712
			c0.219-0.209,0.572-0.385,0.633-0.633c0.193-0.794,0.197-1.64,0.438-2.415c0.129-0.416,0.595-0.727,0.909-1.084
			c0.185,0.41,0.465,0.806,0.534,1.234c0.154,0.966-0.138,2.015,0.472,2.892c0.566,0.815,1.21,1.699,2.316,1.604
			c1.061-0.091,1.8-0.879,2.118-1.854C169.721,271.382,169.689,270.524,169.777,269.755z M169.705,236.007
			c-0.179-0.695,0.635-2.552-0.771-2.6c-1.393-0.048-0.832,1.8-0.987,2.86c-0.048,0.326-0.037,0.661-0.047,0.992
			c-0.04,1.369-0.766,2.192-2.096,2.297c-1.52,0.12-2.553-0.58-2.745-2.185c-0.137-1.146-0.165-2.306-0.322-3.447
			c-0.033-0.238-0.432-0.602-0.646-0.591c-0.229,0.012-0.607,0.382-0.63,0.624c-0.199,2.102-0.882,4.287,0.734,6.163
			c1.409,1.635,3.335,1.486,5.065,1.014C169.599,240.495,169.985,238.504,169.705,236.007z M166.531,221.872
			c-3.805-0.044-5.087,0.862-5.284,3.762c-0.053,0.781-0.287,2.031,0.546,2.204c1.557,0.324,0.93-1.22,1.174-1.966
			c0.21-0.64,0.373-1.533,1.016-1.495c0.684,0.04,0.545,0.97,0.629,1.574c0.111,0.803,0.068,1.726,0.462,2.368
			c0.67,1.094,1.564,2.398,3.135,1.31c2.38-1.649,1.532-4.184,1.372-6.382C169.438,221.262,167.594,222.1,166.531,221.872z
			 M290.644,318.111c-2.771-0.049-4.533,2.701-3.879,6.182c0.35,1.854,0.959,3.607,3.305,3.677c1.999,0.06,3.111-1.08,3.289-2.961
			c0.197-2.09-0.758-3.471-2.95-3.843c-0.618-0.104-1.855,0.643-1.59-0.855c0.105-0.596,0.837-0.857,1.579-0.931
			c0.586-0.058,1.563,1.193,1.73-0.276C292.204,318.441,291.307,318.215,290.644,318.111z M268.729,318.053
			c-2.186-0.647-2.52,1.427-2.783,3.217c-0.521,3.538,1.794,0.953,2.791,1.171c1.44,0.313,1.983,1.247,1.699,2.536
			c-0.36,1.635-1.319,2.234-2.857,1.1c-0.565-0.417-1.202-1.497-1.787-0.139c-0.299,0.693,0.478,1.323,0.993,1.56
			c1.817,0.833,3.575,0.87,4.752-1.132c1.179-2.002,0.403-4.153-1.874-5.295c-0.604-0.303-1.877,0.444-1.762-0.897
			c0.066-0.778,1.059-0.579,1.677-0.726c0.585-0.139,1.599,0.052,1.418-0.874C270.869,317.922,269.91,318.215,268.729,318.053z
			 M204.074,327.938c0.333,0,0.69,0.079,0.993-0.016c0.667-0.21,1.863,0.545,1.915-0.698c0.031-0.747-0.992-0.602-1.602-0.663
			c-2.593-0.262-1.787-1.205-0.483-2.29c0.509-0.424,1.036-0.852,1.445-1.364c1.001-1.256,1.647-2.577,0.126-3.928
			c-1.513-1.342-3.036-1.159-4.456,0.11c-0.318,0.284-0.606,0.986-0.467,1.302c0.182,0.413,0.685,0.327,1.11-0.108
			c0.703-0.721,1.646-1.426,2.523-0.407c1.027,1.191,0.09,2.135-0.762,2.962c-0.596,0.578-1.271,1.075-1.86,1.659
			c-0.842,0.834-1.823,1.918-1.285,3.006C201.675,328.318,203.097,327.881,204.074,327.938z M183.674,323.371
			c0-1.148,0.01-2.298-0.004-3.446c-0.007-0.624,0.015-1.47-0.75-1.485c-0.574-0.012-1.16,0.546-1.74,0.851
			c-0.66,0.347-1.166,0.811-0.255,1.356c1.689,1.011,0.836,2.635,1.082,3.993c0.189,1.047-0.488,2.994,0.769,2.92
			c1.648-0.099,0.615-2.078,0.891-3.207C183.742,324.043,183.678,323.699,183.674,323.371z M311.524,318.191
			c-0.655,0-1.312,0.018-1.966-0.006c-0.464-0.018-0.693,0.162-0.524,0.541c0.109,0.247,0.396,0.602,0.594,0.595
			c3.744-0.116,2.365,1.729,1.47,3.572c-0.565,1.164-0.836,2.473-1.213,3.724c-0.165,0.547,0.092,0.935,0.616,1.097
			c0.698,0.215,0.85-0.362,0.938-0.807c0.387-1.939,0.978-3.791,1.932-5.541C315.129,318.141,315.103,318.127,311.524,318.191z
			 M177.518,280.6c1.593-3.091,0.356-3.38-2.362-2.263c-0.393,0.162-0.965,0.138-1.362-0.025s0.023-1.414-0.965-0.889
			c-0.208,0.11-0.137,0.946-0.03,1.409c0.372,1.626,1.788,1.132,2.817,1.225c2.855,0.257,1.389,2.003,1.047,3.167
			c-0.268,0.91-1.351,0.692-2.136,0.818c-0.363,0.058-0.937-0.09-0.894,0.533c0.009,0.13,0.547,0.259,0.854,0.324
			C176.964,285.432,177.549,284.613,177.518,280.6z M173.647,262.435c-0.258,0.159-0.635,0.256-0.732,0.477
			c-0.296,0.669-0.088,1.358,0.468,1.754c1.323,0.941,2.768,1.047,4.121,0.084c0.525-0.374,0.84-1.044,0.505-1.74
			c-0.119-0.248-0.432-0.403-0.656-0.601C176.131,264.288,174.9,264.962,173.647,262.435z M178.195,241.045
			c-0.383-0.611-0.645-1.628-1.8-1.735c-1.163-0.108-1.805,0.606-1.888,1.711c-0.082,1.089,0.341,1.87,1.599,1.942
			C177.289,243.03,177.875,242.406,178.195,241.045z M176.445,231.771c0.912-0.14,1.569-0.802,1.548-1.57
			c-0.035-1.267-1.169-1.942-2.23-2.042c-1.284-0.122-1.487,1.085-1.363,2.04C174.538,231.263,175.296,231.855,176.445,231.771z
			 M175.379,237.769c0.771-0.298,2.034,0.634,2.507-0.566c0.358-0.91-0.722-1.049-1.254-0.874c-1.17,0.384-2.948-0.524-3.403,1.141
			C173.088,237.983,174.559,237.604,175.379,237.769z M175.214,224.357c-0.743-0.011-0.793,0.499-0.783,0.989
			c0.02,0.963,0.483,1.572,1.504,1.503c0.425-0.029,0.837-0.267,1.255-0.409C176.523,225.738,175.856,225.035,175.214,224.357z"/>
		<path fill-rule="evenodd" clip-rule="evenodd" fill="#788678" d="M150.532,335.972c5.994,0.011,11.991,0.132,17.98-0.018
			c2.845-0.071,4.206,0.516,4.154,3.805c-0.18,11.487-0.174,22.981-0.003,34.469c0.048,3.257-1.281,3.914-4.15,3.832
			c-5.99-0.172-11.987-0.078-17.981-0.093C150.532,363.969,150.532,349.97,150.532,335.972z M166.919,370.322
			c1.775-2.236,2.117-4.438-0.156-6.578c-1.403-2.133-3.412-2.95-5.862-2.464c-0.837,0.167-2.013,0.543-1.146,1.92
			c-0.751-0.798-1.521-0.438-2.08,0.147c-2.64,2.761-2.005,6.083,1.637,8.879C162.393,373.762,165.126,373.919,166.919,370.322z
			 M159.725,343.219c-1.688-1.15-2.117,0.239-2.691,1.336c-1.408,4.247-1.184,4.986,2.312,7.625
			c2.385,1.246,4.703,2.069,6.395-1.023c3.522-3.035,3.532-4.608,0.051-8.464c-1.491-1.745-3.375-2.041-5.415-1.289
			C159.689,341.656,158.833,342.221,159.725,343.219z"/>
		<path fill-rule="evenodd" clip-rule="evenodd" fill="#FDFDFD" d="M150.532,378.967c54.972-0.014,109.943-0.028,164.915-0.042
			c1.166-0.001,2.333,0.009,3.498-0.005c4.916-0.054,4.524,0.592,4.526-4.562c0.008-33.15,0.005-66.301-0.013-99.451
			c-0.028-53.808-0.072-107.615-0.102-161.422c-0.001-0.828,0.1-1.657,0.153-2.485c0.308,0.218,1.047-0.506,1.01,0.5
			c-0.043,1.165-0.01,2.333-0.01,3.5c0,86.989,0,173.978-0.001,260.967c0,3.996-0.003,3.999-3.999,4
			c-55.326,0-110.652,0.009-165.979-0.053C153.22,379.912,151.46,380.923,150.532,378.967z"/>
		<path fill-rule="evenodd" clip-rule="evenodd" fill="#FDFDFD" d="M254.558,187.897c20.644,0,41.287-0.005,61.931,0.003
			c5.179,0.002,5.2,0.021,5.201,5.101c0.008,29.301,0.008,58.601,0.001,87.902c-0.001,5.103-0.021,5.121-5.176,5.122
			c-41.287,0.005-82.574,0.008-123.861-0.002c-7.818-0.002-10.085-2.274-10.089-10.098c-0.012-25.971-0.013-51.942,0-77.912
			c0.004-7.854,2.243-10.105,10.063-10.111C213.271,187.888,233.914,187.897,254.558,187.897z M236.48,204.906
			c0-0.015,0-0.029,0-0.044c-4.997,0-9.995-0.008-14.991,0.002c-6.664,0.014-6.887,0.217-6.891,6.636
			c-0.011,16.491-0.005,32.981,0.001,49.472c0,1.165-0.098,2.362,0.128,3.487c0.559,2.775,2.298,4.397,5.188,4.479
			c2.926,0.082,4.693-1.556,5.378-4.26c0.32-1.264,0.225-2.646,0.23-3.975c0.022-5.164,0.159-10.334-0.049-15.488
			c-0.119-2.965,0.663-4.33,3.861-4.057c2.644,0.225,5.336,0.162,7.987-0.038c3.172-0.239,5.079-2.222,5.2-5.006
			c0.123-2.828-1.603-4.869-4.738-5.473c-0.972-0.188-1.99-0.119-2.983-0.213c-2.933-0.277-6.663,1.316-8.608-0.805
			c-1.884-2.056-0.576-5.728-0.63-8.685c-0.094-5.177-0.016-5.191,5.012-5.2c6.83-0.012,13.659,0.006,20.489-0.012
			c1.328-0.004,2.688,0.047,3.979-0.207c3.11-0.613,4.776-2.715,4.626-5.568c-0.147-2.798-2.049-4.895-5.203-4.992
			C248.477,204.776,242.477,204.906,236.48,204.906z M272.192,266.96c0-0.017,0-0.033,0-0.049c4.161,0,8.331,0.174,12.479-0.058
			c3.067-0.171,4.957-2.387,5.039-5.183c0.082-2.799-1.739-4.971-4.753-5.479c-1.137-0.191-2.323-0.11-3.487-0.115
			c-3.994-0.015-7.993,0.108-11.981-0.049c-4.499-0.179-7.01-2.68-7.496-7.105c-0.682-6.195,2.465-9.702,8.883-9.805
			c4.658-0.075,9.325,0.082,13.976-0.138c2.825-0.134,4.578-1.903,4.81-4.8c0.232-2.897-1.26-4.73-3.973-5.564
			c-0.781-0.239-1.637-0.331-2.458-0.334c-7.323-0.021-14.65-0.162-21.969,0.042c-6.265,0.174-9.871,3.725-10.14,10.052
			c-0.261,6.147-0.266,12.322,0.003,18.467c0.285,6.537,3.95,9.876,10.584,10.098C265.199,267.056,268.697,266.96,272.192,266.96z"
			/>
		<path fill-rule="evenodd" clip-rule="evenodd" fill="#768476" d="M236.999,113.077c8.479,0.001,16.959-0.03,25.438,0.014
			c4.006,0.021,4.052,0.086,4.077,4.22c0.04,6.317,0.074,12.637-0.011,18.954c-0.077,5.712-2.937,8.711-8.533,8.744
			c-13.965,0.083-27.932,0.082-41.896,0.001c-5.627-0.033-8.478-3.006-8.551-8.714c-0.081-6.316-0.05-12.635-0.011-18.953
			c0.026-4.206,0.071-4.243,4.549-4.258C220.374,113.056,228.687,113.077,236.999,113.077z"/>
		<path fill-rule="evenodd" clip-rule="evenodd" fill="#788678" d="M322.542,357.169c-0.001,5.658-0.162,11.322,0.063,16.972
			c0.125,3.151-1.037,4.057-4.033,3.926c-4.651-0.203-9.319-0.135-13.978-0.027c-2.388,0.056-3.188-0.918-3.176-3.242
			c0.068-11.815,0.089-23.634-0.015-35.448c-0.023-2.671,1.033-3.446,3.533-3.381c4.823,0.127,9.654,0.119,14.478,0.005
			c2.389-0.057,3.207,0.879,3.165,3.223C322.474,345.185,322.544,351.177,322.542,357.169z M308.329,351.205
			c-0.11,0.686,0.381,0.907,0.87,1.132c2.491,1.417,4.729,1.122,6.694-0.995c2.423-1.923,2.272-4.271,1.118-6.785
			c-0.579-1.089-1.002-2.49-2.694-1.338c0.865-0.9,0.127-1.482-0.536-1.753c-2.086-0.852-3.997-0.54-5.54,1.235
			c-3.218,3.55-3.271,3.906-1.148,7.645C307.378,350.814,307.64,351.317,308.329,351.205z M307.129,370.326
			c2.902,3.581,4.665,3.791,8.792,1.045c1.661-0.891,2.144-2.628,1.968-4.119c-0.228-1.932-0.1-4.78-3.599-4.049
			c0.791-0.999-0.003-1.566-0.708-1.794c-2.666-0.86-4.782,0.001-6.307,2.341C305.002,365.892,305.351,368.093,307.129,370.326z"/>
		<path fill-rule="evenodd" clip-rule="evenodd" fill="#788678" d="M194.433,356.794c-0.002-5.662,0.099-11.325-0.046-16.983
			c-0.068-2.676,0.602-3.978,3.586-3.857c4.821,0.193,9.657,0.134,14.483,0.02c2.4-0.057,3.176,0.907,3.162,3.238
			c-0.074,11.821-0.065,23.645-0.005,35.466c0.011,2.219-0.55,3.42-3.056,3.363c-4.993-0.113-9.992-0.106-14.985-0.002
			c-2.398,0.05-3.205-0.944-3.168-3.262C194.498,368.784,194.436,362.788,194.433,356.794z M202.211,372.319
			c1.876,1.514,3.742,1.567,5.592-0.048c3.752-2.823,4.042-3.846,2.159-7.629c-0.44-1.274-0.895-2.524-2.626-1.435
			c0.583-0.659,0.292-1.162-0.351-1.482c-2.861-1.427-4.961-0.351-6.626,2.079c-2.531,2.776-2.041,5.279,0.691,7.577
			C201.438,371.694,201.825,372.007,202.211,372.319z M208.943,351.396c2.582-2.296,3.253-4.778,0.732-7.569
			c-3.516-3.561-4.332-3.665-8.366-1.075c-3.678,4.217-3.474,6.202,0.974,9.509C204.742,353.817,206.951,353.449,208.943,351.396z"
			/>
		<path fill-rule="evenodd" clip-rule="evenodd" fill="#788678" d="M279.61,356.584c-0.001,5.994-0.088,11.99,0.039,17.981
			c0.056,2.586-0.856,3.563-3.469,3.484c-4.824-0.145-9.657-0.112-14.484-0.011c-2.304,0.048-3.284-0.74-3.27-3.151
			c0.072-11.988,0.061-23.979,0.009-35.967c-0.009-2.129,0.798-2.976,2.939-2.939c4.994,0.084,9.994,0.14,14.984-0.02
			c2.786-0.089,3.33,1.234,3.285,3.638C279.54,345.259,279.611,350.922,279.61,356.584z M271.831,372.32
			c0.386-0.313,0.771-0.625,1.155-0.938c2.023-1.123,2.551-2.942,2.125-5.037c-0.158-0.779-0.396-2.131-1.857-1.18
			c1.163-1.104,0.313-1.747-0.548-2.387c-4.19-2.612-5.725-2.281-8.635,1.866c-1.87,3.793-1.58,4.811,2.174,7.631
			C268.095,373.888,269.958,373.829,271.831,372.32z M271.769,352.254c4.037-3.014,4.31-4.209,1.936-8.466
			c-3.993-3.858-5.399-3.852-9.341,0.045c-2.329,4.241-2.056,5.427,1.935,8.398C268.116,353.528,269.94,353.505,271.769,352.254z"/>
		<path fill-rule="evenodd" clip-rule="evenodd" fill="#788678" d="M216.463,356.469c-0.002-5.661,0.081-11.323-0.04-16.98
			c-0.054-2.509,0.719-3.619,3.39-3.525c4.489,0.157,8.99,0.111,13.483,0.015c2.23-0.049,3.351,0.57,3.334,3.063
			c-0.079,11.985-0.058,23.973-0.016,35.959c0.008,2.051-0.673,3.065-2.872,3.029c-4.827-0.08-9.656-0.079-14.483-0.002
			c-2.241,0.036-2.832-1.075-2.814-3.08C216.5,368.788,216.466,362.628,216.463,356.469z M228.479,372.766
			c1.055-0.294,2.103-0.595,1.888-2.055l-0.072,0.129c3.062-2.933,3.075-4.448,0.059-6.736l0.028,0.03
			c-0.274-2.871-2.274-3.104-4.466-2.773c-0.813,0.122-0.664,0.919-0.342,1.538c-0.463,0.272-0.928,0.515-1.449,0.129
			c-0.989-0.316-1.7-0.235-1.539,1.082l0.067-0.039c-1.053-0.583-1.605,0.19-1.876,0.914c-1.263,3.377-0.071,5.773,3.776,7.837
			C225.866,373.219,227.175,373.193,228.479,372.766z M230.376,344.117c-1.761-3.88-3.944-4.166-7.232-0.947
			c-0.036,0.259-0.183,0.407-0.44,0.445c-3.774,3.077-3.147,6.184,1.853,9.177c1.313,0.384,2.619,0.366,3.917-0.076
			c2.469-0.55,3.513-2.459,3.871-4.623c0.262-1.584,0.705-3.688-1.987-3.993L230.376,344.117z"/>
		<path fill-rule="evenodd" clip-rule="evenodd" fill="#788678" d="M257.579,357.306c-0.001,5.827-0.064,11.654,0.031,17.479
			c0.038,2.318-0.767,3.311-3.166,3.253c-4.659-0.11-9.325-0.114-13.983,0.001c-2.52,0.062-3.055-1.173-3.044-3.378
			c0.059-11.82,0.068-23.642-0.006-35.461c-0.016-2.341,0.788-3.284,3.173-3.227c4.659,0.113,9.325,0.134,13.983-0.005
			c2.556-0.077,3.066,1.165,3.039,3.356C257.53,345.317,257.58,351.312,257.579,357.306z M245.566,372.767
			c1.303,0.427,2.61,0.452,3.924,0.055c1.686-0.111,2.689-1.183,3.443-2.533c1.847-3.31,0.546-6.413-3.006-7.247
			c-0.526,0.37-0.993,0.131-1.457-0.143c0.321-0.619,0.471-1.416-0.343-1.538c-2.191-0.33-4.191-0.099-4.466,2.773l0.027-0.03
			c-3.017,2.289-3.003,3.805,0.06,6.736l-0.072-0.127C243.467,372.172,244.51,372.475,245.566,372.767z M249.484,352.792
			c5.002-2.991,5.63-6.099,1.854-9.177c-0.258-0.038-0.405-0.188-0.439-0.447c-2.979-2.938-4.034-2.944-6.241-0.033l0.013-0.012
			c-0.947-0.533-1.6,0.009-2.07,0.7c-2.186,3.215-1.147,6.275,2.965,8.893C246.863,353.159,248.17,353.176,249.484,352.792z"/>
		<path fill-rule="evenodd" clip-rule="evenodd" fill="#788678" d="M300.58,357.023c-0.001,5.828-0.081,11.657,0.037,17.482
			c0.051,2.512-0.713,3.639-3.399,3.544c-4.49-0.157-8.994-0.155-13.484,0c-2.734,0.095-3.362-1.152-3.347-3.602
			c0.077-11.655,0.083-23.313-0.004-34.968c-0.019-2.521,0.756-3.606,3.409-3.517c4.49,0.152,8.995,0.162,13.485-0.003
			c2.734-0.1,3.384,1.127,3.338,3.578C300.506,345.365,300.58,351.194,300.58,357.023z M288.562,372.776
			c1.303,0.425,2.609,0.438,3.92,0.034c5.151-2.868,5.598-6.164,1.392-10.282c-3.521-1.935-5.75-1.739-7.813,0.684
			c-2.067,2.429-1.993,4.576,0.278,7.941C286.82,372.05,287.511,372.66,288.562,372.776z M292.474,352.779
			c4.604-2.735,5.243-5.099,2.475-9.159c-0.352-0.358-0.703-0.718-1.054-1.076c-3.737-2.174-6.396-1.738-8.365,1.371
			c-2.107,3.325-1.1,6.256,3.032,8.822C289.861,353.159,291.165,353.173,292.474,352.779z"/>
		<path fill-rule="evenodd" clip-rule="evenodd" fill="#788678" d="M193.621,357.033c0,5.828-0.082,11.658,0.038,17.483
			c0.052,2.527-0.752,3.625-3.418,3.534c-4.491-0.153-8.995-0.161-13.485-0.001c-2.755,0.098-3.342-1.181-3.326-3.612
			c0.075-11.656,0.083-23.313-0.005-34.969c-0.019-2.528,0.758-3.598,3.41-3.506c4.491,0.156,8.995,0.161,13.485,0
			c2.736-0.099,3.386,1.129,3.339,3.587C193.545,345.375,193.622,351.205,193.621,357.033z M185.482,372.776
			c1.052-0.117,1.742-0.73,2.227-1.624c2.44-3.637,2.296-6.314-0.466-8.661c-2.561-2.177-5.082-1.845-8.125,1.071
			c-2.801,4.448-2.214,6.669,2.442,9.247C182.871,373.215,184.179,373.201,185.482,372.776z M181.567,352.779
			c1.308,0.394,2.611,0.379,3.911-0.041c4.134-2.565,5.142-5.494,3.037-8.821c-1.968-3.109-4.625-3.546-8.367-1.377
			c-0.349,0.36-0.698,0.72-1.048,1.08C176.263,347.776,176.863,350.005,181.567,352.779z"/>
		<path fill-rule="evenodd" clip-rule="evenodd" fill="#EAECEA" d="M252.551,157.97c1.828,3.576,1.228,5.308-2.091,5.921
			c-0.641,0.118-1.314,0.052-1.974,0.068c-4.565,0.112-4.567,0.112-4.602-4.474c-0.009-1.153-0.085-2.314,0.019-3.458
			c0.145-1.587-0.837-3.858,0.7-4.607c2.013-0.98,4.565-0.721,6.769-0.032c1.483,0.463,2.479,1.785,1.757,3.516
			c-0.439,1.053-1.144,1.978-0.48,3.165c-1.6-0.063-3.201-0.098-4.798-0.198c-1.619-0.101-2.334,0.494-2.338,2.231
			c-0.003,1.911,0.785,2.479,2.614,2.616C251.737,162.985,252.122,160.519,252.551,157.97z M248.354,156.258
			c1.267-0.161,3.15,0.194,3.146-1.972c-0.006-2.182-1.932-1.817-3.312-1.94c-1.407-0.124-2.609,0.109-2.635,2.007
			C245.527,156.381,246.893,156.237,248.354,156.258z"/>
		<path fill-rule="evenodd" clip-rule="evenodd" fill="#EAECEA" d="M166.34,188.709c2.379,0.147,5.085-0.726,6.599,2.123
			c0.41,0.771,0.654,1.636-0.034,2.273c-1.095,1.016-1.099-0.479-1.647-0.785c-1.639-0.912-1.397,0.562-1.472,1.39
			c-0.244,2.715-1.887,3.72-4.374,3.544c-1.236-0.088-3.412,0.618-3.485-0.719c-0.083-1.526,2.042-0.848,3.205-0.954
			c1.732-0.158,2.778-0.758,2.795-2.685c0.015-1.64-0.656-2.345-2.308-2.481c-1.338-0.109-3.738,0.66-3.709-0.957
			c0.024-1.335,2.539-0.515,3.933-0.743C166.005,188.688,166.174,188.712,166.34,188.709z"/>
		<path fill-rule="evenodd" clip-rule="evenodd" fill="#EAECEA" d="M169.768,203.352c0.155,2.565-0.446,4.591-3.453,4.971
			c-3.103,0.393-4.269-0.592-5.102-4.349c-0.137-0.617-0.177-1.299-0.48-1.825c-0.563-0.979-2.95-0.505-2.472-1.645
			c0.606-1.446,2.655-0.624,4.079-0.727c1.308-0.095,2.63-0.052,3.944-0.016C169.801,199.859,169.801,199.871,169.768,203.352z
			 M168.022,203.756c0.118-1.653-0.663-2.367-2.3-2.349c-1.622,0.018-2.95,0.247-2.838,2.347c0.09,1.698,0.824,2.83,2.614,2.858
			C167.358,206.641,168.006,205.434,168.022,203.756z"/>
		<path fill-rule="evenodd" clip-rule="evenodd" fill="#EAECEA" d="M229.5,156.512c0,1.166,0.093,2.341-0.018,3.496
			c-0.271,2.809-1.956,4.036-4.704,4.077c-3.223,0.049-4.9-1.091-5.187-4.071c-0.238-2.477-0.086-4.992-0.087-7.491
			c0-0.457,0.019-1.081,0.575-1.127c0.931-0.078,0.947,0.73,0.966,1.362c0.064,2.165,0.028,4.333,0.134,6.495
			c0.103,2.101,1.131,3.498,3.378,3.534c2.325,0.037,3.209-1.464,3.313-3.534c0.092-1.829,0.001-3.668,0.109-5.496
			c0.051-0.863-0.477-2.328,0.981-2.303c0.909,0.017,0.552,1.316,0.6,2.061c0.064,0.996,0.016,1.999,0.016,2.999
			C229.551,156.512,229.525,156.512,229.5,156.512z"/>
		<path fill-rule="evenodd" clip-rule="evenodd" fill="#EAECEA" d="M165.586,219.403c-2.425,0.067-4.577,0.434-4.435-3.073
			c0.159-3.911,0.854-5.239,4.035-5.517c0.822-0.071,1.658-0.035,2.483,0.012c0.629,0.036,1.534-0.077,1.629,0.72
			c0.09,0.757-0.698,0.956-1.373,0.995c-0.661,0.039-1.324,0.07-1.986,0.073c-1.734,0.008-2.849,0.667-2.92,2.581
			c-0.076,2.025,1.119,2.441,2.834,2.539c1.217,0.068,3.546-0.505,3.386,0.774C169.033,220.167,166.713,219.131,165.586,219.403z"/>
		<path fill-rule="evenodd" clip-rule="evenodd" fill="#EAECEA" d="M162.442,246.028c-0.299-2.017,1.138-2.091,2.476-2.107
			c1.316-0.017,1.553,0.965,1.565,2.038c0.007,0.662-0.048,1.331,0.034,1.982c0.076,0.607,0.295,1.197,0.452,1.794
			c0.708-0.293,0.798-0.914,0.945-1.575c0.179-0.801-0.261-2.408,1.306-1.892c0.993,0.328,0.556,1.755,0.515,2.688
			c-0.084,1.906-1.224,3.074-3.037,3.373c-1.847,0.304-3.888,0.25-4.799-1.664c-0.712-1.495-2.003-3.481,0.622-4.715
			c0.348,0.361,0.485,0.739,0.443,1.289c-0.072,0.938-0.204,2.537,0.936,2.352c1.411-0.229,0.71-1.877,0.544-2.85
			C164.265,245.698,163.003,246.628,162.442,246.028z"/>
		<path fill-rule="evenodd" clip-rule="evenodd" fill="#EAECEA" d="M169.777,269.755c-0.088,0.77-0.056,1.627-0.306,2.394
			c-0.317,0.975-1.057,1.763-2.118,1.854c-1.105,0.095-1.75-0.789-2.316-1.604c-0.61-0.877-0.318-1.926-0.472-2.892
			c-0.069-0.429-0.349-0.824-0.534-1.234c-0.314,0.357-0.78,0.668-0.909,1.084c-0.241,0.775-0.245,1.621-0.438,2.415
			c-0.061,0.248-0.414,0.424-0.633,0.633c-0.217-0.236-0.581-0.446-0.628-0.712c-0.291-1.636-0.537-3.269,0.819-4.647
			c1.798-1.83,4.066-1.239,6.106-0.996C170.62,266.318,169.359,268.426,169.777,269.755z M167.882,269.894
			c0.056-0.687-0.094-1.62-0.686-1.621c-0.631,0-0.698,0.933-0.693,1.604c0.004,0.67,0.09,1.622,0.659,1.639
			C167.687,271.529,167.918,270.58,167.882,269.894z"/>
		<path fill-rule="evenodd" clip-rule="evenodd" fill="#EAECEA" d="M169.705,236.007c0.28,2.498-0.106,4.488-2.445,5.125
			c-1.73,0.472-3.657,0.622-5.065-1.014c-1.616-1.876-0.933-4.061-0.734-6.163c0.023-0.241,0.401-0.612,0.63-0.624
			c0.214-0.011,0.613,0.353,0.646,0.591c0.157,1.142,0.185,2.302,0.322,3.447c0.192,1.605,1.225,2.305,2.745,2.185
			c1.33-0.105,2.056-0.929,2.096-2.297c0.01-0.331-0.001-0.666,0.047-0.992c0.155-1.06-0.406-2.908,0.987-2.86
			C170.34,233.455,169.526,235.312,169.705,236.007z"/>
		<path fill-rule="evenodd" clip-rule="evenodd" fill="#EAECEA" d="M166.531,221.872c1.063,0.228,2.907-0.61,3.052,1.375
			c0.16,2.198,1.008,4.733-1.372,6.382c-1.571,1.088-2.465-0.216-3.135-1.31c-0.395-0.643-0.352-1.565-0.462-2.368
			c-0.084-0.604,0.055-1.534-0.629-1.574c-0.644-0.038-0.806,0.854-1.016,1.495c-0.245,0.746,0.382,2.29-1.174,1.966
			c-0.833-0.173-0.599-1.423-0.546-2.204C161.444,222.734,162.727,221.828,166.531,221.872z M167.869,225.486
			c0.037-0.387-0.092-1.246-0.752-1.169c-0.643,0.074-0.62,0.997-0.601,1.642c0.018,0.613,0.059,1.512,0.717,1.444
			C167.789,227.346,167.908,226.415,167.869,225.486z"/>
		<path fill-rule="evenodd" clip-rule="evenodd" fill="#EAECEA" d="M234.254,155.284c1.723,0.567,3.456,1.104,5.165,1.711
			c1.807,0.641,2.599,1.988,2.343,3.864c-0.258,1.901-1.517,2.889-3.336,3.113c-1.642,0.202-3.31,0.326-4.781-0.731
			c-0.986-0.708-2.196-2.061-1.54-2.766c1.561-1.679,1.36,0.903,2.146,1.346c1.201,0.676,2.339,1.242,3.731,0.923
			c1.033-0.237,1.862-0.853,2.087-1.891c0.24-1.116-0.499-1.875-1.407-2.378c-1.692-0.938-3.988-0.516-5.295-2.338
			C233.663,155.852,233.958,155.568,234.254,155.284z"/>
		<path fill-rule="evenodd" clip-rule="evenodd" fill="#EAECEA" d="M290.643,318.113c0.664,0.102,1.562,0.328,1.485,0.99
			c-0.168,1.47-1.145,0.219-1.73,0.276c-0.742,0.073-1.474,0.335-1.579,0.931c-0.266,1.498,0.972,0.751,1.59,0.855
			c2.192,0.372,3.147,1.753,2.95,3.843c-0.178,1.881-1.29,3.021-3.289,2.961c-2.346-0.069-2.955-1.823-3.305-3.677
			C286.11,320.813,287.872,318.063,290.643,318.113z M291.685,324.915c0.032-1.12-0.223-2.093-1.466-2.165
			c-0.86-0.05-1.521,0.457-1.658,1.436c-0.153,1.104,0.176,2.02,1.272,2.321C291.134,326.866,291.468,325.872,291.685,324.915z"/>
		<path fill-rule="evenodd" clip-rule="evenodd" fill="#EAECEA" d="M224.17,320.61c-0.42-0.093-1.212-0.253-1.209-0.27
			c0.32-1.77,1.578-2.394,3.179-2.226c1.419,0.15,2.718,0.977,2.293,2.549c-0.387,1.433,0.229,2.465,0.464,3.704
			c0.497,2.622-1.769,4.326-4.374,3.469c-0.983-0.324-2.114-1.146-1.721-2.038c0.764-1.735,1.436,0.056,2.019,0.432
			c0.872,0.564,1.546,0.408,2.156-0.245c0.634-0.68,0.583-1.408,0.028-2.191c-0.493-0.694-2.141-0.576-1.49-2.077
			c0.882-0.295,1.632-0.927,0.932-1.757C225.513,318.854,224.744,319.703,224.17,320.61z"/>
		<path fill-rule="evenodd" clip-rule="evenodd" fill="#EAECEA" d="M268.729,318.053c1.181,0.162,2.14-0.131,2.267,0.521
			c0.181,0.926-0.833,0.735-1.418,0.874c-0.618,0.146-1.61-0.053-1.677,0.726c-0.115,1.342,1.157,0.595,1.762,0.897
			c2.277,1.142,3.053,3.293,1.874,5.295c-1.177,2.002-2.935,1.965-4.752,1.132c-0.516-0.236-1.292-0.866-0.993-1.56
			c0.585-1.358,1.222-0.278,1.787,0.139c1.538,1.135,2.497,0.535,2.857-1.1c0.284-1.289-0.259-2.223-1.699-2.536
			c-0.997-0.218-3.312,2.367-2.791-1.171C266.21,319.479,266.544,317.405,268.729,318.053z"/>
		<path fill-rule="evenodd" clip-rule="evenodd" fill="#EAECEA" d="M204.074,327.94c-0.977-0.06-2.398,0.378-2.802-0.438
			c-0.538-1.088,0.443-2.172,1.285-3.006c0.59-0.584,1.265-1.081,1.86-1.659c0.852-0.827,1.789-1.771,0.762-2.962
			c-0.877-1.019-1.82-0.313-2.523,0.407c-0.425,0.436-0.929,0.521-1.11,0.108c-0.139-0.315,0.149-1.018,0.467-1.302
			c1.419-1.27,2.943-1.452,4.456-0.11c1.521,1.351,0.875,2.672-0.126,3.928c-0.409,0.513-0.936,0.94-1.445,1.364
			c-1.304,1.085-2.11,2.028,0.483,2.29c0.61,0.062,1.633-0.084,1.602,0.663c-0.052,1.243-1.248,0.488-1.915,0.698
			C204.765,328.017,204.407,327.938,204.074,327.94z"/>
		<path fill-rule="evenodd" clip-rule="evenodd" fill="#EAECEA" d="M161.987,261.722c-1.419-1.69,0.099-5.146-3.521-5.638
			c-0.704-0.096-0.136-1.107,0.622-1.122c2.979-0.059,5.96-0.061,8.94-0.049c0.916,0.004,1.676,0.444,1.627,1.433
			c-0.108,2.204,0.958,4.726-1.546,6.353c-0.312-0.357-0.623-0.716-0.935-1.073c0.711-1.488,1.607-3.106,0.231-4.529
			c-0.802-0.829-2.221-0.589-3.301-0.247c-2.081,0.657-0.899,2.482-1.181,3.79C162.611,260.999,162.299,261.36,161.987,261.722z"/>
		<path fill-rule="evenodd" clip-rule="evenodd" fill="#EAECEA" d="M246.584,321.037c-0.137-1.32,0.444-2.539,1.659-2.596
			c1.358-0.064,0.931,1.396,1.033,2.288c0.128,1.112-0.15,2.233,0.522,3.327c0.845,1.375-0.228,2.774-1.047,3.337
			c-1.295,0.889-0.835-1.403-1.761-1.55c-2.772-0.44-5.458-0.86-1.436-3.828l-0.079-0.083c0.178,0.709-0.321,1.704,0.693,2.038
			c0.339,0.111,1.116-0.158,1.208-0.422c0.361-1.04,0.727-2.217-0.896-2.633L246.584,321.037z"/>
		<path fill-rule="evenodd" clip-rule="evenodd" fill="#EAECEA" d="M183.676,323.371c0.002,0.328,0.066,0.672-0.009,0.981
			c-0.276,1.129,0.757,3.108-0.891,3.207c-1.256,0.074-0.58-1.873-0.769-2.92c-0.245-1.358,0.608-2.982-1.082-3.993
			c-0.911-0.546-0.405-1.01,0.255-1.356c0.58-0.305,1.166-0.862,1.74-0.851c0.764,0.016,0.742,0.861,0.75,1.485
			C183.684,321.073,183.674,322.223,183.676,323.371z"/>
		<path fill-rule="evenodd" clip-rule="evenodd" fill="#EAECEA" d="M311.524,318.191c3.578-0.064,3.604-0.051,1.847,3.175
			c-0.954,1.75-1.545,3.602-1.932,5.541c-0.089,0.444-0.24,1.021-0.938,0.807c-0.524-0.162-0.781-0.55-0.616-1.097
			c0.377-1.251,0.647-2.56,1.213-3.724c0.896-1.843,2.274-3.688-1.47-3.572c-0.197,0.007-0.484-0.348-0.594-0.595
			c-0.169-0.379,0.061-0.559,0.524-0.541C310.213,318.209,310.869,318.191,311.524,318.191z"/>
		<path fill-rule="evenodd" clip-rule="evenodd" fill="#EAECEA" d="M177.518,280.6c0.031,4.014-0.554,4.832-3.03,4.3
			c-0.308-0.065-0.846-0.194-0.854-0.324c-0.043-0.623,0.531-0.476,0.894-0.533c0.786-0.126,1.869,0.092,2.136-0.818
			c0.342-1.164,1.808-2.91-1.047-3.167c-1.029-0.093-2.445,0.401-2.817-1.225c-0.106-0.463-0.178-1.299,0.03-1.409
			c0.988-0.525,0.568,0.726,0.965,0.889s0.969,0.188,1.362,0.025C177.875,277.22,179.111,277.509,177.518,280.6z"/>
		<path fill-rule="evenodd" clip-rule="evenodd" fill="#EAECEA" d="M232.945,152.525c2.353-2.297,4.855-2.232,7.392-0.376
			c0.483,0.354,1.042,1.096,0.657,1.666c-0.457,0.678-1.101,0.258-1.577-0.266c-1.774-1.946-3.715-1.545-5.703-0.385
			C233.458,152.951,233.201,152.738,232.945,152.525z"/>
		<path fill-rule="evenodd" clip-rule="evenodd" fill="#EAECEA" d="M173.647,262.435c1.252,2.527,2.484,1.854,3.706-0.026
			c0.224,0.197,0.537,0.353,0.656,0.601c0.334,0.696,0.02,1.366-0.505,1.74c-1.353,0.963-2.797,0.857-4.121-0.084
			c-0.556-0.396-0.764-1.085-0.468-1.754C173.013,262.69,173.389,262.594,173.647,262.435z"/>
		<path fill-rule="evenodd" clip-rule="evenodd" fill="#FDFDFD" d="M159.817,283.835c0.92-0.188,2.087,0.441,2.738-0.546
			c0.708-1.073,0.771-5.262,2.229-0.285c0.212,0.727,0.996,0.663,1.611,0.837c0.936,0.266,2.618-0.733,2.625,0.967
			c0.003,0.682-1.722,0.566-2.678,0.513c-2.593-0.144-5.229,0.463-7.778-0.434C158.981,284.536,159.399,284.186,159.817,283.835z"/>
		<path fill-rule="evenodd" clip-rule="evenodd" fill="#EAECEA" d="M173.445,272.025c0.471-0.834,1.275-0.883,2.094-0.875
			c1.802,0.016,2.948,0.979,2.49,2.71c-0.52,1.963-2.458,1.156-3.719,1.045c-2.552-0.225-1.838-1.632-0.769-2.978
			c0.192,1.45,0.783,2.44,2.474,2.023c0.243-0.06,0.623-0.422,0.595-0.587c-0.289-1.715-1.693-1.018-2.699-1.198
			C173.752,272.138,173.6,272.073,173.445,272.025z"/>
		<path fill-rule="evenodd" clip-rule="evenodd" fill="#EAECEA" d="M178.195,241.045c-0.32,1.361-0.906,1.985-2.089,1.917
			c-1.257-0.072-1.68-0.853-1.599-1.942c0.083-1.104,0.725-1.819,1.888-1.711C177.55,239.417,177.812,240.434,178.195,241.045z"/>
		<path fill-rule="evenodd" clip-rule="evenodd" fill="#EAECEA" d="M176.445,231.772c-1.149,0.083-1.907-0.509-2.046-1.574
			c-0.124-0.955,0.079-2.162,1.363-2.04c1.062,0.101,2.196,0.775,2.23,2.042C178.014,230.969,177.357,231.631,176.445,231.772z"/>
		<path fill-rule="evenodd" clip-rule="evenodd" fill="#EAECEA" d="M159.817,283.835c-0.417,0.351-0.835,0.701-1.253,1.052
			c-1.067-0.343-0.98-1.281-0.854-2.03c0.306-1.815-1.058-4.925,0.964-5.133c1.683-0.173,0.422,3.017,0.896,4.64
			C159.708,282.838,159.737,283.344,159.817,283.835z"/>
		<path fill-rule="evenodd" clip-rule="evenodd" fill="#EAECEA" d="M178.001,257.437c0.378,1.804-0.238,2.88-2.191,2.582
			c-1.823-0.277-1.618-1.573-1.147-2.877C175.775,257.24,176.888,257.338,178.001,257.437z"/>
		<path fill-rule="evenodd" clip-rule="evenodd" fill="#EAECEA" d="M162.507,319.004c2.885,2.307,2.996,4.541,0.414,8.378
			c-0.175-0.188-0.353-0.373-0.531-0.557c1.2-2.606,1.08-5.245,0.183-7.901L162.507,319.004z"/>
		<path fill-rule="evenodd" clip-rule="evenodd" fill="#EAECEA" d="M175.379,237.769c-0.82-0.165-2.291,0.214-2.15-0.3
			c0.455-1.665,2.233-0.757,3.403-1.141c0.532-0.175,1.612-0.036,1.254,0.874C177.413,238.403,176.15,237.471,175.379,237.769z"/>
		<path fill-rule="evenodd" clip-rule="evenodd" fill="#788678" d="M178.001,257.437c-1.113-0.099-2.226-0.196-3.338-0.295
			c-0.042-0.724-0.085-1.447-0.127-2.171c0.588-0.13,0.967-0.482,1.138-1.061C178.588,253.676,178.531,255.4,178.001,257.437z"/>
		<path fill-rule="evenodd" clip-rule="evenodd" fill="#EAECEA" d="M175.214,224.357c0.643,0.678,1.309,1.381,1.976,2.083
			c-0.418,0.143-0.83,0.38-1.255,0.409c-1.021,0.068-1.484-0.54-1.504-1.503C174.421,224.856,174.471,224.346,175.214,224.357z"/>
		<path fill-rule="evenodd" clip-rule="evenodd" fill="#EAECEA" d="M173.759,233.176c0.644-0.015,1.296-0.103,1.928-0.025
			c0.791,0.097,2.231-0.769,2.148,0.782c-0.054,0.997-1.274,0.345-2.001,0.352c-0.632,0.007-1.261,0.18-1.892,0.279
			C173.881,234.101,173.82,233.639,173.759,233.176z"/>
		<path fill-rule="evenodd" clip-rule="evenodd" fill="#EAECEA" d="M175.674,253.91c-0.171,0.578-0.55,0.931-1.138,1.061
			c-0.477-0.786-0.331-1.637,0.061-2.321c0.551-0.963,1.843-1.334,2.404-0.563C177.724,253.079,175.183,252.561,175.674,253.91z"/>
		<path fill-rule="evenodd" clip-rule="evenodd" fill="#EAECEA" d="M174.621,246.871c-0.03-0.638-0.061-1.275-0.091-1.914
			c1.174,0.343,2.149,0.986,2.925,1.932C176.51,246.883,175.565,246.877,174.621,246.871z"/>
		<path fill-rule="evenodd" clip-rule="evenodd" fill="#EAECEA" d="M168.109,262.698c-1.841,1.207-3.638,1.237-5.378-0.203
			c0.367-0.285,0.734-0.57,1.102-0.856c1.114-0.004,2.229-0.009,3.342-0.014C167.486,261.982,167.797,262.341,168.109,262.698z"/>
		<path fill-rule="evenodd" clip-rule="evenodd" fill="#EAECEA" d="M158.995,326.523c-0.957-1.975-0.961-4.029-0.482-6.114
			c0.25-1.084,0.866-1.678,2.059-1.396l-0.07-0.084c-1.218,2.18-0.963,4.522-0.76,6.859
			C159.492,326.033,159.244,326.279,158.995,326.523z"/>
		<path fill-rule="evenodd" clip-rule="evenodd" fill="#768476" d="M174.621,246.871c0.944,0.006,1.889,0.012,2.834,0.018
			c0.031,0.689,0.061,1.379,0.092,2.068c-1.093,0.251-2.125,0.035-3.123-0.42C174.49,247.981,174.555,247.426,174.621,246.871z"/>
		<path fill-rule="evenodd" clip-rule="evenodd" fill="#EAECEA" d="M174.424,248.537c0.998,0.455,2.029,0.671,3.123,0.42
			c-0.896,1.269-2.147,1.293-3.383,0.765C173.787,249.561,174.074,248.89,174.424,248.537z"/>
		<path fill-rule="evenodd" clip-rule="evenodd" fill="#EAECEA" d="M233.367,156.136c-1.553-1.039-1.097-2.312-0.422-3.611
			c0.256,0.213,0.513,0.426,0.769,0.64c0.18,0.707,0.36,1.413,0.54,2.12C233.958,155.568,233.663,155.852,233.367,156.136z"/>
		<path fill-rule="evenodd" clip-rule="evenodd" fill="#EAECEA" d="M160.571,319.014c0.637-1.483,1.285-1.191,1.937-0.011
			c0,0.001,0.065-0.079,0.065-0.079c-0.691,0.002-1.381,0.004-2.072,0.006L160.571,319.014z"/>
		<path fill-rule="evenodd" clip-rule="evenodd" fill="#788678" d="M173.759,233.176c0.061,0.463,0.122,0.924,0.183,1.387
			c-0.461,0.231-1.028,0.239-1.184-0.23C172.506,233.575,172.998,233.197,173.759,233.176z"/>
		<path fill-rule="evenodd" clip-rule="evenodd" fill="#EAECEA" d="M162.921,327.382c-0.943,0.814-1.926,0.732-2.932,0.132
			c0.219-0.196,0.424-0.405,0.617-0.627c0.595-0.021,1.189-0.041,1.784-0.062C162.568,327.009,162.746,327.194,162.921,327.382z"/>
		<path fill-rule="evenodd" clip-rule="evenodd" fill="#EAECEA" d="M245.556,322.016c0.021-0.664,0.141-1.225,1.027-0.979
			c0.001,0-0.102-0.121-0.102-0.121c-0.058,0.613-0.217,1.125-1.005,1.017L245.556,322.016z"/>
		<path fill-rule="evenodd" clip-rule="evenodd" fill="#EAECEA" d="M162.73,262.495c-0.248-0.258-0.496-0.516-0.743-0.773
			c0.312-0.361,0.624-0.723,0.936-1.083c0.509,0.146,0.8,0.49,0.909,1C163.465,261.925,163.098,262.21,162.73,262.495z"/>
		<path fill-rule="evenodd" clip-rule="evenodd" fill="#EAECEA" d="M159.989,327.514c-0.332-0.33-0.663-0.66-0.994-0.99
			c0.249-0.244,0.498-0.49,0.747-0.734c0.566,0.147,0.812,0.547,0.864,1.098C160.413,327.108,160.208,327.317,159.989,327.514z"/>
		<path fill-rule="evenodd" clip-rule="evenodd" fill="#EAECEA" d="M159.313,372.227c-3.643-2.796-4.277-6.118-1.637-8.879
			c0.559-0.585,1.328-0.945,2.08-0.147l-0.033-0.018c-2.917,4.159-2.909,4.342,0.335,8.146
			C159.81,371.628,159.562,371.928,159.313,372.227z"/>
		<path fill-rule="evenodd" clip-rule="evenodd" fill="#EAECEA" d="M159.346,352.18c-3.496-2.639-3.72-3.378-2.312-7.625
			c0.275,0.236,0.549,0.474,0.824,0.711c-0.611,2.534,0.183,4.535,2.289,6.038C159.88,351.596,159.613,351.888,159.346,352.18z"/>
		<path fill-rule="evenodd" clip-rule="evenodd" fill="#EAECEA" d="M165.792,342.692c3.48,3.855,3.471,5.429-0.051,8.464
			c-0.139-0.122-0.271-0.252-0.395-0.389c1.612-2.49,1.885-4.917-0.346-7.224C165.263,343.26,165.527,342.977,165.792,342.692z"/>
		<path fill-rule="evenodd" clip-rule="evenodd" fill="#EAECEA" d="M159.756,363.2c-0.867-1.377,0.308-1.753,1.146-1.92
			c2.45-0.486,4.459,0.331,5.862,2.464c-0.282,0.275-0.563,0.552-0.845,0.827c-1.73-1.958-3.906-1.926-6.195-1.389L159.756,363.2z"
			/>
		<path fill-rule="evenodd" clip-rule="evenodd" fill="#EAECEA" d="M159.725,343.219c-0.892-0.998-0.036-1.563,0.652-1.815
			c2.039-0.752,3.924-0.456,5.415,1.289c-0.264,0.284-0.528,0.567-0.792,0.852c-1.704-1.022-3.506-0.74-5.313-0.399L159.725,343.219
			z"/>
		<path fill-rule="evenodd" clip-rule="evenodd" fill="#EAECEA" d="M166.919,370.322c-1.793,3.597-4.527,3.439-7.606,1.904
			c0.248-0.299,0.496-0.599,0.745-0.897c2.497,1.138,4.403,0.011,6.181-1.612C166.467,369.917,166.693,370.119,166.919,370.322z"/>
		<path fill-rule="evenodd" clip-rule="evenodd" fill="#EAECEA" d="M165.74,351.156c-1.691,3.093-4.009,2.27-6.395,1.023
			c0.267-0.292,0.534-0.584,0.802-0.876c1.845,0.916,3.511,0.087,5.198-0.536C165.47,350.904,165.602,351.034,165.74,351.156z"/>
		<path fill-rule="evenodd" clip-rule="evenodd" fill="#EAECEA" d="M166.763,363.744c2.273,2.14,1.932,4.342,0.156,6.578
			c-0.226-0.203-0.453-0.405-0.68-0.605c0.401-1.747,0.653-3.485-0.321-5.146C166.2,364.296,166.481,364.02,166.763,363.744z"/>
		<path fill-rule="evenodd" clip-rule="evenodd" fill="#EAECEA" d="M157.034,344.555c0.574-1.097,1.002-2.486,2.691-1.336
			l-0.04-0.074c-0.609,0.707-1.218,1.414-1.827,2.121C157.583,345.028,157.309,344.791,157.034,344.555z"/>
		<path fill-rule="evenodd" clip-rule="evenodd" fill="#354A35" d="M236.48,204.906c5.996,0,11.996-0.13,17.987,0.053
			c3.154,0.097,5.056,2.194,5.203,4.992c0.15,2.853-1.516,4.955-4.626,5.568c-1.291,0.254-2.65,0.203-3.979,0.207
			c-6.83,0.018-13.659,0-20.489,0.012c-5.028,0.009-5.106,0.022-5.012,5.2c0.054,2.957-1.254,6.629,0.63,8.685
			c1.945,2.122,5.675,0.528,8.608,0.805c0.993,0.094,2.011,0.025,2.983,0.213c3.136,0.604,4.861,2.646,4.738,5.473
			c-0.121,2.785-2.028,4.767-5.2,5.006c-2.651,0.2-5.343,0.263-7.987,0.038c-3.199-0.272-3.98,1.092-3.861,4.057
			c0.208,5.154,0.071,10.324,0.049,15.488c-0.006,1.329,0.089,2.711-0.23,3.975c-0.685,2.704-2.453,4.342-5.378,4.26
			c-2.891-0.081-4.629-1.703-5.188-4.479c-0.227-1.125-0.128-2.322-0.128-3.487c-0.006-16.49-0.012-32.98-0.001-49.472
			c0.004-6.419,0.227-6.622,6.891-6.636c4.997-0.01,9.994-0.002,14.991-0.002C236.48,204.877,236.48,204.892,236.48,204.906z"/>
		<path fill-rule="evenodd" clip-rule="evenodd" fill="#354A35" d="M272.192,266.96c-3.495,0-6.993,0.096-10.484-0.021
			c-6.634-0.222-10.299-3.561-10.584-10.098c-0.269-6.146-0.264-12.32-0.003-18.467c0.269-6.327,3.875-9.878,10.14-10.052
			c7.318-0.204,14.646-0.063,21.969-0.042c0.821,0.003,1.677,0.095,2.458,0.334c2.713,0.834,4.205,2.667,3.973,5.564
			c-0.231,2.897-1.984,4.667-4.81,4.8c-4.65,0.22-9.317,0.063-13.976,0.138c-6.418,0.104-9.564,3.61-8.883,9.805
			c0.486,4.426,2.997,6.927,7.496,7.105c3.988,0.157,7.987,0.034,11.981,0.049c1.164,0.005,2.351-0.076,3.487,0.115
			c3.014,0.509,4.835,2.681,4.753,5.479c-0.082,2.796-1.972,5.012-5.039,5.183c-4.147,0.231-8.317,0.058-12.479,0.058
			C272.192,266.927,272.192,266.943,272.192,266.96z"/>
		<path fill-rule="evenodd" clip-rule="evenodd" fill="#EAECEA" d="M314.29,363.203c3.499-0.731,3.371,2.117,3.599,4.049
			c0.176,1.491-0.307,3.229-1.968,4.119c-0.251-0.243-0.502-0.486-0.753-0.729c1.867-2.73,1.438-5.198-0.846-7.457L314.29,363.203z"
			/>
		<path fill-rule="evenodd" clip-rule="evenodd" fill="#EAECEA" d="M307.275,363.75c1.524-2.34,3.641-3.201,6.307-2.341
			c0.705,0.228,1.499,0.795,0.708,1.794l0.032-0.019c-2.279-0.535-4.449-0.576-6.182,1.365
			C307.853,364.283,307.564,364.017,307.275,363.75z"/>
		<path fill-rule="evenodd" clip-rule="evenodd" fill="#EAECEA" d="M307.093,350.346c-2.123-3.738-2.069-4.095,1.148-7.645
			c0.279,0.271,0.558,0.543,0.836,0.814c-1.813,1.773-1.938,3.888-1.247,6.166C307.585,349.904,307.339,350.125,307.093,350.346z"/>
		<path fill-rule="evenodd" clip-rule="evenodd" fill="#EAECEA" d="M315.921,371.371c-4.127,2.746-5.89,2.536-8.792-1.045
			c0.223-0.206,0.445-0.411,0.668-0.616c2.212,2.253,4.652,2.694,7.371,0.932C315.419,370.885,315.67,371.128,315.921,371.371z"/>
		<path fill-rule="evenodd" clip-rule="evenodd" fill="#EAECEA" d="M308.241,342.701c1.543-1.775,3.454-2.087,5.54-1.235
			c0.663,0.271,1.401,0.853,0.536,1.753l0.04-0.073c-1.792-0.338-3.581-0.618-5.28,0.37
			C308.799,343.244,308.521,342.973,308.241,342.701z"/>
		<path fill-rule="evenodd" clip-rule="evenodd" fill="#EAECEA" d="M307.129,370.326c-1.778-2.233-2.127-4.435,0.146-6.576
			c0.289,0.267,0.577,0.533,0.865,0.8c-0.992,1.661-0.736,3.405-0.344,5.16C307.574,369.915,307.352,370.12,307.129,370.326z"/>
		<path fill-rule="evenodd" clip-rule="evenodd" fill="#EAECEA" d="M317.012,344.557c1.154,2.514,1.305,4.862-1.118,6.785
			c-0.261-0.25-0.521-0.5-0.781-0.75c0.966-1.653,1.644-3.365,1.07-5.328C316.459,345.027,316.735,344.792,317.012,344.557z"/>
		<path fill-rule="evenodd" clip-rule="evenodd" fill="#EAECEA" d="M315.894,351.342c-1.966,2.117-4.203,2.412-6.694,0.995
			c0.252-0.301,0.504-0.603,0.756-0.903c1.883,0.728,3.521-0.055,5.157-0.842C315.373,350.842,315.633,351.092,315.894,351.342z"/>
		<path fill-rule="evenodd" clip-rule="evenodd" fill="#EAECEA" d="M314.317,343.219c1.692-1.152,2.115,0.249,2.694,1.338
			c-0.276,0.235-0.553,0.471-0.829,0.707c-0.608-0.706-1.217-1.412-1.825-2.118L314.317,343.219z"/>
		<path fill-rule="evenodd" clip-rule="evenodd" fill="#EAECEA" d="M309.199,352.337c-0.489-0.225-0.98-0.446-0.87-1.132
			c0.115-0.152,0.241-0.295,0.377-0.43c0.416,0.22,0.832,0.439,1.249,0.658C309.703,351.734,309.451,352.036,309.199,352.337z"/>
		<path fill-rule="evenodd" clip-rule="evenodd" fill="#EAECEA" d="M308.329,351.205c-0.689,0.112-0.951-0.391-1.236-0.859
			c0.246-0.221,0.492-0.441,0.737-0.664c0.544,0.164,0.782,0.571,0.876,1.094C308.57,350.91,308.444,351.053,308.329,351.205z"/>
		<path fill-rule="evenodd" clip-rule="evenodd" fill="#EAECEA" d="M202.282,352.26c-4.448-3.307-4.651-5.292-0.974-9.509
			c0.28,0.273,0.56,0.546,0.84,0.818c-2.384,4.05-2.356,4.299,0.869,7.803C202.772,351.668,202.527,351.964,202.282,352.26z"/>
		<path fill-rule="evenodd" clip-rule="evenodd" fill="#EAECEA" d="M201.309,342.751c4.035-2.59,4.851-2.485,8.366,1.075
			c-0.28,0.287-0.56,0.574-0.84,0.862c-1.928-2.176-4.182-2.397-6.687-1.119C201.868,343.297,201.588,343.024,201.309,342.751z"/>
		<path fill-rule="evenodd" clip-rule="evenodd" fill="#EAECEA" d="M209.962,364.643c1.882,3.783,1.593,4.806-2.159,7.629
			c-0.257-0.289-0.515-0.578-0.772-0.868c2.222-1.538,2.838-3.658,2.247-6.213C209.497,364.996,209.725,364.813,209.962,364.643z"/>
		<path fill-rule="evenodd" clip-rule="evenodd" fill="#EAECEA" d="M209.675,343.826c2.521,2.791,1.85,5.273-0.732,7.569
			c-0.238-0.24-0.476-0.48-0.713-0.722c1.15-1.898,1.805-3.849,0.605-5.985C209.115,344.4,209.395,344.113,209.675,343.826z"/>
		<path fill-rule="evenodd" clip-rule="evenodd" fill="#EAECEA" d="M201.051,371.382c-2.732-2.298-3.223-4.801-0.691-7.577
			c0.29,0.271,0.579,0.542,0.869,0.813c-1.271,2.169-0.652,4.18,0.52,6.143C201.515,370.967,201.283,371.174,201.051,371.382z"/>
		<path fill-rule="evenodd" clip-rule="evenodd" fill="#EAECEA" d="M200.359,363.805c1.665-2.43,3.765-3.506,6.626-2.079
			c0.643,0.32,0.934,0.823,0.351,1.482l0.043-0.074c-2.28-0.459-4.464-0.518-6.152,1.483
			C200.938,364.347,200.649,364.075,200.359,363.805z"/>
		<path fill-rule="evenodd" clip-rule="evenodd" fill="#EAECEA" d="M207.803,372.271c-1.85,1.615-3.715,1.562-5.592,0.048
			c0.257-0.291,0.515-0.582,0.773-0.872c1.354,0.433,2.703,0.441,4.046-0.044C207.288,371.693,207.546,371.982,207.803,372.271z"/>
		<path fill-rule="evenodd" clip-rule="evenodd" fill="#EAECEA" d="M208.943,351.396c-1.992,2.054-4.201,2.422-6.661,0.864
			c0.245-0.296,0.49-0.592,0.735-0.888c1.876,0.805,3.539,0.009,5.212-0.698C208.467,350.915,208.705,351.155,208.943,351.396z"/>
		<path fill-rule="evenodd" clip-rule="evenodd" fill="#EAECEA" d="M207.336,363.208c1.731-1.09,2.186,0.16,2.626,1.435
			c-0.237,0.171-0.466,0.354-0.685,0.548c-0.632-0.686-1.265-1.371-1.897-2.057L207.336,363.208z"/>
		<path fill-rule="evenodd" clip-rule="evenodd" fill="#EAECEA" d="M202.211,372.319c-0.387-0.313-0.774-0.625-1.161-0.938
			c0.232-0.208,0.464-0.415,0.697-0.622c0.413,0.229,0.824,0.458,1.236,0.688C202.727,371.737,202.469,372.028,202.211,372.319z"/>
		<path fill-rule="evenodd" clip-rule="evenodd" fill="#EAECEA" d="M264.363,343.833c3.941-3.896,5.348-3.903,9.341-0.045
			c-0.279,0.286-0.559,0.571-0.837,0.857c-2.54-2.544-5.082-2.544-7.628-0.009C264.947,344.369,264.655,344.101,264.363,343.833z"/>
		<path fill-rule="evenodd" clip-rule="evenodd" fill="#EAECEA" d="M266.298,352.231c-3.99-2.972-4.264-4.157-1.935-8.398
			c0.292,0.268,0.584,0.536,0.876,0.804c-1.419,2.776-0.563,4.941,1.8,6.7C266.792,351.635,266.545,351.934,266.298,352.231z"/>
		<path fill-rule="evenodd" clip-rule="evenodd" fill="#EAECEA" d="M273.704,343.788c2.374,4.257,2.102,5.452-1.936,8.466
			c-0.256-0.29-0.512-0.58-0.768-0.871c2.442-1.74,3.245-3.937,1.866-6.737C273.146,344.359,273.425,344.074,273.704,343.788z"/>
		<path fill-rule="evenodd" clip-rule="evenodd" fill="#EAECEA" d="M266.245,372.276c-3.754-2.82-4.044-3.838-2.174-7.631
			c0.242,0.168,0.475,0.349,0.698,0.54c-0.596,2.547,0.014,4.663,2.222,6.208C266.742,371.688,266.494,371.982,266.245,372.276z"/>
		<path fill-rule="evenodd" clip-rule="evenodd" fill="#EAECEA" d="M264.071,364.646c2.91-4.147,4.444-4.479,8.635-1.866
			c-0.269,0.286-0.538,0.572-0.807,0.858c-2.831-1.575-5.141-0.751-7.13,1.548C264.546,364.994,264.313,364.813,264.071,364.646z"/>
		<path fill-rule="evenodd" clip-rule="evenodd" fill="#EAECEA" d="M273.254,365.166c1.462-0.951,1.699,0.4,1.857,1.18
			c0.426,2.095-0.102,3.914-2.125,5.037c-0.229-0.209-0.46-0.416-0.691-0.623c1.109-1.734,1.483-3.604,1.03-5.624L273.254,365.166z"
			/>
		<path fill-rule="evenodd" clip-rule="evenodd" fill="#EAECEA" d="M271.831,372.32c-1.873,1.509-3.736,1.567-5.586-0.044
			c0.249-0.294,0.497-0.589,0.746-0.883c1.349,0.49,2.705,0.493,4.066,0.054C271.315,371.738,271.573,372.029,271.831,372.32z"/>
		<path fill-rule="evenodd" clip-rule="evenodd" fill="#EAECEA" d="M271.769,352.254c-1.828,1.251-3.652,1.274-5.471-0.022
			c0.247-0.298,0.494-0.597,0.741-0.895c1.315,0.472,2.636,0.486,3.962,0.046C271.257,351.674,271.513,351.964,271.769,352.254z"/>
		<path fill-rule="evenodd" clip-rule="evenodd" fill="#EAECEA" d="M272.706,362.779c0.86,0.64,1.711,1.282,0.548,2.387l0.071-0.03
			c-0.476-0.5-0.95-0.999-1.426-1.498C272.168,363.352,272.438,363.065,272.706,362.779z"/>
		<path fill-rule="evenodd" clip-rule="evenodd" fill="#EAECEA" d="M272.986,371.383c-0.385,0.313-0.77,0.625-1.155,0.938
			c-0.258-0.291-0.516-0.582-0.773-0.873c0.412-0.229,0.824-0.458,1.237-0.688C272.526,370.967,272.757,371.174,272.986,371.383z"/>
		<path fill-rule="evenodd" clip-rule="evenodd" fill="#070707" d="M224.124,363.027c0.521,0.386,0.986,0.144,1.449-0.129
			c1.858-0.584,3.163,0.991,4.809,1.235l-0.028-0.03c0.625,2.251,0.096,4.492-0.059,6.736l0.072-0.129
			c-0.972-0.582-1.393,0.29-1.97,0.749c-1.238,0.454-2.501,0.436-3.776,0.207c-2.775-1.983-3.296-4.551-1.969-7.597l-0.067,0.039
			C223.342,364.097,223.807,363.668,224.124,363.027z"/>
		<path fill-rule="evenodd" clip-rule="evenodd" fill="#070707" d="M222.704,343.615c0.257-0.038,0.404-0.187,0.44-0.445
			c2.514-0.469,4.968-0.49,7.232,0.947l-0.018-0.018c0.493,2.744,0.913,5.469-1.973,7.299c-1.23,0.429-2.477,0.476-3.741,0.172
			C221.399,349.553,221.729,346.663,222.704,343.615z"/>
		<path fill-rule="evenodd" clip-rule="evenodd" fill="#EAECEA" d="M222.651,364.07c-1.327,3.046-0.806,5.613,1.969,7.597
			c-0.023,0.385-0.046,0.77-0.069,1.154c-3.848-2.063-5.04-4.46-3.776-7.837C221.046,364.261,221.598,363.487,222.651,364.07z"/>
		<path fill-rule="evenodd" clip-rule="evenodd" fill="#EAECEA" d="M222.704,343.615c-0.975,3.048-1.304,5.938,1.94,7.955
			c-0.029,0.407-0.058,0.814-0.087,1.222C219.556,349.799,218.929,346.692,222.704,343.615z"/>
		<path fill-rule="evenodd" clip-rule="evenodd" fill="#EAECEA" d="M228.385,351.398c2.886-1.83,2.466-4.555,1.973-7.299
			c2.692,0.305,2.249,2.409,1.987,3.993c-0.358,2.164-1.402,4.073-3.871,4.624C228.444,352.277,228.415,351.838,228.385,351.398z"/>
		<path fill-rule="evenodd" clip-rule="evenodd" fill="#EAECEA" d="M230.376,344.117c-2.264-1.438-4.718-1.416-7.232-0.947
			C226.432,339.951,228.615,340.237,230.376,344.117z"/>
		<path fill-rule="evenodd" clip-rule="evenodd" fill="#EAECEA" d="M230.294,370.84c0.154-2.244,0.683-4.485,0.059-6.736
			C233.37,366.392,233.356,367.907,230.294,370.84z"/>
		<path fill-rule="evenodd" clip-rule="evenodd" fill="#EAECEA" d="M230.381,364.134c-1.646-0.244-2.95-1.819-4.809-1.235
			c-0.322-0.619-0.471-1.416,0.342-1.538C228.106,361.03,230.106,361.263,230.381,364.134z"/>
		<path fill-rule="evenodd" clip-rule="evenodd" fill="#FDFDFD" d="M228.385,351.398c0.03,0.439,0.06,0.879,0.089,1.318
			c-1.298,0.441-2.604,0.459-3.917,0.075c0.029-0.407,0.058-0.814,0.087-1.222C225.908,351.874,227.155,351.827,228.385,351.398z"/>
		<path fill-rule="evenodd" clip-rule="evenodd" fill="#FDFDFD" d="M224.551,372.821c0.023-0.385,0.046-0.77,0.069-1.154
			c1.275,0.229,2.539,0.247,3.776-0.207c0.027,0.436,0.054,0.87,0.082,1.306C227.175,373.193,225.866,373.219,224.551,372.821z"/>
		<path fill-rule="evenodd" clip-rule="evenodd" fill="#EAECEA" d="M228.479,372.766c-0.027-0.436-0.054-0.87-0.082-1.306
			c0.577-0.459,0.998-1.331,1.97-0.749C230.581,372.171,229.533,372.472,228.479,372.766z"/>
		<path fill-rule="evenodd" clip-rule="evenodd" fill="#EAECEA" d="M224.124,363.027c-0.316,0.641-0.781,1.069-1.539,1.082
			C222.424,362.792,223.134,362.711,224.124,363.027z"/>
		<path fill-rule="evenodd" clip-rule="evenodd" fill="#070707" d="M250.899,343.168c0.034,0.26,0.182,0.409,0.439,0.447
			c0.976,3.048,1.304,5.938-1.939,7.954c-1.264,0.305-2.511,0.258-3.74-0.17c-3.437-2.388-2.499-5.298-0.988-8.276l-0.013,0.012
			C246.74,342.77,248.82,342.872,250.899,343.168z"/>
		<path fill-rule="evenodd" clip-rule="evenodd" fill="#070707" d="M248.471,362.898c0.464,0.273,0.931,0.513,1.457,0.143
			c3.114,4.238,3.079,4.833-0.505,8.626c-1.276,0.229-2.539,0.247-3.777-0.207c-0.576-0.461-0.998-1.327-1.969-0.747l0.072,0.127
			c-0.155-2.244-0.684-4.485-0.06-6.736l-0.027,0.03C245.308,363.891,246.611,362.313,248.471,362.898z"/>
		<path fill-rule="evenodd" clip-rule="evenodd" fill="#EAECEA" d="M249.423,371.667c3.584-3.793,3.619-4.388,0.505-8.626
			c3.552,0.834,4.853,3.938,3.006,7.247c-0.754,1.351-1.758,2.422-3.443,2.533C249.468,372.437,249.445,372.052,249.423,371.667z"/>
		<path fill-rule="evenodd" clip-rule="evenodd" fill="#EAECEA" d="M244.671,343.123c-1.511,2.979-2.448,5.889,0.988,8.276
			c-0.031,0.438-0.063,0.877-0.094,1.315c-4.112-2.616-5.15-5.677-2.965-8.892C243.071,343.132,243.724,342.59,244.671,343.123z"/>
		<path fill-rule="evenodd" clip-rule="evenodd" fill="#EAECEA" d="M249.399,351.569c3.243-2.017,2.915-4.906,1.939-7.954
			c3.775,3.078,3.147,6.186-1.854,9.177C249.456,352.385,249.428,351.978,249.399,351.569z"/>
		<path fill-rule="evenodd" clip-rule="evenodd" fill="#EAECEA" d="M243.689,364.104c-0.624,2.251-0.096,4.492,0.06,6.736
			C240.687,367.908,240.673,366.393,243.689,364.104z"/>
		<path fill-rule="evenodd" clip-rule="evenodd" fill="#EAECEA" d="M250.899,343.168c-2.079-0.296-4.159-0.398-6.241-0.033
			C246.865,340.224,247.921,340.229,250.899,343.168z"/>
		<path fill-rule="evenodd" clip-rule="evenodd" fill="#EAECEA" d="M248.471,362.898c-1.859-0.585-3.163,0.992-4.809,1.235
			c0.274-2.872,2.274-3.104,4.466-2.773C248.941,361.482,248.792,362.279,248.471,362.898z"/>
		<path fill-rule="evenodd" clip-rule="evenodd" fill="#FDFDFD" d="M249.399,351.569c0.028,0.408,0.057,0.815,0.085,1.223
			c-1.314,0.384-2.621,0.367-3.919-0.076c0.031-0.439,0.063-0.878,0.094-1.316C246.889,351.827,248.136,351.874,249.399,351.569z"/>
		<path fill-rule="evenodd" clip-rule="evenodd" fill="#FDFDFD" d="M249.423,371.667c0.022,0.385,0.045,0.77,0.067,1.154
			c-1.313,0.397-2.621,0.372-3.924-0.055c0.026-0.436,0.053-0.871,0.079-1.307C246.884,371.914,248.146,371.896,249.423,371.667z"/>
		<path fill-rule="evenodd" clip-rule="evenodd" fill="#EAECEA" d="M245.646,371.46c-0.026,0.436-0.053,0.871-0.079,1.307
			c-1.057-0.292-2.1-0.595-1.89-2.054C244.647,370.133,245.069,370.999,245.646,371.46z"/>
		<path fill-rule="evenodd" clip-rule="evenodd" fill="#EAECEA" d="M288.563,352.737c-4.133-2.566-5.141-5.497-3.033-8.822
			c1.97-3.109,4.628-3.545,8.365-1.371c-0.214,0.24-0.43,0.479-0.646,0.717c-2.521-0.699-5.071-0.947-6.49,1.768
			c-1.335,2.554-0.375,4.757,1.907,6.406C288.631,351.869,288.597,352.303,288.563,352.737z"/>
		<path fill-rule="evenodd" clip-rule="evenodd" fill="#EAECEA" d="M286.337,371.155c-2.27-3.367-2.344-5.515-0.276-7.943
			c2.063-2.423,4.291-2.618,7.813-0.684c-0.221,0.266-0.441,0.53-0.662,0.796c-6.269-0.882-7.9,0.999-6.062,6.985
			C286.879,370.592,286.608,370.873,286.337,371.155z"/>
		<path fill-rule="evenodd" clip-rule="evenodd" fill="#EAECEA" d="M293.873,362.528c4.206,4.118,3.76,7.414-1.392,10.282
			c-0.022-0.394-0.045-0.786-0.067-1.179c3.452-3.709,3.482-4.023,0.797-8.308C293.432,363.059,293.652,362.794,293.873,362.528z"/>
		<path fill-rule="evenodd" clip-rule="evenodd" fill="#EAECEA" d="M294.948,343.62c2.769,4.061,2.13,6.424-2.475,9.16
			c-0.028-0.415-0.058-0.83-0.087-1.244c2.756-1.903,3.247-4.393,1.904-7.357C294.503,343.984,294.723,343.799,294.948,343.62z"/>
		<path fill-rule="evenodd" clip-rule="evenodd" fill="#FDFDFD" d="M292.387,351.536c0.029,0.414,0.059,0.829,0.087,1.244
			c-1.309,0.393-2.612,0.379-3.912-0.043c0.035-0.435,0.069-0.868,0.104-1.303C289.896,351.837,291.137,351.87,292.387,351.536z"/>
		<path fill-rule="evenodd" clip-rule="evenodd" fill="#FDFDFD" d="M292.414,371.632c0.022,0.393,0.045,0.785,0.067,1.179
			c-1.311,0.404-2.617,0.391-3.92-0.034c0.027-0.418,0.055-0.837,0.082-1.255C289.891,371.898,291.148,371.903,292.414,371.632z"/>
		<path fill-rule="evenodd" clip-rule="evenodd" fill="#EAECEA" d="M288.644,371.521c-0.027,0.418-0.055,0.837-0.082,1.255
			c-1.051-0.116-1.741-0.727-2.224-1.622c0.271-0.281,0.541-0.563,0.812-0.845C287.647,370.714,288.146,371.117,288.644,371.521z"/>
		<path fill-rule="evenodd" clip-rule="evenodd" fill="#EAECEA" d="M293.895,342.544c0.351,0.358,0.702,0.718,1.054,1.076
			c-0.226,0.179-0.445,0.364-0.657,0.559c-0.542-0.084-0.924-0.352-1.042-0.918C293.465,343.023,293.681,342.784,293.895,342.544z"
			/>
		<path fill-rule="evenodd" clip-rule="evenodd" fill="#EAECEA" d="M180.148,342.54c3.742-2.169,6.398-1.732,8.367,1.377
			c2.105,3.327,1.097,6.256-3.037,8.821c-0.035-0.434-0.07-0.867-0.105-1.301c2.282-1.648,3.247-3.851,1.912-6.407
			c-1.417-2.716-3.97-2.469-6.491-1.77C180.577,343.021,180.362,342.781,180.148,342.54z"/>
		<path fill-rule="evenodd" clip-rule="evenodd" fill="#EAECEA" d="M179.119,363.563c3.042-2.916,5.564-3.248,8.125-1.071
			c2.762,2.347,2.906,5.024,0.465,8.66c-0.277-0.275-0.554-0.55-0.831-0.824c1.189-2.181,1.575-4.359-0.422-6.269
			c-2.222-2.126-4.479-1.21-6.678,0.147C179.559,363.991,179.339,363.777,179.119,363.563z"/>
		<path fill-rule="evenodd" clip-rule="evenodd" fill="#EAECEA" d="M181.561,372.81c-4.656-2.578-5.243-4.799-2.442-9.247
			c0.22,0.215,0.44,0.429,0.659,0.644c-1.446,2.988-0.814,5.46,1.851,7.426C181.606,372.024,181.583,372.417,181.561,372.81z"/>
		<path fill-rule="evenodd" clip-rule="evenodd" fill="#EAECEA" d="M181.567,352.779c-4.704-2.774-5.304-5.003-2.467-9.159
			c0.223,0.179,0.44,0.365,0.651,0.559c-1.382,2.974-0.842,5.45,1.902,7.355C181.625,351.949,181.596,352.364,181.567,352.779z"/>
		<path fill-rule="evenodd" clip-rule="evenodd" fill="#FDFDFD" d="M181.567,352.779c0.029-0.415,0.058-0.83,0.087-1.245
			c1.249,0.337,2.489,0.302,3.719-0.097c0.035,0.434,0.07,0.867,0.105,1.301C184.179,353.158,182.875,353.173,181.567,352.779z"/>
		<path fill-rule="evenodd" clip-rule="evenodd" fill="#FDFDFD" d="M181.561,372.81c0.022-0.393,0.045-0.785,0.068-1.178
			c1.266,0.271,2.524,0.267,3.771-0.111c0.028,0.418,0.056,0.837,0.083,1.256C184.179,373.201,182.871,373.215,181.561,372.81z"/>
		<path fill-rule="evenodd" clip-rule="evenodd" fill="#EAECEA" d="M185.482,372.776c-0.027-0.419-0.055-0.838-0.083-1.256
			c0.493-0.397,0.986-0.795,1.479-1.193c0.276,0.274,0.553,0.549,0.831,0.824C187.224,372.046,186.535,372.659,185.482,372.776z"/>
		<path fill-rule="evenodd" clip-rule="evenodd" fill="#EAECEA" d="M179.101,343.62c0.35-0.36,0.699-0.72,1.048-1.08
			c0.214,0.241,0.429,0.481,0.645,0.721c-0.118,0.566-0.5,0.834-1.042,0.918C179.541,343.985,179.324,343.799,179.101,343.62z"/>
		<path fill-rule="evenodd" clip-rule="evenodd" fill="#354A35" d="M252.551,157.97c-0.429,2.549-0.813,5.016-4.424,4.749
			c-1.829-0.137-2.617-0.705-2.614-2.616c0.004-1.737,0.719-2.332,2.338-2.231c1.597,0.101,3.198,0.135,4.798,0.198L252.551,157.97z
			"/>
		<path fill-rule="evenodd" clip-rule="evenodd" fill="#354A35" d="M248.354,156.258c-1.462-0.021-2.827,0.123-2.801-1.906
			c0.025-1.897,1.228-2.131,2.635-2.007c1.38,0.123,3.306-0.241,3.312,1.94C251.505,156.452,249.621,156.097,248.354,156.258z"/>
		<path fill-rule="evenodd" clip-rule="evenodd" fill="#354A35" d="M168.025,203.753c-0.019,1.681-0.667,2.888-2.526,2.859
			c-1.79-0.028-2.523-1.16-2.614-2.858c-0.112-2.1,1.216-2.33,2.838-2.347C167.359,201.389,168.14,202.103,168.025,203.753z"/>
		<path fill-rule="evenodd" clip-rule="evenodd" fill="#354A35" d="M162.442,246.028c0.561,0.6,1.822-0.33,2,0.714
			c0.166,0.973,0.867,2.621-0.544,2.85c-1.14,0.186-1.008-1.414-0.936-2.352c0.042-0.55-0.095-0.928-0.443-1.289L162.442,246.028z"
			/>
		<path fill-rule="evenodd" clip-rule="evenodd" fill="#354A35" d="M167.884,269.891c0.035,0.689-0.197,1.639-0.722,1.624
			c-0.569-0.017-0.655-0.969-0.659-1.639c-0.004-0.671,0.063-1.604,0.693-1.604C167.789,268.273,167.938,269.207,167.884,269.891z"
			/>
		<path fill-rule="evenodd" clip-rule="evenodd" fill="#354A35" d="M167.869,225.486c0.039,0.929-0.081,1.86-0.636,1.917
			c-0.659,0.067-0.7-0.831-0.717-1.444c-0.019-0.645-0.042-1.568,0.601-1.642C167.777,224.24,167.906,225.099,167.869,225.486z"/>
		<path fill-rule="evenodd" clip-rule="evenodd" fill="#354A35" d="M291.685,324.915c-0.217,0.957-0.551,1.951-1.852,1.592
			c-1.097-0.302-1.426-1.218-1.272-2.321c0.137-0.979,0.798-1.485,1.658-1.436C291.462,322.822,291.717,323.795,291.685,324.915z"/>
		<path fill-rule="evenodd" clip-rule="evenodd" fill="#354A35" d="M224.17,320.61c0.574-0.907,1.343-1.756,2.276-0.65
			c0.701,0.83-0.049,1.462-0.932,1.757C225.066,321.348,224.619,320.979,224.17,320.61z"/>
		<path fill-rule="evenodd" clip-rule="evenodd" fill="#354A35" d="M163.832,261.639c-0.109-0.51-0.4-0.854-0.909-1
			c0.281-1.308-0.9-3.133,1.181-3.79c1.081-0.342,2.5-0.582,3.301,0.247c1.376,1.423,0.48,3.041-0.231,4.529
			C166.061,261.63,164.946,261.635,163.832,261.639z"/>
		<path fill-rule="evenodd" clip-rule="evenodd" fill="#354A35" d="M245.477,321.933c0.788,0.108,0.947-0.403,1.005-1.017
			c1.623,0.416,1.258,1.593,0.896,2.633c-0.092,0.264-0.869,0.533-1.208,0.422C245.155,323.637,245.654,322.642,245.477,321.933z"/>
		<path fill-rule="evenodd" clip-rule="evenodd" fill="#354A35" d="M173.445,272.025c0.155,0.048,0.308,0.112,0.466,0.141
			c1.006,0.181,2.41-0.517,2.699,1.198c0.028,0.165-0.353,0.527-0.595,0.587c-1.69,0.417-2.281-0.573-2.474-2.023L173.445,272.025z"
			/>
		<path fill-rule="evenodd" clip-rule="evenodd" fill="#354A35" d="M160.605,326.887c-0.052-0.551-0.298-0.95-0.864-1.098
			c-0.203-2.337-0.458-4.68,0.76-6.859c0.69-0.002,1.381-0.004,2.072-0.006c0.896,2.656,1.017,5.295-0.183,7.901
			C161.795,326.846,161.2,326.866,160.605,326.887z"/>
		<path fill-rule="evenodd" clip-rule="evenodd" fill="#070707" d="M165.918,364.571c0.975,1.66,0.723,3.398,0.321,5.146
			c-1.778,1.623-3.684,2.75-6.181,1.612c-3.245-3.805-3.252-3.987-0.335-8.146C162.012,362.646,164.188,362.613,165.918,364.571z"/>
		<path fill-rule="evenodd" clip-rule="evenodd" fill="#070707" d="M157.858,345.266c0.609-0.707,1.218-1.414,1.827-2.121
			c1.807-0.341,3.609-0.623,5.313,0.399c2.231,2.307,1.958,4.733,0.346,7.224c-1.687,0.623-3.353,1.452-5.198,0.536
			C158.041,349.801,157.247,347.8,157.858,345.266z"/>
		<path fill-rule="evenodd" clip-rule="evenodd" fill="#070707" d="M307.797,369.71c-0.393-1.755-0.648-3.499,0.344-5.16
			c1.732-1.941,3.902-1.9,6.182-1.365c2.283,2.259,2.713,4.727,0.846,7.457C312.449,372.404,310.009,371.963,307.797,369.71z"/>
		<path fill-rule="evenodd" clip-rule="evenodd" fill="#070707" d="M308.706,350.775c-0.094-0.522-0.332-0.93-0.876-1.094
			c-0.691-2.278-0.565-4.393,1.247-6.166c1.699-0.988,3.488-0.708,5.28-0.37c0.608,0.706,1.217,1.412,1.825,2.118
			c0.573,1.963-0.104,3.675-1.07,5.328c-1.637,0.787-3.274,1.569-5.157,0.842C309.538,351.215,309.122,350.995,308.706,350.775z"/>
		<path fill-rule="evenodd" clip-rule="evenodd" fill="#070707" d="M208.229,350.674c-1.674,0.707-3.336,1.503-5.212,0.698
			c-3.225-3.504-3.252-3.753-0.869-7.803c2.504-1.278,4.759-1.057,6.687,1.119C210.035,346.825,209.38,348.775,208.229,350.674z"/>
		<path fill-rule="evenodd" clip-rule="evenodd" fill="#070707" d="M202.984,371.447c-0.412-0.229-0.824-0.458-1.236-0.688
			c-1.172-1.963-1.791-3.974-0.52-6.143c1.688-2.001,3.872-1.942,6.152-1.483c0.633,0.686,1.265,1.371,1.897,2.057
			c0.591,2.555-0.024,4.675-2.247,6.213C205.687,371.889,204.338,371.88,202.984,371.447z"/>
		<path fill-rule="evenodd" clip-rule="evenodd" fill="#070707" d="M271.001,351.383c-1.326,0.44-2.646,0.426-3.962-0.046
			c-2.363-1.759-3.219-3.924-1.8-6.7c2.546-2.535,5.088-2.535,7.628,0.009C274.246,347.446,273.443,349.643,271.001,351.383z"/>
		<path fill-rule="evenodd" clip-rule="evenodd" fill="#070707" d="M272.295,370.76c-0.413,0.229-0.825,0.459-1.237,0.688
			c-1.361,0.439-2.718,0.437-4.066-0.054c-2.208-1.545-2.817-3.661-2.222-6.208c1.989-2.299,4.299-3.123,7.13-1.548
			c0.476,0.499,0.95,0.998,1.426,1.498C273.778,367.155,273.404,369.025,272.295,370.76z"/>
		<path fill-rule="evenodd" clip-rule="evenodd" fill="#070707" d="M293.249,343.261c0.118,0.566,0.5,0.834,1.042,0.918
			c1.343,2.965,0.852,5.454-1.904,7.357c-1.25,0.334-2.49,0.301-3.721-0.102c-2.282-1.649-3.242-3.853-1.907-6.406
			C288.178,342.313,290.729,342.562,293.249,343.261z"/>
		<path fill-rule="evenodd" clip-rule="evenodd" fill="#070707" d="M288.644,371.521c-0.498-0.404-0.996-0.808-1.494-1.212
			c-1.839-5.986-0.207-7.867,6.062-6.985c2.686,4.284,2.655,4.599-0.797,8.308C291.148,371.903,289.891,371.898,288.644,371.521z"/>
		<path fill-rule="evenodd" clip-rule="evenodd" fill="#070707" d="M179.752,344.179c0.542-0.084,0.924-0.352,1.042-0.918
			c2.521-0.699,5.074-0.946,6.491,1.77c1.335,2.557,0.371,4.759-1.912,6.407c-1.23,0.398-2.47,0.434-3.719,0.097
			C178.91,349.629,178.37,347.152,179.752,344.179z"/>
		<path fill-rule="evenodd" clip-rule="evenodd" fill="#070707" d="M186.878,370.327c-0.493,0.398-0.986,0.796-1.479,1.193
			c-1.247,0.378-2.505,0.383-3.771,0.111c-2.665-1.966-3.296-4.438-1.851-7.426c2.199-1.357,4.456-2.273,6.678-0.147
			C188.453,365.968,188.067,368.146,186.878,370.327z"/>
	</g>
</g>
</svg>
