<?xml version="1.0" encoding="utf-8"?>
<!-- Generator: Adobe Illustrator 16.0.0, SVG Export Plug-In . SVG Version: 6.00 Build 0)  -->
<!DOCTYPE svg PUBLIC "-//W3C//DTD SVG 1.1//EN" "http://www.w3.org/Graphics/SVG/1.1/DTD/svg11.dtd">
<svg version="1.1" id="Layer_1" xmlns="http://www.w3.org/2000/svg" xmlns:xlink="http://www.w3.org/1999/xlink" x="0px" y="0px"
	 width="612px" height="792px" viewBox="0 0 612 792" enable-background="new 0 0 612 792" xml:space="preserve">
<g>
	<g>
		<path fill-rule="evenodd" clip-rule="evenodd" fill="#FEFEFE" d="M392.28,437.92c0,30.44-0.005,60.88,0.022,91.32
			c0.001,0.899-0.203,1.103-1.103,1.103c-56.96-0.025-113.92-0.025-170.88,0c-0.899,0-1.103-0.203-1.103-1.103
			c0.027-30.44,0.023-60.88,0.023-91.32c0.547,0.205,0.587,0.685,0.662,1.17c0.695,4.567,3.199,7.6,7.486,9.419
			c3.266,1.386,6.667,1.661,10.062,1.666c45.416,0.063,90.832,0.045,136.248,0.04c2.553-0.001,5.134-0.104,7.589-0.757
			c5.465-1.454,9.181-3.884,10.342-10.213C391.719,438.749,391.725,438.195,392.28,437.92z"/>
		<path fill-rule="evenodd" clip-rule="evenodd" fill="#FEFEFE" d="M219.24,340.72c0-25.84,0.005-51.68-0.023-77.52
			c-0.001-0.822,0.161-0.983,0.983-0.983c57.04,0.025,114.08,0.025,171.12,0c0.821,0,0.983,0.161,0.982,0.983
			c-0.027,25.92-0.022,51.84-0.022,77.76c-0.591-0.009-0.671-0.412-0.748-0.886c-0.587-3.603-2.781-5.961-5.86-7.699
			c-3.374-1.904-7.103-2.146-10.787-2.15c-45.557-0.064-91.113-0.049-136.67-0.064c-2.596-0.001-5.177,0.115-7.75,0.486
			c-4.829,0.697-9.695,3.85-10.495,9.306C219.904,340.403,219.752,340.72,219.24,340.72z"/>
		<path fill-rule="evenodd" clip-rule="evenodd" fill="#304630" d="M219.24,432.16c0-27.28,0-54.56,0-81.84
			c0.45,0.001,0.473-0.312,0.506-0.651c0.151-1.586,0.313-3.171,0.478-4.755c0.301-2.92,1.147-5.597,3.24-7.793
			c2.612-2.742,5.989-3.554,9.545-3.772c3.385-0.208,6.784-0.231,10.177-0.253c5.034-0.032,10.069,0.144,15.101,0.154
			c38.318,0.072,76.637,0.055,114.955,0.053c2.478,0,4.945,0.109,7.39,0.499c2.806,0.446,5.39,1.404,7.39,3.547
			c0.229,0.246,0.669,0.434,0.507,0.863c-0.144,0.384-0.599,0.435-0.924,0.46c-1.113,0.085-2.233,0.119-3.351,0.12
			c-41.438,0.005-82.877,0.063-124.314-0.069c-5.334-0.017-9.427,3.683-9.061,9.127c0.276,4.102,0.055,8.236,0.055,12.356
			c0,22.959,0,45.918-0.001,68.877c0,1.281-0.056,2.595,0.574,3.75c1.705,3.124,4.22,4.871,7.935,4.869
			c42.838-0.027,85.677-0.018,128.515-0.011c0.771,0,1.517-0.038,2.213-0.404c0.84-0.442,0.982,0.021,0.842,0.702
			c-0.778,3.764-2.935,6.455-6.371,8.157c-3.005,1.489-6.286,1.508-9.476,1.513c-44.958,0.066-89.916,0.046-134.874,0.059
			c-3.273,0.001-6.543-0.087-9.788-0.503c-4.284-0.551-7.339-2.885-9.215-6.749c-1.142-2.353-1.066-4.966-1.489-7.472
			C219.735,432.632,219.901,432.119,219.24,432.16z M233.166,359.597c1.03,0.63,2.69,0.455,3.388-0.357
			c0.643-0.319,0.957-0.974,1.465-1.431c0.75-0.164,0.69-0.795,0.707-1.324c0.036-1.158,0.015-2.318,0.011-3.478
			c-0.007-1.76-0.437-2.223-2.177-2.236c-2.718-0.02-5.437-0.003-8.154-0.011c-0.487-0.001-0.962,0.049-1.406,0.245
			c-0.725,0.319-0.84,0.98-0.26,1.513c0.365,0.335,0.818,0.46,1.317,0.494c1.54,0.104,1.672,0.258,1.668,1.792
			c-0.001,0.6-0.037,1.202,0.005,1.798c0.036,0.502,0.054,1.062,0.712,1.22c0.272,0.294,0.544,0.588,0.816,0.883
			c0.14,0.914,0.697,1.099,1.498,0.856C232.892,359.572,233.029,359.585,233.166,359.597z M234.186,371.157c0-0.003,0-0.008,0-0.011
			c0.998,0,1.999,0.05,2.993-0.016c0.799-0.054,1.591-0.425,1.598-1.305c0.007-0.918-0.774-1.218-1.613-1.228
			c-1.078-0.012-2.155-0.008-3.233-0.006c-0.811,0.001-1.647,0.085-1.78-1.072c-0.238-2.08,0.125-2.78,1.445-3.16
			c1.232-0.354,2.437,0.176,3.677-0.089c0.87-0.186,1.505-0.496,1.516-1.361c0.013-0.978-0.836-1.194-1.617-1.225
			c-1.315-0.052-2.637-0.071-3.95,0.001c-1.79,0.098-3.748,2.012-3.817,3.699c-0.05,1.235-0.041,2.476,0,3.711
			c0.041,1.25,0.891,2.04,2.148,2.06C232.429,371.168,233.308,371.157,234.186,371.157z M232.546,437.17
			c1.557,0,3.114,0.01,4.671-0.004c0.77-0.007,1.327-0.382,1.438-1.159c0.128-0.896-0.545-1.19-1.249-1.289
			c-0.706-0.1-1.435-0.13-2.145-0.079c-1.029,0.073-1.599-0.18-1.471-1.368c0.097-0.9-0.216-1.82-1.188-1.929
			c-1.027-0.114-1.392,0.725-1.425,1.672c-0.007,0.197-0.099,0.395-0.091,0.589c0.03,0.789-0.286,1.238-1.123,1.148
			c-0.797-0.085-1.47-0.256-1.4-1.346c0.082-1.272,0.016-2.554,0.029-3.831c0.008-0.809-0.178-1.453-1.154-1.459
			c-1.009-0.007-1.423,0.565-1.422,1.518c0.001,1.837-0.015,3.674,0.006,5.51c0.016,1.346,0.635,1.99,1.972,2.021
			C229.511,437.199,231.029,437.172,232.546,437.17z M235.107,339.386c0,0.003,0,0.005,0,0.008c-1.279,0-2.561-0.049-3.837,0.017
			c-0.883,0.046-1.681,0.397-1.792,1.427c-0.076,0.701,0.914,1.43,1.904,1.458c0.799,0.023,1.599,0.01,2.398,0.009
			c2.41-0.004,2.371-0.005,2.38,2.431c0.004,1.165-0.562,1.578-1.609,1.582c-1,0.003-1.999-0.01-2.999,0.004
			c-1.165,0.016-2.049,0.621-2.081,1.398c-0.028,0.708,0.912,1.304,2.118,1.319c1.08,0.014,2.159,0.009,3.238,0.006
			c2.769-0.006,4.538-2.025,4.166-4.76c-0.057-0.42-0.332-1.002,0.272-1.094c0.516-0.079,0.461,0.551,0.508,0.917
			c0.126,0.991,0.558,1.503,1.652,1.342c0.955-0.14,1.093-0.854,1.2-1.556c0.304-1.992-1.887-4.429-4.041-4.502
			C237.427,339.354,236.267,339.386,235.107,339.386z M239.065,409.663c0-0.668,0.003-1.228,0-1.787
			c-0.012-1.634-0.178-1.85-1.771-2.117c-1.66-0.279-3.319,0.155-5.006-0.042c-1.727-0.201-3.506-0.23-5.251,0.122
			c-0.474,0.096-0.851,0.266-0.949,0.765c-0.105,0.535-0.006,1.011,0.439,1.409c0.396,0.354,0.888,0.362,1.342,0.446
			c1.639,0.307,1.73,0.411,1.442,2.092c-0.299,1.749,1.516,4.466,3.291,4.674c2.029,0.239,3.955,0.258,5.547-1.618
			C239.269,412.286,238.95,410.94,239.065,409.663z M239.056,420.973c0-0.852,0.045-1.454-0.009-2.048
			c-0.148-1.638-0.628-2.06-2.282-2.073c-0.958-0.008-1.926,0.1-2.869-0.015c-1.737-0.209-2.925,0.63-3.855,1.904
			c-1.061,1.453-0.752,3.111-0.406,4.705c0.115,0.53,0.566,0.955,1.233,0.954c0.74-0.001,0.862-0.574,1.069-1.094
			c0.309-0.775,0.133-1.578,0.173-2.369c0.021-0.401,0.019-0.951,0.498-0.945c0.588,0.008,0.394,0.614,0.358,0.952
			c-0.178,1.726,0.144,3.186,1.624,4.338c1.167,0.909,1.605,0.959,2.801,0.025C238.933,424.105,239.274,422.528,239.056,420.973z
			 M239.065,399.421c0-0.08,0-0.16,0-0.24c-0.003-2.702-0.052-2.745-2.692-2.227c-0.408,0.08-0.599-0.099-0.654-0.48
			c-0.075-0.527,0.133-1.158-0.55-1.459c-0.552-0.244-1.114-0.411-1.729-0.412c-1.648-0.001-3.901,1.783-4.21,3.355
			c-0.482,2.455,0.702,5.15,2.633,6.005C235.399,405.527,239.678,403.166,239.065,399.421z M232.586,376.304
			c0.331,0.301,0.252,0.693,0.204,1.024c-0.313,2.143,0.945,3.417,2.458,4.567c0.282,0.214,0.568,0.241,0.899,0.157
			c1.282-0.324,2.875-2.172,2.909-3.467c0.036-1.396,0.008-2.794,0-4.19c-0.005-1.068-0.553-1.635-1.617-1.656
			c-1.237-0.024-2.481,0.066-3.71-0.035c-3.588-0.295-5.586,4.017-4.092,7.027c0.259,0.521,0.65,0.759,1.248,0.727
			c0.574-0.031,0.846-0.381,1.051-0.838c0.309-0.687,0.127-1.417,0.184-2.127C232.155,377.06,231.927,376.5,232.586,376.304z
			 M245.2,402.744c-0.908,0.164-1.926,0.145-2.303,1.308c-0.374,1.153-0.391,2.173,0.812,2.919c0.846,0.525,0.186,0.867-0.235,1.227
			c-0.798,0.679-0.973,1.503-0.553,2.471c0.414,0.954,1.196,1.231,2.14,1.169c0.968-0.063,1.669-0.632,2.012-1.478
			c0.324-0.8,0.05-1.539-0.646-2.13c-0.286-0.242-0.939-0.521-0.518-1.017c1.087-1.275,0.433-1.628-0.819-1.765
			c-0.308-0.033-0.539-0.211-0.549-0.532c-0.01-0.329,0.233-0.475,0.532-0.545c0.387-0.092,0.782-0.164,1.153-0.302
			c0.275-0.102,0.441-0.341,0.391-0.664c-0.04-0.26-0.203-0.452-0.443-0.515C245.869,402.812,245.549,402.793,245.2,402.744z
			 M244.284,422.088c-1.589-0.003-1.991,0.166-2.819,1.182c-0.874,1.07-0.484,2.96,0.729,3.283c1.278,0.34,2.593,0.429,3.891,0.051
			c0.801-0.233,1.263-0.694,1.264-1.63C247.352,423.067,246.361,422.092,244.284,422.088z M244.188,431.843
			c3.024,0.011,3.473-0.428,3.315-3.171c-0.036-0.619-0.188-1.117-0.872-1.221c-0.715-0.109-1.245,0.104-1.41,0.909
			c-0.189,0.923-0.784,0.835-1.457,0.548c-0.474-0.202-0.714-0.602-0.971-1.009c-0.229-0.363-0.579-0.52-1.022-0.472
			c-0.507,0.056-0.605,0.436-0.719,0.827c-0.701,2.39,0.18,3.581,2.659,3.588C243.87,431.844,244.029,431.843,244.188,431.843z
			 M229.588,387.599c-0.009,0-0.018,0-0.027,0c0,0.32,0.036,0.644-0.005,0.958c-0.249,1.906,0.749,3.27,2.272,3.985
			c1.724,0.809,3.65,0.927,5.338-0.333c0.948-0.708,1.727-1.585,1.717-2.868c-0.009-1.225-0.105-2.448-0.139-3.672
			c-0.022-0.835-0.174-1.595-1.224-1.514c-0.958,0.074-1.188,0.839-1.211,1.645c-0.03,1.077-0.015,2.156,0.004,3.234
			c0.01,0.57-0.166,1.037-0.677,1.303c-0.866,0.451-1.782,0.455-2.653,0.062c-0.833-0.376-1.038-1.13-1.007-1.998
			c0.034-0.957,0.04-1.917-0.002-2.874c-0.031-0.721-0.256-1.343-1.152-1.396c-0.95-0.056-1.135,0.641-1.216,1.318
			C229.523,386.154,229.588,386.88,229.588,387.599z M244.034,436.655c3.292,0.023,3.526-0.181,3.478-2.806
			c-0.015-0.813-0.254-1.516-1.098-1.564c-0.866-0.05-1.227,0.627-1.188,1.449c0.044,0.912-0.424,1.187-1.25,1.146
			c-0.554-0.027-1.12-0.044-1.664,0.043c-0.512,0.081-1.09,0.31-1.085,0.925c0.005,0.659,0.627,0.751,1.139,0.797
			C242.917,436.693,243.478,436.655,244.034,436.655z M244.43,379.074c-1.059,0.014-1.935,1.045-1.89,2.223
			c0.042,1.095,1.476,2.196,2.781,2.135c0.823-0.038,2.009-1.379,1.999-2.259C247.311,380.418,245.442,379.061,244.43,379.074z
			 M244.985,394.577c1.301,0.011,2.19-0.853,2.187-2.124c-0.002-1.059-1.072-2.115-2.151-2.125c-1.25-0.012-2.343,1.025-2.334,2.216
			C242.697,393.783,243.581,394.565,244.985,394.577z M244.449,416.896c0.103-0.005,0.514,0.031,0.896-0.058
			c0.882-0.204,1.491-0.772,1.75-1.635c0.178-0.593,0.123-1.18-0.379-1.655c-0.338-0.32-0.684-0.583-1.164-0.366
			c-0.488,0.221-0.383,0.624-0.267,1.025c0.125,0.435,0.036,0.789-0.426,0.977c-0.605,0.247-1.185,0.109-1.733-0.154
			c-0.523-0.253-0.168-0.618-0.032-0.907c0.176-0.374,0.175-0.68-0.14-0.969c-0.392-0.358-0.743-0.14-1.081,0.077
			c-0.39,0.25-0.597,0.604-0.649,1.083C241.047,415.938,242.115,416.89,244.449,416.896z M245.339,387.269
			c-0.195,0.032-0.743,0.145-1.296,0.203c-0.594,0.063-1.208,0.002-1.785,0.126c-0.667,0.143-1.221,0.542-1.038,1.34
			c0.182,0.788,0.766,0.752,1.425,0.582c0.965-0.249,1.931-0.337,2.945-0.113c0.805,0.178,1.709,0.115,1.717-1.056
			C247.314,387.285,246.519,387.208,245.339,387.269z M247.142,384.788c-0.044-0.595-0.596-0.966-1.35-0.81
			c-0.832,0.173-1.653,0.164-2.482,0.165c-0.487,0-0.956,0.086-1.384,0.295c-0.469,0.228-0.744,0.625-0.595,1.165
			c0.169,0.614,0.688,0.632,1.159,0.488c1.085-0.333,2.123-0.408,3.238-0.023C246.473,386.323,247.182,386.105,247.142,384.788z
			 M244.96,378.432c0.239,0,0.479,0.005,0.718-0.001c0.519-0.014,0.977-0.194,1.109-0.727c0.142-0.575-0.372-0.749-0.761-0.908
			c-0.725-0.297-1.292-0.767-1.78-1.364c-0.273-0.334-0.633-0.505-1.061-0.333c-0.454,0.184-0.458,0.595-0.459,1.007
			C242.717,377.907,243.206,378.422,244.96,378.432z M244.856,398.693c0.159,0,0.318,0.001,0.477,0
			c0.505-0.004,1.01-0.083,1.081-0.688c0.066-0.569-0.419-0.706-0.852-0.809c-0.571-0.136-0.997-0.431-1.3-0.947
			c-0.191-0.325-0.518-0.519-0.916-0.36c-0.333,0.133-0.413,0.437-0.452,0.773C242.742,397.961,243.431,398.684,244.856,398.693z
			 M243.521,401.693c0.839,0.029,2.598-0.621,2.902-1.046c0.282-0.395,0.389-0.805,0.031-1.198c-0.3-0.33-0.649-0.269-0.955,0.005
			c-0.489,0.438-0.974,0.416-1.533,0.114c-0.543-0.295-0.997-0.039-1.386,0.371c-0.264,0.278-0.446,0.586-0.264,0.969
			C242.564,401.431,243.043,401.616,243.521,401.693z"/>
		<path fill-rule="evenodd" clip-rule="evenodd" fill="#9AA49A" d="M219.24,432.16c0.661-0.041,0.495,0.472,0.556,0.832
			c0.423,2.506,0.348,5.119,1.489,7.472c1.876,3.864,4.931,6.198,9.215,6.749c3.245,0.416,6.514,0.504,9.788,0.503
			c44.958-0.013,89.916,0.008,134.874-0.059c3.189-0.005,6.471-0.023,9.476-1.513c3.437-1.702,5.593-4.394,6.371-8.157
			c0.141-0.681-0.002-1.145-0.842-0.702c-0.696,0.366-1.442,0.404-2.213,0.404c-42.838-0.007-85.676-0.017-128.515,0.011
			c-3.715,0.002-6.229-1.745-7.935-4.869c-0.63-1.155-0.574-2.469-0.574-3.75c0.001-22.959,0.001-45.918,0.001-68.877
			c0-4.12,0.221-8.254-0.055-12.356c-0.366-5.444,3.727-9.144,9.061-9.127c41.438,0.133,82.876,0.074,124.314,0.069
			c1.117,0,2.237-0.034,3.351-0.12c0.325-0.025,0.78-0.076,0.924-0.46c0.162-0.43-0.277-0.617-0.507-0.863
			c-2-2.143-4.584-3.102-7.39-3.547c-2.444-0.389-4.912-0.499-7.39-0.499c-38.318,0.001-76.637,0.019-114.955-0.053
			c-5.032-0.01-10.066-0.186-15.101-0.154c-3.393,0.021-6.792,0.045-10.177,0.253c-3.556,0.218-6.933,1.03-9.545,3.772
			c-2.092,2.196-2.938,4.873-3.24,7.793c-0.164,1.584-0.326,3.169-0.478,4.755c-0.033,0.339-0.056,0.652-0.506,0.651
			c0-3.2,0-6.4,0-9.6c0.512,0,0.664-0.317,0.729-0.767c0.8-5.457,5.667-8.609,10.495-9.306c2.573-0.372,5.154-0.487,7.75-0.486
			c45.557,0.016,91.113,0,136.67,0.064c3.685,0.005,7.413,0.247,10.787,2.15c3.079,1.737,5.273,4.096,5.86,7.699
			c0.077,0.474,0.157,0.877,0.748,0.886c0,2.96,0,5.92,0,8.88c-0.525-0.049-0.44-0.456-0.491-0.804
			c-0.118-0.814-0.261-1.624-0.43-2.658c-0.574,0.94-0.493,1.708-0.493,2.458c-0.001,27.726-0.001,55.452-0.001,83.179
			c0,0.439-0.007,0.879,0.015,1.317c0.018,0.349,0.07,0.697,0.45,0.878c0.344-0.32,0.094-0.749,0.256-1.028
			c0.361-0.624-0.234-1.573,0.694-1.981c0,2.24,0,4.479,0,6.72c-0.556,0.275-0.562,0.829-0.652,1.325
			c-1.161,6.329-4.877,8.759-10.342,10.213c-2.455,0.653-5.036,0.756-7.589,0.757c-45.416,0.005-90.832,0.022-136.248-0.04
			c-3.395-0.005-6.796-0.28-10.062-1.666c-4.287-1.819-6.791-4.852-7.486-9.419c-0.074-0.485-0.114-0.965-0.662-1.17
			C219.24,436,219.24,434.08,219.24,432.16z M323.372,436.993c21.556,0,43.112,0,64.669,0c1.768,0,2.261-0.583,2.037-2.357
			c-0.069-0.553-0.104-1.113-0.104-1.67c-0.005-29.035-0.008-58.071,0.004-87.106c0-1.635,0.126-3.27,0.177-4.905
			c0.031-0.992-0.471-1.497-1.463-1.46c-1.115,0.042-2.229,0.168-3.345,0.169c-40.273,0.009-80.547,0.007-120.82,0.008
			c-2.12,0-4.239,0.016-6.359,0.004c-0.737-0.004-1.422,0.15-2.086,0.457c-2.821,1.298-4.285,3.483-4.287,6.601
			c-0.006,11.519-0.003,23.037-0.003,34.555c0,16.157,0.005,32.314-0.006,48.472c-0.001,1.522,0.314,2.976,1.217,4.17
			c1.616,2.138,3.804,3.089,6.539,3.084C280.818,436.974,302.095,436.991,323.372,436.993z"/>
		<path fill-rule="evenodd" clip-rule="evenodd" fill="#304630" d="M392.28,431.2c-0.929,0.408-0.333,1.357-0.694,1.981
			c-0.162,0.279,0.088,0.708-0.256,1.028c-0.38-0.181-0.433-0.529-0.45-0.878c-0.021-0.438-0.015-0.878-0.015-1.317
			c0-27.727,0-55.453,0.001-83.179c0-0.75-0.081-1.518,0.493-2.458c0.169,1.034,0.312,1.844,0.43,2.658
			c0.051,0.348-0.034,0.755,0.491,0.804C392.28,376.96,392.28,404.08,392.28,431.2z"/>
		<path fill-rule="evenodd" clip-rule="evenodd" fill="#9AA49A" d="M234.186,371.157c-0.878,0-1.756,0.011-2.634-0.002
			c-1.257-0.02-2.107-0.81-2.148-2.06c-0.04-1.236-0.05-2.476,0-3.711c0.069-1.687,2.027-3.601,3.817-3.699
			c1.313-0.072,2.635-0.053,3.95-0.001c0.781,0.031,1.629,0.247,1.617,1.225c-0.011,0.866-0.646,1.175-1.516,1.361
			c-1.24,0.266-2.445-0.265-3.677,0.089c-1.321,0.38-1.684,1.08-1.445,3.16c0.133,1.158,0.969,1.074,1.78,1.072
			c1.078-0.002,2.156-0.006,3.233,0.006c0.839,0.009,1.621,0.309,1.613,1.228c-0.006,0.879-0.798,1.251-1.598,1.305
			c-0.994,0.066-1.995,0.016-2.993,0.016C234.186,371.149,234.186,371.154,234.186,371.157z"/>
		<path fill-rule="evenodd" clip-rule="evenodd" fill="#9AA49A" d="M232.546,437.171c-1.518,0.001-3.035,0.028-4.552-0.007
			c-1.337-0.031-1.957-0.676-1.972-2.021c-0.021-1.836-0.004-3.673-0.006-5.51c0-0.952,0.413-1.524,1.422-1.518
			c0.977,0.006,1.163,0.65,1.154,1.459c-0.014,1.277,0.052,2.559-0.029,3.831c-0.07,1.09,0.603,1.261,1.4,1.346
			c0.837,0.09,1.153-0.359,1.123-1.148c-0.008-0.194,0.084-0.392,0.091-0.589c0.033-0.947,0.397-1.786,1.425-1.672
			c0.971,0.108,1.285,1.028,1.188,1.929c-0.128,1.188,0.442,1.441,1.471,1.368c0.71-0.051,1.439-0.021,2.145,0.079
			c0.704,0.099,1.377,0.393,1.249,1.289c-0.111,0.777-0.668,1.152-1.438,1.159C235.661,437.18,234.103,437.17,232.546,437.171z"/>
		<path fill-rule="evenodd" clip-rule="evenodd" fill="#9AA49A" d="M235.107,339.386c1.16,0,2.32-0.032,3.478,0.007
			c2.154,0.073,4.344,2.51,4.041,4.502c-0.107,0.703-0.245,1.416-1.2,1.556c-1.095,0.161-1.526-0.352-1.652-1.342
			c-0.046-0.366,0.008-0.996-0.508-0.917c-0.604,0.092-0.329,0.674-0.272,1.094c0.372,2.734-1.397,4.753-4.166,4.76
			c-1.08,0.002-2.159,0.007-3.238-0.006c-1.206-0.015-2.146-0.611-2.118-1.319c0.032-0.777,0.916-1.382,2.081-1.398
			c1-0.014,1.999-0.001,2.999-0.004c1.047-0.004,1.613-0.417,1.609-1.582c-0.009-2.436,0.03-2.435-2.38-2.431
			c-0.799,0.001-1.6,0.015-2.398-0.009c-0.99-0.029-1.979-0.758-1.904-1.458c0.112-1.03,0.909-1.381,1.792-1.427
			c1.276-0.066,2.558-0.017,3.837-0.017C235.107,339.392,235.107,339.389,235.107,339.386z M235.207,340.3c0-0.004,0-0.008,0-0.013
			c-1.199,0-2.399-0.006-3.598,0.003c-0.431,0.003-0.994-0.06-0.973,0.577c0.018,0.53,0.525,0.509,0.928,0.512
			c0.799,0.005,1.601,0.037,2.398-0.005c3.385-0.179,3.143,0.75,3.076,3.332c-0.04,1.517-0.937,2.323-2.459,2.364
			c-0.959,0.026-1.919-0.015-2.878,0.011c-0.504,0.014-1.209-0.004-1.185,0.674c0.021,0.567,0.668,0.565,1.16,0.563
			c0.96-0.004,1.919-0.003,2.879-0.001c2.34,0.004,3.629-1.277,3.604-3.583c-0.006-0.56-0.024-1.12-0.012-1.679
			c0.01-0.487,0.047-1.027,0.61-1.178c0.56-0.15,0.999,0.188,1.338,0.609c0.258,0.321,0.31,0.718,0.368,1.122
			c0.059,0.417,0.104,1.025,0.657,0.971c0.568-0.056,0.614-0.643,0.616-1.142c0.006-1.465-1.588-3.117-3.048-3.135
			C237.526,340.288,236.366,340.3,235.207,340.3z"/>
		<path fill-rule="evenodd" clip-rule="evenodd" fill="#FEFEFE" d="M231.257,358.704c-0.272-0.294-0.544-0.588-0.816-0.883
			c-0.042-1.063-0.106-2.125-0.12-3.189c-0.022-1.74-0.35-2.104-2.059-2.216c-0.273-0.018-0.562-0.047-0.808-0.152
			c-0.157-0.067-0.321-0.269-0.354-0.436c-0.046-0.229,0.197-0.334,0.383-0.381c0.268-0.067,0.548-0.11,0.823-0.111
			c2.836-0.006,5.672,0.013,8.508-0.007c0.967-0.007,1.385,0.405,1.354,1.371c-0.054,1.703,0.074,3.411-0.15,5.109
			c-0.508,0.457-0.823,1.112-1.466,1.431c-1.124,0.167-2.292-0.086-3.387,0.357c-0.137-0.012-0.274-0.025-0.411-0.037
			C232.402,359.021,231.845,358.835,231.257,358.704z M234.171,352.717c-2.417,0.014-2.632,0.202-2.616,2.284
			c0.016,2.037,0.892,2.985,2.743,2.971c1.84-0.014,2.48-0.895,2.464-3.392C236.751,352.8,236.617,352.703,234.171,352.717z"/>
		<path fill-rule="evenodd" clip-rule="evenodd" fill="#9AA49A" d="M239.065,409.663c-0.115,1.277,0.204,2.623-0.916,3.943
			c-1.592,1.876-3.518,1.857-5.547,1.618c-1.775-0.208-3.59-2.925-3.291-4.674c0.288-1.681,0.196-1.785-1.442-2.092
			c-0.454-0.084-0.946-0.093-1.342-0.446c-0.446-0.398-0.545-0.874-0.439-1.409c0.098-0.499,0.476-0.669,0.949-0.765
			c1.745-0.353,3.524-0.323,5.251-0.122c1.687,0.197,3.346-0.237,5.006,0.042c1.593,0.268,1.759,0.483,1.771,2.117
			C239.068,408.436,239.065,408.995,239.065,409.663z M232.42,406.479c-1.396,0-2.793-0.008-4.189,0.005
			c-0.381,0.003-0.926-0.079-0.952,0.456c-0.026,0.537,0.505,0.493,0.895,0.525c2.025,0.162,2.363,0.539,2.136,2.606
			c-0.181,1.647,0.188,3.118,1.67,3.923c1.33,0.723,2.859,0.766,4.228-0.034c1.059-0.618,1.953-1.539,1.781-2.854
			c-0.129-0.984-0.135-1.865,0.058-2.855c0.256-1.316-0.306-1.761-1.675-1.771C235.054,406.471,233.737,406.478,232.42,406.479z"/>
		<path fill-rule="evenodd" clip-rule="evenodd" fill="#9AA49A" d="M239.056,420.973c0.218,1.556-0.124,3.133-1.665,4.335
			c-1.196,0.934-1.634,0.884-2.801-0.025c-1.48-1.152-1.801-2.612-1.624-4.338c0.035-0.338,0.229-0.944-0.358-0.952
			c-0.479-0.006-0.477,0.544-0.498,0.945c-0.041,0.791,0.136,1.594-0.173,2.369c-0.208,0.52-0.329,1.093-1.069,1.094
			c-0.667,0.001-1.118-0.424-1.233-0.954c-0.346-1.594-0.655-3.252,0.406-4.705c0.931-1.274,2.118-2.113,3.855-1.904
			c0.943,0.114,1.912,0.007,2.869,0.015c1.654,0.014,2.134,0.436,2.282,2.073C239.101,419.519,239.056,420.121,239.056,420.973z
			 M238.162,420.729c0-0.6-0.028-1.201,0.006-1.8c0.06-1.038-0.427-1.45-1.438-1.417c-1.119,0.038-2.241,0.045-3.359,0.007
			c-0.736-0.024-1.24,0.299-1.814,0.729c-1.571,1.177-1.249,2.809-1.233,4.384c0.002,0.25,0.11,0.503,0.383,0.534
			c0.359,0.041,0.482-0.24,0.504-0.535c0.026-0.357,0.032-0.721,0.003-1.078c-0.067-0.846,0.204-1.575,0.726-2.22
			c0.309-0.382,0.726-0.487,1.188-0.353c0.47,0.138,0.559,0.531,0.565,0.95c0.009,0.6,0.05,1.205-0.013,1.799
			c-0.132,1.243,0.403,2.158,1.296,2.937c0.675,0.59,1.228,0.591,1.991-0.011C238.333,423.579,238.223,422.174,238.162,420.729z"/>
		<path fill-rule="evenodd" clip-rule="evenodd" fill="#9AA49A" d="M239.065,399.421c0.613,3.745-3.666,6.106-7.203,4.542
			c-1.931-0.854-3.115-3.55-2.633-6.005c0.309-1.572,2.562-3.356,4.21-3.355c0.615,0,1.177,0.167,1.729,0.412
			c0.683,0.301,0.475,0.932,0.55,1.459c0.055,0.382,0.246,0.561,0.654,0.48c2.64-0.519,2.689-0.476,2.692,2.227
			C239.065,399.261,239.065,399.341,239.065,399.421z M234.946,398.566c0.004,0,0.007,0,0.011,0c0-0.439,0.027-0.881-0.007-1.317
			c-0.046-0.601,0.303-1.356-0.471-1.713c-0.835-0.384-1.727-0.392-2.531,0.083c-1.629,0.962-2.465,4.307-1.535,5.99
			c1.149,2.078,4.9,2.629,6.707,1.076c1.577-1.355,1.167-3.096,1.142-4.777c-0.004-0.275-0.226-0.54-0.541-0.558
			c-0.355-0.021-0.633,0.194-0.706,0.531c-0.083,0.384-0.085,0.785-0.104,1.181c-0.032,0.632,0.089,1.28-0.237,1.879
			c-0.228,0.418-0.531,0.721-1.041,0.637c-0.535-0.088-0.681-0.498-0.686-0.976C234.94,399.924,234.946,399.245,234.946,398.566z"/>
		<path fill-rule="evenodd" clip-rule="evenodd" fill="#9AA49A" d="M232.586,376.304c-0.659,0.197-0.431,0.756-0.466,1.189
			c-0.057,0.709,0.125,1.44-0.184,2.127c-0.206,0.457-0.477,0.807-1.051,0.838c-0.598,0.032-0.989-0.206-1.248-0.727
			c-1.495-3.01,0.503-7.322,4.092-7.027c1.229,0.102,2.474,0.011,3.71,0.035c1.064,0.021,1.612,0.588,1.617,1.656
			c0.007,1.396,0.035,2.794,0,4.19c-0.033,1.295-1.626,3.143-2.909,3.467c-0.331,0.084-0.618,0.057-0.899-0.157
			c-1.513-1.15-2.771-2.424-2.458-4.567C232.838,376.997,232.917,376.605,232.586,376.304z M238.304,376.61
			c0-0.52,0.007-1.04-0.001-1.559c-0.023-1.401-0.375-1.754-1.791-1.773c-0.799-0.011-1.604,0.065-2.398-0.005
			c-1.311-0.117-2.256,0.404-3.173,1.319c-1.09,1.089-0.709,2.378-0.785,3.615c-0.031,0.51-0.055,1.198,0.627,1.211
			c0.763,0.016,0.591-0.718,0.597-1.201c0.011-0.799-0.069-1.608,0.312-2.351c0.23-0.449,0.573-0.801,1.13-0.722
			c0.6,0.085,0.728,0.549,0.733,1.067c0.005,0.4,0.054,0.81-0.014,1.198c-0.249,1.446,0.443,2.434,1.466,3.325
			c0.708,0.617,1.274,0.545,2.007,0.004C238.487,379.653,238.373,378.14,238.304,376.61z"/>
		<path fill-rule="evenodd" clip-rule="evenodd" fill="#9AA49A" d="M245.2,402.744c0.349,0.049,0.669,0.067,0.974,0.146
			c0.24,0.063,0.403,0.255,0.443,0.515c0.05,0.323-0.116,0.563-0.391,0.664c-0.371,0.138-0.766,0.21-1.153,0.302
			c-0.298,0.07-0.542,0.216-0.532,0.545c0.01,0.321,0.241,0.499,0.549,0.532c1.252,0.137,1.907,0.489,0.819,1.765
			c-0.422,0.495,0.231,0.774,0.518,1.017c0.696,0.591,0.97,1.33,0.646,2.13c-0.343,0.846-1.044,1.414-2.012,1.478
			c-0.944,0.063-1.726-0.215-2.14-1.169c-0.42-0.968-0.246-1.792,0.553-2.471c0.421-0.359,1.081-0.701,0.235-1.227
			c-1.203-0.746-1.185-1.766-0.812-2.919C243.274,402.889,244.292,402.908,245.2,402.744z"/>
		<path fill-rule="evenodd" clip-rule="evenodd" fill="#9AA49A" d="M244.284,422.088c2.077,0.004,3.068,0.979,3.065,2.886
			c-0.001,0.936-0.463,1.396-1.264,1.63c-1.298,0.378-2.613,0.289-3.891-0.051c-1.214-0.323-1.604-2.213-0.729-3.283
			C242.293,422.254,242.695,422.085,244.284,422.088z M244.265,425.175c0.438-0.055,1.021-0.107,0.986-0.714
			c-0.031-0.54-0.553-0.702-1.074-0.679c-0.553,0.025-1.139,0.201-1.101,0.808C243.112,425.165,243.763,425.102,244.265,425.175z"/>
		<path fill-rule="evenodd" clip-rule="evenodd" fill="#9AA49A" d="M244.188,431.843c-0.159,0-0.318,0.001-0.478,0
			c-2.479-0.007-3.359-1.198-2.659-3.588c0.114-0.392,0.212-0.771,0.719-0.827c0.444-0.048,0.794,0.108,1.022,0.472
			c0.257,0.407,0.497,0.807,0.971,1.009c0.672,0.287,1.267,0.375,1.457-0.548c0.165-0.805,0.695-1.019,1.41-0.909
			c0.683,0.104,0.836,0.602,0.872,1.221C247.661,431.415,247.212,431.854,244.188,431.843z M242.456,430.933
			c1.012,0,2.024,0.006,3.037-0.005c0.204-0.002,0.396-0.096,0.475-0.307c0.072-0.194-0.053-0.327-0.222-0.32
			C244.639,430.348,243.469,429.938,242.456,430.933z"/>
		<path fill-rule="evenodd" clip-rule="evenodd" fill="#9AA49A" d="M229.588,387.599c0-0.718-0.065-1.444,0.019-2.152
			c0.081-0.677,0.266-1.374,1.216-1.318c0.896,0.053,1.121,0.676,1.152,1.396c0.042,0.957,0.036,1.917,0.002,2.874
			c-0.031,0.868,0.173,1.622,1.007,1.998c0.871,0.393,1.787,0.39,2.653-0.062c0.511-0.266,0.687-0.733,0.677-1.303
			c-0.019-1.078-0.034-2.157-0.004-3.234c0.023-0.805,0.253-1.571,1.211-1.645c1.05-0.081,1.202,0.679,1.224,1.514
			c0.033,1.225,0.129,2.448,0.139,3.672c0.01,1.283-0.77,2.161-1.717,2.868c-1.688,1.26-3.615,1.142-5.338,0.333
			c-1.523-0.715-2.521-2.079-2.272-3.985c0.041-0.314,0.005-0.638,0.005-0.958C229.571,387.599,229.58,387.599,229.588,387.599z
			 M238.152,387.792c0-0.825,0.005-1.544-0.002-2.263c-0.004-0.381-0.081-0.777-0.554-0.765c-0.464,0.013-0.537,0.413-0.539,0.792
			c-0.006,1.039,0.022,2.078-0.008,3.116c-0.05,1.688-1.075,2.55-2.953,2.529c-1.781-0.02-2.695-0.895-2.712-2.611
			c-0.009-0.958,0.004-1.917,0.001-2.876c-0.001-0.429-0.128-0.864-0.597-0.899c-0.486-0.037-0.51,0.471-0.533,0.795
			c-0.069,0.993-0.023,1.995-0.112,2.986c-0.153,1.719,0.67,2.957,2.134,3.514c1.62,0.616,3.3,0.654,4.854-0.578
			C238.505,390.441,238.083,389.034,238.152,387.792z"/>
		<path fill-rule="evenodd" clip-rule="evenodd" fill="#9AA49A" d="M244.034,436.655c-0.556,0-1.116,0.038-1.668-0.011
			c-0.512-0.046-1.133-0.138-1.139-0.797c-0.005-0.615,0.573-0.844,1.085-0.925c0.543-0.087,1.11-0.07,1.664-0.043
			c0.826,0.041,1.294-0.233,1.25-1.146c-0.04-0.822,0.322-1.499,1.188-1.449c0.844,0.049,1.083,0.752,1.098,1.564
			C247.56,436.475,247.326,436.679,244.034,436.655z"/>
		<path fill-rule="evenodd" clip-rule="evenodd" fill="#9AA49A" d="M244.43,379.074c1.013-0.014,2.881,1.344,2.889,2.099
			c0.01,0.88-1.176,2.221-1.999,2.259c-1.305,0.061-2.739-1.04-2.781-2.135C242.495,380.119,243.371,379.088,244.43,379.074z"/>
		<path fill-rule="evenodd" clip-rule="evenodd" fill="#9AA49A" d="M244.985,394.577c-1.404-0.011-2.288-0.793-2.298-2.034
			c-0.009-1.19,1.084-2.228,2.334-2.216c1.079,0.01,2.148,1.067,2.151,2.125C247.175,393.724,246.287,394.587,244.985,394.577z"/>
		<path fill-rule="evenodd" clip-rule="evenodd" fill="#9AA49A" d="M244.449,416.896c-2.334-0.006-3.402-0.958-3.225-2.582
			c0.052-0.479,0.26-0.833,0.649-1.083c0.338-0.217,0.689-0.436,1.081-0.077c0.315,0.289,0.316,0.595,0.14,0.969
			c-0.136,0.289-0.491,0.654,0.032,0.907c0.548,0.264,1.128,0.401,1.733,0.154c0.461-0.188,0.551-0.542,0.426-0.977
			c-0.116-0.401-0.221-0.805,0.267-1.025c0.479-0.217,0.825,0.046,1.164,0.366c0.502,0.476,0.558,1.063,0.379,1.655
			c-0.259,0.862-0.868,1.431-1.75,1.635C244.963,416.927,244.552,416.891,244.449,416.896z"/>
		<path fill-rule="evenodd" clip-rule="evenodd" fill="#9AA49A" d="M238.019,357.809c0.224-1.698,0.096-3.406,0.15-5.109
			c0.03-0.966-0.387-1.378-1.354-1.371c-2.836,0.021-5.672,0.001-8.508,0.007c-0.275,0.001-0.556,0.044-0.823,0.111
			c-0.186,0.046-0.429,0.152-0.383,0.381c0.034,0.167,0.198,0.369,0.354,0.436c0.247,0.105,0.535,0.134,0.808,0.152
			c1.709,0.112,2.037,0.476,2.059,2.216c0.014,1.063,0.078,2.125,0.12,3.189c-0.659-0.159-0.677-0.718-0.712-1.22
			c-0.042-0.596-0.007-1.198-0.005-1.798c0.004-1.535-0.128-1.689-1.668-1.792c-0.499-0.033-0.952-0.158-1.317-0.494
			c-0.58-0.533-0.464-1.194,0.26-1.513c0.444-0.195,0.919-0.246,1.406-0.245c2.718,0.008,5.437-0.009,8.154,0.011
			c1.74,0.013,2.17,0.476,2.177,2.236c0.004,1.159,0.025,2.319-0.011,3.478C238.709,357.014,238.77,357.645,238.019,357.809z"/>
		<path fill-rule="evenodd" clip-rule="evenodd" fill="#9AA49A" d="M245.339,387.269c1.18-0.061,1.976,0.016,1.968,1.083
			c-0.008,1.17-0.913,1.233-1.717,1.056c-1.014-0.224-1.98-0.135-2.945,0.113c-0.659,0.17-1.243,0.206-1.425-0.582
			c-0.184-0.798,0.371-1.197,1.038-1.34c0.577-0.124,1.191-0.063,1.785-0.126C244.596,387.414,245.144,387.301,245.339,387.269z"/>
		<path fill-rule="evenodd" clip-rule="evenodd" fill="#9AA49A" d="M247.142,384.788c0.04,1.318-0.669,1.536-1.414,1.279
			c-1.116-0.384-2.153-0.31-3.238,0.023c-0.47,0.144-0.99,0.126-1.159-0.488c-0.148-0.539,0.126-0.937,0.595-1.165
			c0.428-0.208,0.897-0.294,1.384-0.295c0.829-0.001,1.65,0.009,2.482-0.165C246.546,383.821,247.098,384.192,247.142,384.788z"/>
		<path fill-rule="evenodd" clip-rule="evenodd" fill="#9AA49A" d="M244.96,378.432c-1.754-0.01-2.243-0.525-2.234-2.326
			c0.002-0.412,0.006-0.824,0.459-1.007c0.428-0.173,0.788-0.002,1.061,0.333c0.488,0.597,1.056,1.067,1.78,1.364
			c0.389,0.16,0.903,0.333,0.761,0.908c-0.132,0.533-0.59,0.713-1.109,0.727C245.438,378.438,245.199,378.432,244.96,378.432z"/>
		<path fill-rule="evenodd" clip-rule="evenodd" fill="#9AA49A" d="M244.856,398.694c-1.425-0.011-2.115-0.733-1.961-2.032
			c0.04-0.337,0.119-0.641,0.452-0.773c0.397-0.158,0.725,0.036,0.916,0.36c0.303,0.517,0.729,0.812,1.3,0.947
			c0.432,0.103,0.918,0.239,0.852,0.809c-0.07,0.605-0.575,0.685-1.081,0.688C245.174,398.694,245.016,398.693,244.856,398.694z"/>
		<path fill-rule="evenodd" clip-rule="evenodd" fill="#9AA49A" d="M243.521,401.693c-0.478-0.077-0.956-0.263-1.204-0.785
			c-0.182-0.383,0-0.69,0.264-0.969c0.389-0.41,0.843-0.666,1.386-0.371c0.559,0.302,1.044,0.324,1.533-0.114
			c0.305-0.273,0.654-0.335,0.955-0.005c0.358,0.394,0.25,0.804-0.031,1.198C246.118,401.072,244.359,401.723,243.521,401.693z
			 M243.603,400.123c-0.347-0.006-0.565,0.166-0.554,0.483c0.016,0.468,0.379,0.565,0.757,0.519
			c0.295-0.037,0.748-0.074,0.716-0.447C244.48,400.19,243.917,400.291,243.603,400.123z"/>
		<path fill-rule="evenodd" clip-rule="evenodd" fill="#9AA49A" d="M233.166,359.597c1.095-0.443,2.264-0.19,3.387-0.357
			C235.856,360.052,234.196,360.228,233.166,359.597z"/>
		<path fill-rule="evenodd" clip-rule="evenodd" fill="#9AA49A" d="M231.257,358.704c0.587,0.131,1.145,0.316,1.498,0.856
			C231.954,359.803,231.397,359.618,231.257,358.704z"/>
		<path fill-rule="evenodd" clip-rule="evenodd" fill="#FEFEFE" d="M323.372,436.992c-21.277-0.001-42.554-0.019-63.83,0.021
			c-2.734,0.005-4.923-0.946-6.539-3.084c-0.903-1.194-1.218-2.647-1.217-4.17c0.011-16.157,0.006-32.314,0.006-48.472
			c0-11.518-0.003-23.036,0.003-34.555c0.002-3.117,1.466-5.302,4.287-6.601c0.664-0.306,1.35-0.461,2.086-0.457
			c2.12,0.012,4.239-0.004,6.359-0.004c40.273,0,80.547,0.001,120.82-0.008c1.115,0,2.229-0.127,3.345-0.169
			c0.992-0.037,1.494,0.468,1.463,1.46c-0.051,1.635-0.177,3.27-0.177,4.905c-0.012,29.035-0.009,58.071-0.004,87.106
			c0,0.557,0.034,1.117,0.104,1.67c0.224,1.774-0.27,2.357-2.037,2.357C366.484,436.993,344.928,436.993,323.372,436.992z
			 M282.91,387.185c0,4.679-0.038,9.358,0.011,14.036c0.051,4.835-0.31,9.683,0.181,14.501c0.454,4.459,5.258,6.089,8.587,4.22
			c1.884-1.058,2.89-2.824,2.892-5.054c0.006-6.718,0.006-13.437,0.002-20.155c-0.001-1.508,0.197-1.726,1.727-1.729
			c3.08-0.005,6.16,0.052,9.238-0.018c3.387-0.077,5.462-2.002,5.985-4.429c0.93-4.316-2.185-7.089-5.902-7.23
			c-3.195-0.122-6.397-0.042-9.597-0.02c-0.984,0.007-1.476-0.327-1.466-1.392c0.034-3.719,0.011-7.438,0.021-11.157
			c0.003-1.11,0.46-1.482,1.584-1.343c0.277,0.034,0.552,0.112,0.828,0.112c8.478,0.006,16.957,0.038,25.434-0.014
			c2.897-0.017,5.492-1.885,6.198-4.1c1.239-3.889-1.6-7.753-5.976-7.757c-11.757-0.011-23.514-0.018-35.271,0.008
			c-1.19,0.002-2.309,0.246-3.291,1.157c-1.121,1.041-1.174,2.303-1.177,3.609C282.901,369.349,282.91,378.267,282.91,387.185z
			 M341.175,418.635c0,0.009,0,0.018,0,0.026c3.958,0,7.917-0.035,11.874,0.019c1.43,0.02,2.627-0.345,3.753-1.242
			c1.676-1.334,2.825-4,2.302-5.662c-0.94-2.979-3.021-4.743-5.696-4.756c-4.838-0.023-9.676-0.001-14.513-0.022
			c-1.918-0.009-3.668-0.529-5.219-1.73c-2.368-1.836-2.47-4.431-2.322-7.033c0.06-1.046-0.111-2.16,0.402-3.179
			c1.309-2.599,3.443-3.971,6.306-4.02c4.636-0.08,9.274-0.01,13.913-0.027c2.315-0.009,4.437-0.558,5.936-2.5
			c0.896-1.163,1.553-2.509,1.28-3.976c-0.646-3.484-3.238-5.541-6.769-5.543c-7.356-0.006-14.713,0.006-22.069-0.009
			c-1.533-0.003-2.972,0.224-4.416,0.835c-4.42,1.869-6.601,5.298-6.742,9.806c-0.175,5.552-0.027,11.114-0.055,16.67
			c-0.009,1.767,0.228,3.462,0.643,5.193c0.921,3.838,5.211,7.11,9.039,7.144C332.938,418.662,337.057,418.635,341.175,418.635z"/>
		<path fill-rule="evenodd" clip-rule="evenodd" fill="#FEFEFE" d="M235.207,340.3c1.16,0,2.319-0.012,3.479,0.002
			c1.46,0.018,3.055,1.669,3.048,3.135c-0.002,0.499-0.048,1.086-0.616,1.142c-0.552,0.054-0.598-0.555-0.657-0.971
			c-0.058-0.403-0.109-0.8-0.368-1.122c-0.339-0.422-0.778-0.76-1.338-0.609c-0.563,0.151-0.6,0.691-0.61,1.178
			c-0.012,0.56,0.006,1.119,0.012,1.679c0.026,2.306-1.263,3.587-3.604,3.583c-0.959-0.002-1.919-0.003-2.879,0.001
			c-0.492,0.002-1.139,0.003-1.16-0.563c-0.025-0.679,0.68-0.66,1.185-0.674c0.959-0.026,1.919,0.015,2.878-0.011
			c1.523-0.041,2.42-0.847,2.459-2.364c0.067-2.582,0.309-3.511-3.076-3.332c-0.797,0.042-1.599,0.011-2.398,0.005
			c-0.402-0.002-0.91,0.019-0.928-0.512c-0.021-0.636,0.542-0.573,0.973-0.577c1.199-0.009,2.399-0.003,3.598-0.003
			C235.207,340.292,235.207,340.295,235.207,340.3z"/>
		<path fill-rule="evenodd" clip-rule="evenodd" fill="#304630" d="M234.171,352.717c2.445-0.014,2.58,0.083,2.591,1.863
			c0.016,2.497-0.624,3.378-2.464,3.392c-1.852,0.014-2.728-0.935-2.743-2.971C231.539,352.919,231.754,352.731,234.171,352.717z"/>
		<path fill-rule="evenodd" clip-rule="evenodd" fill="#FEFEFE" d="M232.42,406.479c1.317-0.001,2.634-0.008,3.951,0.001
			c1.369,0.01,1.931,0.454,1.675,1.771c-0.193,0.99-0.187,1.871-0.058,2.855c0.172,1.315-0.723,2.236-1.781,2.854
			c-1.369,0.8-2.898,0.757-4.228,0.034c-1.481-0.805-1.851-2.275-1.67-3.923c0.228-2.067-0.111-2.444-2.136-2.606
			c-0.39-0.032-0.921,0.012-0.895-0.525c0.026-0.535,0.571-0.453,0.952-0.456C229.627,406.471,231.023,406.479,232.42,406.479z
			 M234.359,407.471c-0.441,0-0.76-0.003-1.079,0c-1.872,0.018-2.062,0.207-2.062,2.063c0,0.518-0.009,1.036,0.012,1.553
			c0.042,1.041,1.12,2.226,2.158,2.36c1.299,0.168,2.557-0.04,3.245-1.23c0.722-1.249,0.657-2.664,0.116-4.004
			C236.239,406.949,235.088,407.676,234.359,407.471z"/>
		<path fill-rule="evenodd" clip-rule="evenodd" fill="#FEFEFE" d="M238.162,420.729c0.061,1.445,0.171,2.851-1.193,3.926
			c-0.763,0.602-1.315,0.601-1.991,0.011c-0.893-0.778-1.429-1.693-1.296-2.937c0.063-0.594,0.021-1.199,0.013-1.799
			c-0.006-0.419-0.095-0.813-0.565-0.95c-0.462-0.135-0.879-0.029-1.188,0.353c-0.521,0.645-0.793,1.374-0.726,2.22
			c0.028,0.357,0.023,0.721-0.003,1.078c-0.022,0.295-0.146,0.576-0.504,0.535c-0.273-0.031-0.381-0.284-0.383-0.534
			c-0.016-1.575-0.338-3.207,1.233-4.384c0.574-0.43,1.078-0.753,1.814-0.729c1.119,0.038,2.24,0.031,3.359-0.007
			c1.01-0.033,1.497,0.379,1.438,1.417C238.133,419.527,238.162,420.129,238.162,420.729z M237.078,421.084
			c-0.007,0-0.014,0-0.021-0.001c0-0.398,0.016-0.798-0.003-1.195c-0.031-0.621-0.297-1.105-0.966-1.16
			c-0.703-0.058-1.186,0.35-1.244,1.021c-0.079,0.908-0.068,1.834,0.011,2.742c0.044,0.513,0.301,1.04,0.96,1.031
			c0.645-0.008,1.034-0.447,1.18-1.011C237.112,422.058,237.057,421.561,237.078,421.084z"/>
		<path fill-rule="evenodd" clip-rule="evenodd" fill="#FEFEFE" d="M234.946,398.566c0,0.679-0.005,1.357,0.002,2.036
			c0.005,0.478,0.151,0.888,0.686,0.976c0.509,0.084,0.813-0.219,1.041-0.637c0.326-0.599,0.205-1.247,0.237-1.879
			c0.02-0.396,0.021-0.797,0.104-1.181c0.073-0.337,0.351-0.552,0.706-0.531c0.315,0.018,0.537,0.282,0.541,0.558
			c0.025,1.682,0.436,3.422-1.142,4.777c-1.807,1.553-5.558,1.002-6.707-1.076c-0.93-1.684-0.095-5.028,1.535-5.99
			c0.804-0.475,1.696-0.467,2.531-0.083c0.774,0.356,0.425,1.112,0.471,1.713c0.034,0.437,0.007,0.878,0.007,1.317
			C234.953,398.566,234.95,398.566,234.946,398.566z M233.708,398.671c-0.026-0.688-0.02-1.405-0.784-1.612
			c-0.827-0.224-1.105,0.478-1.335,1.065c-0.362,0.923-0.353,1.865,0.091,2.771c0.231,0.472,0.5,0.957,1.135,0.884
			c0.743-0.086,0.751-0.742,0.848-1.268C233.777,399.893,233.43,399.253,233.708,398.671z"/>
		<path fill-rule="evenodd" clip-rule="evenodd" fill="#FEFEFE" d="M238.304,376.61c0.068,1.53,0.183,3.043-1.289,4.13
			c-0.733,0.542-1.3,0.613-2.007-0.004c-1.023-0.892-1.715-1.879-1.466-3.325c0.067-0.389,0.019-0.798,0.014-1.198
			c-0.006-0.518-0.134-0.981-0.733-1.067c-0.557-0.08-0.9,0.272-1.13,0.722c-0.381,0.743-0.301,1.551-0.312,2.351
			c-0.006,0.482,0.166,1.216-0.597,1.201c-0.682-0.014-0.658-0.702-0.627-1.211c0.076-1.237-0.305-2.526,0.785-3.615
			c0.917-0.916,1.862-1.436,3.173-1.319c0.793,0.07,1.599-0.006,2.398,0.005c1.416,0.02,1.767,0.372,1.791,1.773
			C238.312,375.571,238.304,376.091,238.304,376.61z M237.096,377.05c-0.041-0.497-0.018-0.867-0.111-1.205
			c-0.151-0.552-0.416-1.129-1.088-1.085c-0.734,0.048-0.944,0.64-0.945,1.295c-0.001,0.796-0.012,1.594,0.04,2.388
			c0.03,0.465,0.295,0.877,0.794,0.907c0.515,0.03,0.93-0.253,1.053-0.789C236.964,378.021,237.028,377.468,237.096,377.05z"/>
		<path fill-rule="evenodd" clip-rule="evenodd" fill="#304630" d="M244.265,425.175c-0.502-0.073-1.153-0.01-1.189-0.585
			c-0.038-0.606,0.548-0.782,1.101-0.808c0.521-0.023,1.043,0.139,1.074,0.679C245.286,425.067,244.703,425.12,244.265,425.175z"/>
		<path fill-rule="evenodd" clip-rule="evenodd" fill="#FEFEFE" d="M242.456,430.933c1.014-0.995,2.183-0.585,3.289-0.632
			c0.169-0.007,0.294,0.126,0.222,0.32c-0.079,0.211-0.271,0.305-0.475,0.307C244.48,430.938,243.468,430.933,242.456,430.933z"/>
		<path fill-rule="evenodd" clip-rule="evenodd" fill="#FEFEFE" d="M238.152,387.792c-0.069,1.242,0.353,2.649-1.021,3.738
			c-1.554,1.232-3.234,1.194-4.854,0.578c-1.464-0.557-2.287-1.795-2.134-3.514c0.088-0.991,0.043-1.993,0.112-2.986
			c0.022-0.324,0.046-0.832,0.533-0.795c0.468,0.035,0.595,0.47,0.597,0.899c0.003,0.959-0.01,1.918-0.001,2.876
			c0.017,1.716,0.932,2.592,2.712,2.611c1.878,0.021,2.903-0.841,2.953-2.529c0.031-1.038,0.002-2.077,0.008-3.116
			c0.002-0.379,0.075-0.778,0.539-0.792c0.473-0.013,0.55,0.383,0.554,0.765C238.157,386.248,238.152,386.967,238.152,387.792z"/>
		<path fill-rule="evenodd" clip-rule="evenodd" fill="#FEFEFE" d="M243.603,400.123c0.314,0.168,0.877,0.067,0.919,0.555
			c0.032,0.373-0.42,0.41-0.716,0.447c-0.378,0.047-0.741-0.051-0.757-0.519C243.038,400.289,243.256,400.117,243.603,400.123z"/>
		<path fill-rule="evenodd" clip-rule="evenodd" fill="#9AA49A" d="M282.91,387.185c0-8.918-0.009-17.836,0.01-26.754
			c0.003-1.306,0.056-2.568,1.177-3.609c0.981-0.912,2.101-1.155,3.291-1.157c11.757-0.026,23.514-0.019,35.271-0.008
			c4.376,0.004,7.215,3.868,5.976,7.757c-0.706,2.215-3.301,4.083-6.198,4.1c-8.478,0.051-16.956,0.02-25.434,0.014
			c-0.276,0-0.551-0.078-0.828-0.112c-1.124-0.139-1.581,0.233-1.584,1.343c-0.011,3.719,0.012,7.438-0.021,11.157
			c-0.01,1.065,0.482,1.399,1.466,1.392c3.199-0.022,6.402-0.102,9.597,0.02c3.718,0.142,6.832,2.915,5.902,7.23
			c-0.522,2.427-2.598,4.352-5.985,4.429c-3.078,0.07-6.158,0.013-9.238,0.018c-1.53,0.002-1.728,0.221-1.727,1.729
			c0.004,6.718,0.003,13.437-0.002,20.155c-0.002,2.229-1.008,3.996-2.892,5.054c-3.329,1.869-8.134,0.239-8.587-4.22
			c-0.49-4.818-0.13-9.666-0.181-14.501C282.872,396.543,282.91,391.863,282.91,387.185z M283.753,387.209c0,3.758,0,7.517,0,11.275
			c0,5.438-0.011,10.875,0.007,16.313c0.013,3.883,3.485,5.712,6.163,4.925c2.376-0.698,3.977-3.021,3.981-5.602
			c0.012-6.677-0.004-13.354,0.006-20.031c0.002-1.762,0.371-2.119,2.106-2.123c3.199-0.008,6.398-0.043,9.596,0.018
			c1.228,0.023,2.258-0.311,3.235-1.013c1.395-1.001,2.301-3.363,1.822-4.879c-0.698-2.215-2.231-3.483-4.307-3.496
			c-3.358-0.021-6.717-0.008-10.076-0.014c-1.833-0.003-2.526-0.693-2.53-2.54c-0.008-3.638-0.003-7.277-0.002-10.915
			c0-2.077,0.611-2.688,2.693-2.688c6.797,0,13.594,0.003,20.391,0.003c2.039,0,4.079,0.024,6.117-0.014
			c3.407-0.064,5.509-2.876,4.758-6.331c-0.393-1.81-3.262-3.594-5.068-3.589c-11.715,0.036-23.43,0.014-35.145,0.016
			c-2.587,0-3.749,1.189-3.749,3.816C283.751,369.297,283.752,378.253,283.753,387.209z"/>
		<path fill-rule="evenodd" clip-rule="evenodd" fill="#9AA49A" d="M341.175,418.635c-4.118,0-8.236,0.027-12.354-0.008
			c-3.828-0.033-8.118-3.306-9.039-7.144c-0.415-1.731-0.651-3.427-0.643-5.193c0.027-5.557-0.12-11.118,0.055-16.67
			c0.142-4.508,2.322-7.937,6.742-9.806c1.444-0.611,2.883-0.838,4.416-0.835c7.356,0.016,14.713,0.003,22.069,0.009
			c3.53,0.002,6.123,2.059,6.769,5.543c0.272,1.467-0.384,2.813-1.28,3.976c-1.499,1.942-3.62,2.492-5.936,2.5
			c-4.639,0.017-9.277-0.052-13.913,0.027c-2.862,0.049-4.997,1.42-6.306,4.02c-0.514,1.019-0.343,2.133-0.402,3.179
			c-0.147,2.603-0.046,5.197,2.322,7.033c1.551,1.201,3.301,1.722,5.219,1.73c4.837,0.021,9.675-0.001,14.513,0.022
			c2.676,0.013,4.756,1.776,5.696,4.756c0.523,1.662-0.626,4.328-2.302,5.662c-1.126,0.897-2.323,1.262-3.753,1.242
			c-3.957-0.054-7.916-0.019-11.874-0.019C341.175,418.652,341.175,418.644,341.175,418.635z M340.019,380.242
			c-3.471,0.188-7.948-0.286-12.413,0.215c-3.469,0.389-7.083,4.158-7.131,7.778c-0.093,7.115-0.032,14.231-0.018,21.347
			c0.004,1.569,0.631,2.994,1.479,4.236c1.769,2.596,4.495,3.867,7.47,3.936c7.912,0.181,15.83,0.11,23.745,0.034
			c2.113-0.021,3.788-1.156,4.52-3.19c0.706-1.964,0.458-3.823-1.228-5.349c-1.153-1.045-2.51-1.373-3.964-1.383
			c-4.758-0.033-9.515-0.01-14.272-0.02c-2.211-0.005-4.151-0.708-5.698-2.335c-2.167-2.278-2.653-4.999-2.39-8.061
			c0.333-3.876,3.896-7.717,8.378-7.513c4.866,0.222,9.752,0.061,14.629,0.035c2.101-0.012,3.621-1.18,4.468-2.939
			c0.771-1.602,0.594-3.32-0.524-4.871c-1.082-1.499-2.607-1.903-4.299-1.914C348.852,380.225,344.934,380.242,340.019,380.242z"/>
		<path fill-rule="evenodd" clip-rule="evenodd" fill="#9AA49A" d="M234.359,407.471c0.729,0.205,1.879-0.521,2.39,0.741
			c0.542,1.34,0.606,2.755-0.116,4.004c-0.688,1.19-1.946,1.398-3.245,1.23c-1.038-0.135-2.116-1.319-2.158-2.36
			c-0.021-0.517-0.012-1.035-0.012-1.553c0-1.855,0.19-2.045,2.062-2.063C233.599,407.468,233.918,407.471,234.359,407.471z
			 M234.266,408.35c-2.121,0.01-2.121,0.01-2.116,1.471c0.008,2.233,0.542,2.95,2.174,2.916c1.458-0.03,1.989-0.825,1.99-2.976
			C236.313,408.361,236.283,408.34,234.266,408.35z"/>
		<path fill-rule="evenodd" clip-rule="evenodd" fill="#9AA49A" d="M237.078,421.084c-0.021,0.477,0.034,0.974-0.083,1.427
			c-0.146,0.563-0.535,1.003-1.18,1.011c-0.659,0.009-0.916-0.519-0.96-1.031c-0.079-0.908-0.09-1.834-0.011-2.742
			c0.058-0.671,0.541-1.078,1.244-1.021c0.669,0.055,0.936,0.539,0.966,1.16c0.02,0.397,0.003,0.797,0.003,1.195
			C237.064,421.084,237.071,421.084,237.078,421.084z M235.49,421.131c0.239,0.453-0.333,1.343,0.465,1.349
			c0.638,0.005,0.345-0.845,0.337-1.302c-0.008-0.493,0.358-1.386-0.345-1.403C235.16,419.755,235.714,420.666,235.49,421.131z"/>
		<path fill-rule="evenodd" clip-rule="evenodd" fill="#9AA49A" d="M233.708,398.671c-0.278,0.582,0.069,1.222-0.045,1.841
			c-0.097,0.525-0.105,1.182-0.848,1.268c-0.635,0.073-0.904-0.412-1.135-0.884c-0.444-0.906-0.453-1.849-0.091-2.771
			c0.23-0.588,0.508-1.289,1.335-1.065C233.688,397.266,233.682,397.982,233.708,398.671z M232.982,399.162
			c-0.298-0.286,0.459-1.205-0.396-1.208c-0.645-0.001-0.622,0.876-0.641,1.468c-0.003,0.079-0.003,0.159,0.004,0.237
			c0.053,0.516,0.111,1.237,0.688,1.196c0.596-0.042,0.259-0.773,0.34-1.2C233,399.541,232.982,399.419,232.982,399.162z"/>
		<path fill-rule="evenodd" clip-rule="evenodd" fill="#9AA49A" d="M237.096,377.05c-0.068,0.418-0.132,0.971-0.256,1.511
			c-0.123,0.535-0.539,0.819-1.053,0.789c-0.499-0.03-0.765-0.441-0.794-0.907c-0.051-0.794-0.041-1.592-0.04-2.388
			c0.001-0.655,0.21-1.247,0.945-1.295c0.672-0.044,0.937,0.534,1.088,1.085C237.078,376.183,237.056,376.553,237.096,377.05z
			 M236.333,377.058c-0.287-0.303,0.41-1.224-0.454-1.212c-0.623,0.008-0.263,0.851-0.337,1.318
			c-0.043,0.268-0.004,0.552,0.016,0.827c0.016,0.214,0.129,0.393,0.354,0.399s0.352-0.163,0.373-0.379
			C236.312,377.736,236.314,377.459,236.333,377.058z"/>
		<path fill-rule="evenodd" clip-rule="evenodd" fill="#304630" d="M283.752,387.209c0-8.956-0.001-17.912,0-26.868
			c0-2.627,1.162-3.816,3.749-3.816c11.715-0.002,23.43,0.02,35.145-0.016c1.807-0.005,4.676,1.779,5.068,3.589
			c0.751,3.455-1.351,6.267-4.758,6.331c-2.038,0.038-4.078,0.014-6.117,0.014c-6.797,0-13.594-0.003-20.391-0.003
			c-2.083,0-2.693,0.612-2.693,2.688c-0.001,3.638-0.006,7.277,0.002,10.915c0.004,1.847,0.697,2.537,2.53,2.54
			c3.358,0.006,6.717-0.007,10.076,0.014c2.075,0.013,3.608,1.281,4.307,3.496c0.479,1.516-0.428,3.877-1.822,4.879
			c-0.977,0.702-2.007,1.036-3.235,1.013c-3.198-0.061-6.397-0.026-9.596-0.018c-1.735,0.004-2.104,0.361-2.106,2.123
			c-0.01,6.677,0.005,13.354-0.006,20.031c-0.004,2.581-1.605,4.903-3.981,5.602c-2.678,0.787-6.15-1.042-6.163-4.925
			c-0.018-5.438-0.006-10.875-0.007-16.313C283.753,394.726,283.753,390.967,283.752,387.209z"/>
		<path fill-rule="evenodd" clip-rule="evenodd" fill="#304630" d="M340.019,380.242c4.915,0,8.833-0.018,12.751,0.008
			c1.691,0.011,3.217,0.415,4.299,1.914c1.118,1.551,1.295,3.269,0.524,4.871c-0.847,1.76-2.367,2.928-4.468,2.939
			c-4.877,0.026-9.763,0.188-14.629-0.035c-4.481-0.205-8.045,3.637-8.378,7.513c-0.264,3.062,0.223,5.782,2.39,8.061
			c1.547,1.627,3.487,2.33,5.698,2.335c4.758,0.01,9.515-0.014,14.272,0.02c1.454,0.01,2.811,0.338,3.964,1.383
			c1.686,1.525,1.934,3.385,1.228,5.349c-0.731,2.034-2.406,3.17-4.52,3.19c-7.915,0.076-15.833,0.146-23.745-0.034
			c-2.975-0.068-5.701-1.34-7.47-3.936c-0.848-1.242-1.475-2.667-1.479-4.236c-0.015-7.116-0.075-14.232,0.018-21.347
			c0.048-3.62,3.662-7.389,7.131-7.778C332.07,379.956,336.548,380.43,340.019,380.242z"/>
		<path fill-rule="evenodd" clip-rule="evenodd" fill="#304630" d="M234.266,408.35c2.017-0.01,2.048,0.012,2.048,1.411
			c0,2.15-0.532,2.945-1.99,2.976c-1.631,0.034-2.166-0.683-2.174-2.916C232.145,408.359,232.145,408.359,234.266,408.35z"/>
		<path fill-rule="evenodd" clip-rule="evenodd" fill="#304630" d="M235.49,421.131c0.224-0.465-0.331-1.376,0.457-1.356
			c0.704,0.018,0.337,0.91,0.345,1.403c0.008,0.457,0.301,1.307-0.337,1.302C235.157,422.474,235.729,421.584,235.49,421.131z"/>
		<path fill-rule="evenodd" clip-rule="evenodd" fill="#304630" d="M232.982,399.162c0,0.257,0.019,0.379-0.003,0.493
			c-0.082,0.427,0.256,1.158-0.34,1.2c-0.577,0.041-0.635-0.681-0.688-1.196c-0.008-0.078-0.007-0.158-0.004-0.237
			c0.019-0.592-0.003-1.469,0.641-1.468C233.441,397.957,232.684,398.876,232.982,399.162z"/>
		<path fill-rule="evenodd" clip-rule="evenodd" fill="#304630" d="M236.333,377.058c-0.019,0.401-0.021,0.678-0.048,0.953
			c-0.021,0.216-0.147,0.385-0.373,0.379s-0.339-0.185-0.354-0.399c-0.021-0.275-0.06-0.559-0.016-0.827
			c0.075-0.467-0.285-1.31,0.337-1.318C236.743,375.834,236.046,376.755,236.333,377.058z"/>
	</g>
</g>
</svg>
